<svg width="18.000000" height="15.678711" viewBox="0 0 18 15.6787" fill="none" xmlns="http://www.w3.org/2000/svg" xmlns:xlink="http://www.w3.org/1999/xlink">
	<desc>
			Created with Pixso.
	</desc>
	<defs/>
	<path id="path-1" d="M1.5 1.6C3.41 -0.31 6.37 -0.52 8.51 0.98C8.77 1.16 9.02 1.37 9.25 1.6L9.14 1.49C9.15 1.51 9.17 1.52 9.19 1.54L9.25 1.6C9.34 1.69 9.42 1.77 9.5 1.85C9.62 1.98 9.75 2.1 9.87 2.22L9.96 2.32C10.34 2.7 10.63 3.01 10.85 3.25C11.07 3.5 11.05 3.89 10.8 4.11C10.55 4.34 10.17 4.32 9.94 4.07L9.83 3.94C9.5 3.59 9.02 3.09 8.39 2.46L8.24 2.32C6.57 0.8 3.98 0.84 2.36 2.46C0.79 4.03 0.86 6.53 2.4 8.57C2.91 9.25 3.7 10.12 4.73 11.12L4.73 11.12L4.77 11.15C5.24 11.61 6.11 12.38 7.37 13.45L7.37 13.45L8.21 14.17C8.66 14.55 9.33 14.55 9.78 14.17L9.78 14.17L10.55 13.52C11.79 12.46 12.66 11.7 13.15 11.23L13.15 11.23L13.36 11.02C14.34 10.06 15.1 9.23 15.59 8.57C17.13 6.53 17.2 4.03 15.63 2.46C14.25 1.08 12.16 0.85 10.54 1.75C10.31 1.51 10.07 1.27 9.82 1.03C9.77 0.97 9.71 0.92 9.65 0.86C11.78 -0.5 14.63 -0.26 16.49 1.6C18.53 3.64 18.44 6.81 16.57 9.31L16.57 9.31L16.51 9.38C15.94 10.13 15.08 11.06 14 12.1L14 12.1L13.96 12.14C13.42 12.66 12.49 13.48 11.17 14.59L11.17 14.59L10.57 15.1C9.66 15.87 8.33 15.86 7.43 15.1C5.72 13.66 4.56 12.65 3.95 12.06L3.95 12.06L3.77 11.89C2.76 10.89 1.96 10.02 1.42 9.31C-0.45 6.81 -0.54 3.64 1.5 1.6Z" fill="#000000" fill-opacity="1.000000" fill-rule="evenodd"/>
</svg>
