<svg width="14.000000" height="8.000000" viewBox="0 0 14 8" fill="none" xmlns="http://www.w3.org/2000/svg" xmlns:xlink="http://www.w3.org/1999/xlink">
	<desc>
			Created with Pixso.
	</desc>
	<defs/>
	<path id="形状" d="M2.80005 0C3.44434 0 4.00732 0.109375 4.48877 0.327881C4.88916 0.509521 5.21411 0.75293 5.46338 1.05811C5.51392 1.12012 5.56128 1.18433 5.60547 1.25146C5.65259 1.32251 5.69556 1.39575 5.73413 1.47095C5.91138 1.81689 6 2.20801 6 2.64478C6 3.05566 5.91943 3.42749 5.75806 3.76001C5.71338 3.85205 5.6626 3.94116 5.60547 4.02734C5.55737 4.10034 5.50537 4.17017 5.44971 4.23682L5.44946 4.23682C5.20215 4.53369 4.88184 4.77002 4.48877 4.94531C4.00732 5.1604 3.44434 5.26782 2.80005 5.26782L1.61108 5.26782L1.61108 8L0 8L0 0L2.80005 0ZM3.83325 3.60107C3.52954 3.81592 3.12598 3.92358 2.62231 3.92358L1.61108 3.92358L1.61108 1.34424L2.62231 1.34424C3.12598 1.34424 3.52954 1.45532 3.83325 1.67749C3.94287 1.75757 4.03247 1.85083 4.10254 1.95679C4.22681 2.14526 4.28882 2.37451 4.28882 2.64478C4.28882 2.9187 4.2251 3.14917 4.09741 3.33569C4.02808 3.43701 3.94019 3.52539 3.83325 3.60107Z" clip-rule="evenodd" fill="#0A59F7" fill-opacity="1.000000" fill-rule="evenodd"/>
	<path id="路径" d="M10.7 3.26L14 8L12.01 8L9.59 4.48L8.53 5.65L8.53 8L7 8L7 0L8.53 0L8.53 3.72L11.76 0L13.68 0L10.7 3.26Z" fill="#0A59F7" fill-opacity="1.000000" fill-rule="evenodd"/>
</svg>
