<svg width="19.500000" height="15.794067" viewBox="0 0 19.5 15.7941" fill="none" xmlns="http://www.w3.org/2000/svg" xmlns:xlink="http://www.w3.org/1999/xlink">
	<desc>
			Created with Pixso.
	</desc>
	<defs/>
	<path id="路径" d="M16.95 0.75C17.94 0.75 18.75 1.69 18.75 2.86L18.75 12.92C18.75 14.09 17.94 15.04 16.95 15.04L2.55 15.04C1.55 15.04 0.75 14.09 0.75 12.92L0.75 2.86C0.75 1.69 1.55 0.75 2.55 0.75L16.95 0.75Z" fill="#FFFFFF" fill-opacity="0" fill-rule="evenodd"/>
	<path id="路径" d="M18.75 2.86L18.75 12.92C18.75 14.09 17.94 15.04 16.95 15.04L2.55 15.04C1.55 15.04 0.75 14.09 0.75 12.92L0.75 2.86C0.75 1.69 1.55 0.75 2.55 0.75L16.95 0.75C17.94 0.75 18.75 1.69 18.75 2.86Z" stroke="#000000" stroke-opacity="1.000000" stroke-width="1.500000"/>
	<path id="路径" d="M7.79 5.16C7.72 5.28 7.69 5.4 7.69 5.53L7.69 10.78C7.69 11.17 8 11.49 8.39 11.49C8.52 11.49 8.65 11.45 8.76 11.38L13.05 8.76C13.39 8.56 13.49 8.12 13.29 7.79C13.23 7.69 13.15 7.61 13.05 7.55L8.76 4.93C8.43 4.73 7.99 4.83 7.79 5.16Z" fill="#000000" fill-opacity="1.000000" fill-rule="evenodd"/>
</svg>
