<svg width="19.500000" height="19.500000" viewBox="0 0 19.5 19.5" fill="none" xmlns="http://www.w3.org/2000/svg" xmlns:xlink="http://www.w3.org/1999/xlink">
	<desc>
			Created with Pixso.
	</desc>
	<defs/>
	<path id="路径" d="M8.64 2.35L8.64 8.55C8.64 9.29 8.66 10.13 9.11 10.68C9.51 11.17 10.29 11.41 10.93 11.6L16.94 13.42C15.75 16.53 12.69 18.75 9.11 18.75C4.49 18.75 0.75 15.07 0.75 10.54C0.75 6.17 4.24 2.59 8.64 2.35Z" fill="#FFFFFF" fill-opacity="0" fill-rule="evenodd"/>
	<path id="路径" d="M8.64 8.55C8.64 9.29 8.66 10.13 9.11 10.68C9.51 11.17 10.29 11.41 10.93 11.6L16.94 13.42C15.75 16.53 12.69 18.75 9.11 18.75C4.49 18.75 0.75 15.07 0.75 10.54C0.75 6.17 4.24 2.59 8.64 2.35L8.64 8.55Z" stroke="#000000" stroke-opacity="1.000000" stroke-width="1.500000"/>
	<path id="路径" d="M8.68 0.75C14.24 0.75 18.75 5.28 18.75 10.88C18.75 11.9 18.6 12.89 18.32 13.82L10.1 11.33C9.26 11.08 8.68 10.31 8.68 9.44L8.68 0.75Z" fill="#FFFFFF" fill-opacity="0" fill-rule="evenodd"/>
	<path id="路径" d="M18.75 10.88C18.75 11.9 18.6 12.89 18.32 13.82L10.1 11.33C9.26 11.08 8.68 10.31 8.68 9.44L8.68 0.75C14.24 0.75 18.75 5.28 18.75 10.88Z" stroke="#000000" stroke-opacity="1.000000" stroke-width="1.500000"/>
</svg>
