<svg width="14.500000" height="17.500000" viewBox="0 0 14.5 17.5" fill="none" xmlns="http://www.w3.org/2000/svg" xmlns:xlink="http://www.w3.org/1999/xlink">
	<desc>
			Created with Pixso.
	</desc>
	<defs/>
	<g style="mix-blend-mode:multiply">
		<path id="形状" d="M3.33691 4.75L9.98901 4.75C10.3132 4.75 10.5762 4.9967 10.5762 5.30103C10.5762 5.60535 10.3132 5.85205 9.98901 5.85205L3.33691 5.85205C3.0127 5.85205 2.75 5.60535 2.75 5.30103C2.75 4.9967 3.0127 4.75 3.33691 4.75ZM7.05444 7.68872L3.33691 7.68872C3.0127 7.68872 2.75 7.93542 2.75 8.23975C2.75 8.54407 3.0127 8.79077 3.33691 8.79077L7.05444 8.79077C7.37842 8.79077 7.64136 8.54407 7.64136 8.23975C7.64136 7.93542 7.37842 7.68872 7.05444 7.68872ZM10.7717 10.4438L9.20654 10.4438C8.66626 10.4438 8.22827 10.8551 8.22827 11.3623L8.22827 12.8317C8.22827 13.3389 8.66626 13.75 9.20654 13.75L10.7717 13.75C11.312 13.75 11.75 13.3389 11.75 12.8317L11.75 11.3623C11.75 10.8551 11.312 10.4438 10.7717 10.4438Z" clip-rule="evenodd" fill="#000000" fill-opacity="0.901961" fill-rule="evenodd"/>
	</g>
	<g style="mix-blend-mode:multiply">
		<path id="路径" d="M10.86 0.75C12.45 0.75 13.75 2.05 13.75 3.65L13.75 3.65L13.75 13.84C13.75 15.44 12.45 16.75 10.86 16.75L10.86 16.75L3.63 16.75C2.04 16.75 0.75 15.44 0.75 13.84L0.75 13.84L0.75 3.65C0.75 2.05 2.04 0.75 3.63 0.75L3.63 0.75L10.86 0.75Z" fill="#F9A01E" fill-opacity="0" fill-rule="evenodd"/>
		<path id="路径" d="M13.75 3.65L13.75 3.65L13.75 13.84C13.75 15.44 12.45 16.75 10.86 16.75L10.86 16.75L3.63 16.75C2.04 16.75 0.75 15.44 0.75 13.84L0.75 13.84L0.75 3.65C0.75 2.05 2.04 0.75 3.63 0.75L3.63 0.75L10.86 0.75C12.45 0.75 13.75 2.05 13.75 3.65Z" stroke="#000000" stroke-opacity="1.000000" stroke-width="1.500000"/>
	</g>
</svg>
