<svg width="18.500000" height="18.500000" viewBox="0 0 18.5 18.5" fill="none" xmlns="http://www.w3.org/2000/svg" xmlns:xlink="http://www.w3.org/1999/xlink">
	<desc>
			Created with Pixso.
	</desc>
	<defs/>
	<path id="形状" d="M9.25 0C14.3586 0 18.5 4.14136 18.5 9.25C18.5 14.3586 14.3586 18.5 9.25 18.5C4.14136 18.5 0 14.3586 0 9.25C0 4.14136 4.14136 0 9.25 0ZM2.03467 6.51526C3.13843 3.6051 5.95215 1.53577 9.25 1.53577C12.5479 1.53577 15.3616 3.6051 16.4648 6.51526C11.9556 4.10962 6.54395 4.10962 2.03467 6.51526ZM1.72144 8.18604L1.59814 8.26648C1.50708 8.9812 1.51587 9.70508 1.62378 10.4175C3.30029 10.2517 4.95654 10.8872 6.09204 12.1317C7.22729 13.3762 7.7085 15.0837 7.39014 16.738C7.9856 16.8859 8.6084 16.9642 9.25 16.9642C9.91211 16.9642 10.5549 16.8807 11.1677 16.7239C10.8562 15.0814 11.332 13.3879 12.4534 12.1481C13.5747 10.9082 15.2122 10.2654 16.8774 10.411C16.9851 9.70068 16.9932 8.979 16.9019 8.26648C12.2939 5.27002 6.36108 5.23865 1.72144 8.18604ZM1.92725 11.6832L2.06738 11.6768L2.06812 11.6774C3.25928 11.6544 4.40039 12.1566 5.18774 13.0507C5.97534 13.9447 6.32959 15.14 6.15649 16.3188C4.15527 15.4403 2.61914 13.7563 1.92725 11.6832ZM16.5735 11.6801C15.3726 11.6318 14.2124 12.1191 13.406 13.0103C12.5996 13.9014 12.2305 15.1044 12.3979 16.2944C14.3718 15.4099 15.885 13.7395 16.5708 11.6884L16.5735 11.6801Z" clip-rule="evenodd" fill="#000000" fill-opacity="1.000000" fill-rule="evenodd"/>
	<path id="路径" d="M9.25 7.96C10.35 7.96 11.25 8.85 11.25 9.96C11.25 11.06 10.35 11.96 9.25 11.96C8.14 11.96 7.25 11.06 7.25 9.96C7.25 8.85 8.14 7.96 9.25 7.96Z" fill="#000000" fill-opacity="1.000000" fill-rule="evenodd"/>
</svg>
