<svg width="16.000000" height="16.000000" viewBox="0 0 16 16" fill="none" xmlns="http://www.w3.org/2000/svg" xmlns:xlink="http://www.w3.org/1999/xlink">
    <desc>
        Created with Pixso.
    </desc>
    <defs/>
    <g opacity="0.600000">
        <path id="path-1" d="M6.83325 2.00006C6.83325 1.63184 6.53467 1.33337 6.1665 1.33337L4 1.33337L3.86694 1.33661C2.45581 1.40601 1.33325 2.5719 1.33325 4.00006L1.33325 6.16669L1.33765 6.24445C1.37622 6.57599 1.65796 6.83337 2 6.83337C2.36816 6.83337 2.6665 6.53491 2.6665 6.16669L2.6665 4.00006L2.67017 3.90051C2.72119 3.21063 3.29712 2.66669 4 2.66669L6.1665 2.66669L6.24438 2.66223C6.57593 2.62372 6.83325 2.34192 6.83325 2.00006ZM12 1.33337C13.4282 1.33337 14.5942 2.45599 14.6636 3.86694L14.6667 4.00006L14.6667 6.16669C14.6667 6.53491 14.3682 6.83337 14 6.83337C13.6582 6.83337 13.3765 6.57599 13.3379 6.24445L13.3335 6.16669L13.3335 4.00006C13.3335 3.29712 12.7896 2.72125 12.0996 2.67035L12 2.66669L9.8335 2.66669C9.46533 2.66669 9.16675 2.36823 9.16675 2.00006C9.16675 1.65814 9.42407 1.37634 9.75562 1.33783L9.8335 1.33337L12 1.33337ZM4 7.33331L12 7.33331C12.3682 7.33331 12.6667 7.63184 12.6667 8C12.6667 8.36816 12.3682 8.66669 12 8.66669L4 8.66669C3.63184 8.66669 3.33325 8.36816 3.33325 8C3.33325 7.63184 3.63184 7.33331 4 7.33331ZM2.66211 9.75555C2.62354 9.42401 2.3418 9.16663 2 9.16663C1.63184 9.16663 1.33325 9.46509 1.33325 9.83331L1.33325 11.9999L1.33643 12.1331C1.40576 13.544 2.57178 14.6666 4 14.6666L6.1665 14.6666L6.24438 14.6621C6.57593 14.6237 6.83325 14.3419 6.83325 13.9999C6.83325 13.6318 6.53467 13.3333 6.1665 13.3333L4 13.3333L3.90039 13.3297C3.21045 13.2787 2.6665 12.7029 2.6665 11.9999L2.6665 9.83331L2.66211 9.75555ZM14 9.16663C14.342 9.16663 14.6238 9.42401 14.6624 9.75555L14.6667 9.83331L14.6667 11.9999C14.6667 13.4281 13.5442 14.594 12.1331 14.6634L12 14.6666L9.8335 14.6666C9.46533 14.6666 9.16675 14.3682 9.16675 13.9999C9.16675 13.6581 9.42407 13.3763 9.75562 13.3378L9.8335 13.3333L12 13.3333C12.7029 13.3333 13.2788 12.7894 13.3298 12.0995L13.3335 11.9999L13.3335 9.83331C13.3335 9.46509 13.6318 9.16663 14 9.16663Z" clip-rule="evenodd" fill="#000000" fill-opacity="1.000000" fill-rule="evenodd"/>
    </g>
</svg>
