<svg width="24.000000" height="24.000000" viewBox="0 0 24 24" fill="none" xmlns="http://www.w3.org/2000/svg" xmlns:xlink="http://www.w3.org/1999/xlink">
	<desc>
			Created with Pixso.
	</desc>
	<defs/>
	<path id="形状" d="M3.81006 8.09094L11.01 3.27271C11.6399 2.90906 12.3601 2.90906 12.99 3.27271L20.1899 8.09094C20.73 8.45459 21 9 21 9.63635L21 20.0909C21 20.6364 20.6399 21 20.1001 21L3.8999 21C3.36011 21 3 20.6364 3 20.0909L3 9.63635C3 9 3.27002 8.45459 3.81006 8.09094ZM12 4.66492L4.56738 9.6366L4.56738 19.4874L19.4683 19.4874L19.4683 9.6366L12 4.66492Z" clip-rule="evenodd" fill="#000000" fill-opacity="0.901961" fill-rule="evenodd"/>
	<path id="路径" d="M15 16C15 16.5 14.6 16.9 14.1 17L10 17C9.39 17 9 16.6 9 16C9 15.5 9.39 15.1 9.89 15L14 15C14.6 15 15 15.4 15 16Z" fill="#000000" fill-opacity="0.901961" fill-rule="evenodd"/>
</svg>
