<svg width="24.000000" height="24.000000" viewBox="0 0 24 24" fill="none" xmlns="http://www.w3.org/2000/svg" xmlns:xlink="http://www.w3.org/1999/xlink">
	<desc>
			Created with Pixso.
	</desc>
	<defs>
		<clipPath id="clip18_3571">
			<rect id="cart" width="24.000000" height="24.000000" fill="white" fill-opacity="0"/>
		</clipPath>
	</defs>
	<g clip-path="url(#clip18_3571)">
		<g opacity="0.000000">
			<rect id="rect" width="24.000000" height="24.000000" fill="#000000" fill-opacity="1.000000"/>
		</g>
		<path id="path" d="M19.08 15.05C19.49 15.05 19.87 14.88 20.21 14.54C20.56 14.2 20.77 13.79 20.83 13.3L21.91 5.69C21.93 5.59 21.92 5.49 21.89 5.39C21.85 5.28 21.8 5.18 21.72 5.09C21.57 4.93 21.39 4.85 21.17 4.85L5.93 4.85L5.57 2.69C5.53 2.51 5.44 2.36 5.3 2.24C5.16 2.12 5 2.06 4.82 2.06L2.83 2.06C2.62 2.06 2.44 2.13 2.3 2.28C2.16 2.42 2.09 2.6 2.09 2.81C2.09 3.01 2.16 3.19 2.3 3.34C2.44 3.48 2.62 3.55 2.83 3.55L4.2 3.55L5.95 13.7C5.53 13.84 5.2 14.1 4.94 14.46C4.68 14.82 4.56 15.22 4.56 15.67C4.56 16.05 4.65 16.41 4.85 16.74C5.04 17.06 5.3 17.32 5.63 17.52C5.95 17.71 6.31 17.81 6.7 17.81L20.09 17.81C20.29 17.81 20.47 17.73 20.62 17.58C20.76 17.42 20.83 17.24 20.83 17.04C20.83 16.83 20.76 16.65 20.62 16.51C20.47 16.37 20.29 16.29 20.09 16.29L6.67 16.29C6.49 16.29 6.35 16.24 6.22 16.12C6.11 16 6.05 15.85 6.05 15.67C6.05 15.49 6.11 15.35 6.23 15.23C6.36 15.11 6.51 15.05 6.67 15.05L19.08 15.05ZM20.29 6.36L19.34 13.08C19.32 13.2 19.26 13.32 19.16 13.42C19.06 13.51 18.93 13.56 18.79 13.56L7.44 13.56L6.21 6.34L20.29 6.36ZM8.09 20.18C8.09 20.66 8.26 21.07 8.6 21.42C8.94 21.76 9.36 21.94 9.84 21.94C10.32 21.94 10.73 21.76 11.08 21.42C11.42 21.07 11.59 20.66 11.59 20.18C11.59 19.7 11.42 19.29 11.08 18.95C10.73 18.6 10.32 18.43 9.84 18.43C9.36 18.43 8.94 18.6 8.6 18.95C8.26 19.29 8.09 19.7 8.09 20.18ZM15.1 20.18C15.1 20.66 15.26 21.07 15.6 21.42C15.93 21.76 16.34 21.94 16.82 21.94C17.32 21.94 17.73 21.76 18.07 21.42C18.41 21.07 18.58 20.66 18.58 20.18C18.58 19.7 18.41 19.29 18.07 18.95C17.73 18.6 17.32 18.43 16.82 18.43C16.34 18.43 15.93 18.6 15.6 18.95C15.26 19.29 15.1 19.7 15.1 20.18Z" fill="#000000" fill-opacity="0.901961" fill-rule="nonzero"/>
	</g>
</svg>
