<svg width="24.000000" height="24.000000" viewBox="0 0 24 24" fill="none" xmlns="http://www.w3.org/2000/svg" xmlns:xlink="http://www.w3.org/1999/xlink">
	<desc>
			Created with Pixso.
	</desc>
	<defs/>
	<mask id="mask44_1276" mask-type="alpha" maskUnits="userSpaceOnUse" x="2.500000" y="2.500000" width="19.000000" height="19.250000">
		<path id="形状结合" d="M17.25 7.75C17.25 10.6469 14.897 13 12 13C7.58179 13 4 16.5817 4 21C4 21.4142 3.66431 21.75 3.25 21.75C2.83569 21.75 2.5 21.4142 2.5 21L2.5 20.9999C2.5 17.2323 4.69312 13.9771 7.87256 12.441L7.87256 12.441C8.21387 12.2761 8.56665 12.131 8.9292 12.0072C7.60962 11.0531 6.75 9.50085 6.75 7.75C6.75 4.85315 9.10303 2.5 12 2.5C14.897 2.5 17.25 4.85315 17.25 7.75ZM12 11.5C14.0691 11.5 15.75 9.81921 15.75 7.75C15.75 5.68079 14.0691 4 12 4C9.93091 4 8.25 5.68079 8.25 7.75C8.25 9.81921 9.93091 11.5 12 11.5ZM20 20.9999C20 17.4928 17.7432 14.5127 14.6025 13.4327C15.1597 13.1769 15.6729 12.8414 16.1274 12.441C19.3069 13.9771 21.5 17.2323 21.5 20.9999C21.5 21.4141 21.1643 21.7499 20.75 21.7499C20.3357 21.7499 20 21.4141 20 20.9999Z" clip-rule="evenodd" fill="#000000" fill-opacity="0.901961" fill-rule="evenodd"/>
	</mask>
	<path id="形状结合" d="M17.25 7.75C17.25 10.6469 14.897 13 12 13C7.58179 13 4 16.5817 4 21C4 21.4142 3.66431 21.75 3.25 21.75C2.83569 21.75 2.5 21.4142 2.5 21L2.5 20.9999C2.5 17.2323 4.69312 13.9771 7.87256 12.441L7.87256 12.441C8.21387 12.2761 8.56665 12.131 8.9292 12.0072C7.60962 11.0531 6.75 9.50085 6.75 7.75C6.75 4.85315 9.10303 2.5 12 2.5C14.897 2.5 17.25 4.85315 17.25 7.75ZM12 11.5C14.0691 11.5 15.75 9.81921 15.75 7.75C15.75 5.68079 14.0691 4 12 4C9.93091 4 8.25 5.68079 8.25 7.75C8.25 9.81921 9.93091 11.5 12 11.5ZM20 20.9999C20 17.4928 17.7432 14.5127 14.6025 13.4327C15.1597 13.1769 15.6729 12.8414 16.1274 12.441C19.3069 13.9771 21.5 17.2323 21.5 20.9999C21.5 21.4141 21.1643 21.7499 20.75 21.7499C20.3357 21.7499 20 21.4141 20 20.9999Z" clip-rule="evenodd" fill="#000000" fill-opacity="0.901961" fill-rule="evenodd"/>
	<g mask="url(#mask44_1276)">
		<rect id="color/#000000" width="24.000000" height="24.000000" fill="#000000" fill-opacity="0.600000"/>
	</g>
</svg>
