<svg width="24.000000" height="24.000000" viewBox="0 0 24 24" fill="none" xmlns="http://www.w3.org/2000/svg" xmlns:xlink="http://www.w3.org/1999/xlink">
	<desc>
			Created with Pixso.
	</desc>
	<defs>
		<clipPath id="clip23_2217">
			<rect id="service_fill" width="24.000000" height="24.000000" fill="white" fill-opacity="0"/>
		</clipPath>
	</defs>
	<g clip-path="url(#clip23_2217)">
		<g opacity="0.000000">
			<rect id="rect" width="24.000000" height="24.000000" fill="#000000" fill-opacity="1.000000"/>
		</g>
		<path id="path" d="M19.82 9.02C19.67 7.71 19.24 6.52 18.5 5.44C17.76 4.37 16.83 3.53 15.7 2.92C14.56 2.3 13.32 1.98 12 1.98C10.68 1.98 9.46 2.28 8.34 2.88C7.21 3.47 6.28 4.29 5.56 5.32C4.82 6.37 4.37 7.52 4.19 8.78C4.16 8.97 4.14 9.14 4.14 9.29L4.14 11.35L3.42 11.35C3.17 11.35 2.95 11.43 2.77 11.62C2.59 11.79 2.5 12.01 2.5 12.29L2.5 14.76C2.5 15.01 2.59 15.23 2.77 15.41C2.95 15.58 3.17 15.67 3.42 15.67L5.39 15.67C5.65 15.67 5.87 15.58 6.06 15.41C6.24 15.23 6.34 15.01 6.34 14.76L6.34 9.38C6.34 9.12 6.36 8.85 6.4 8.56C6.6 7.77 6.94 7.05 7.43 6.41C7.93 5.77 8.53 5.25 9.23 4.87C9.62 5.91 10.2 6.83 10.96 7.64C11.72 8.45 12.61 9.08 13.62 9.54C14.65 9.99 15.74 10.22 16.89 10.22C17.06 10.22 17.31 10.2 17.65 10.17L17.65 12.17L17.63 15.05C17.63 15.25 17.68 15.4 17.77 15.5C17.85 15.6 17.99 15.65 18.16 15.65L20.57 15.65C20.82 15.65 21.04 15.55 21.23 15.38C21.4 15.2 21.5 14.99 21.5 14.74L21.5 12.26C21.5 12 21.4 11.78 21.23 11.6C21.04 11.42 20.82 11.33 20.57 11.33L19.82 11.35L19.82 9.02ZM13.73 15.02C13.5 15.24 13.24 15.42 12.93 15.54C12.63 15.66 12.32 15.72 12 15.72C11.67 15.72 11.37 15.66 11.08 15.54C10.78 15.42 10.51 15.24 10.27 15.02C10.17 14.91 10.05 14.86 9.89 14.87C9.74 14.87 9.62 14.93 9.53 15.05C9.41 15.16 9.36 15.29 9.36 15.42C9.36 15.57 9.41 15.7 9.53 15.81C9.86 16.14 10.24 16.38 10.67 16.54C11.11 16.71 11.55 16.79 12 16.79C12.46 16.79 12.9 16.71 13.33 16.54C13.75 16.38 14.13 16.14 14.47 15.81C14.58 15.7 14.64 15.57 14.64 15.42C14.65 15.29 14.6 15.16 14.5 15.05C14.38 14.93 14.25 14.87 14.11 14.87C13.97 14.86 13.84 14.91 13.73 15.02Z" fill="#000000" fill-opacity="0.898039" fill-rule="nonzero"/>
		<path id="path" d="M18.16 15.65C17.99 15.65 17.85 15.6 17.77 15.5C17.68 15.4 17.64 15.25 17.64 15.05C17.46 16.07 17.08 16.98 16.5 17.79C15.91 18.6 15.19 19.23 14.35 19.68C13.5 20.12 12.59 20.35 11.62 20.35C11.36 20.37 11.15 20.46 11 20.62C10.85 20.78 10.78 20.96 10.78 21.17C10.78 21.39 10.86 21.58 11.02 21.74C11.17 21.9 11.37 21.98 11.59 21.98C12.89 21.95 14.08 21.66 15.15 21.1C16.24 20.54 17.13 19.78 17.83 18.83C18.53 17.87 18.99 16.81 19.2 15.65L18.16 15.65Z" fill="#000000" fill-opacity="0.898039" fill-rule="nonzero"/>
	</g>
</svg>
