<svg width="26.873047" height="29.936584" viewBox="0 0 26.873 29.9366" fill="none" xmlns="http://www.w3.org/2000/svg" xmlns:xlink="http://www.w3.org/1999/xlink">
	<desc>
			Created with Pixso.
	</desc>
	<defs>
		<filter id="filter_23_2342_dd" x="0.000000" y="16.013428" width="26.873047" height="13.923157" filterUnits="userSpaceOnUse" color-interpolation-filters="sRGB">
			<feFlood flood-opacity="0" result="BackgroundImageFix"/>
			<feBlend mode="normal" in="SourceGraphic" in2="BackgroundImageFix" result="shape"/>
			<feGaussianBlur stdDeviation="1.81219" result="effect_layerBlur_1"/>
		</filter>
		<linearGradient x1="21.436523" y1="22.437027" x2="5.436523" y2="22.437027" id="paint_linear_23_2342_0" gradientUnits="userSpaceOnUse">
			<stop stop-color="#0A59F7"/>
			<stop offset="1.000000" stop-color="#0A59F7"/>
		</linearGradient>
		<linearGradient x1="20.209732" y1="21.990429" x2="11.813107" y2="24.115444" id="paint_linear_23_2342_1" gradientUnits="userSpaceOnUse">
			<stop stop-color="#0CA78E"/>
			<stop offset="0.392266" stop-color="#30D9C9"/>
			<stop offset="1.000000" stop-color="#1BC29C"/>
		</linearGradient>
		<linearGradient x1="13.436523" y1="22.644819" x2="13.436523" y2="24.500000" id="paint_linear_23_2342_2" gradientUnits="userSpaceOnUse">
			<stop stop-color="#FFFFFF" stop-opacity="0.000000"/>
			<stop offset="1.000000" stop-color="#FFFFFF" stop-opacity="0.458824"/>
		</linearGradient>
		<linearGradient x1="12.068056" y1="18.032009" x2="18.805176" y2="3.720920" id="paint_linear_23_2347_0" gradientUnits="userSpaceOnUse">
			<stop stop-color="#26C3A9"/>
			<stop offset="0.392266" stop-color="#30D9C9"/>
			<stop offset="1.000000" stop-color="#1BC29C"/>
		</linearGradient>
		<linearGradient x1="24.015263" y1="4.225300" x2="20.447067" y2="16.688627" id="paint_linear_23_2350_0" gradientUnits="userSpaceOnUse">
			<stop stop-color="#0CA78E"/>
			<stop offset="0.392266" stop-color="#30D9C9"/>
			<stop offset="1.000000" stop-color="#1BC29C"/>
		</linearGradient>
	</defs>
	<g opacity="0.643511" filter="url(#filter_23_2342_dd)">
		<path id="形状备份 2" d="M18.4561 21.485C18.075 21.4629 17.5117 21.45 16.915 21.45L9.92725 21.45L9.7876 21.4503C9.18604 21.4523 8.63159 21.4674 8.28149 21.4916C7.96924 21.5132 7.6875 21.5327 7.43652 21.55L18.6389 21.55L19.3806 21.7906L7.38232 21.7908C6.35327 22.1373 5.83887 22.3121 5.83887 22.3149C4.93359 22.577 5.83887 22.716 5.83887 22.716C5.83887 22.716 7.11157 23.0333 8.5564 23.3932L8.82886 23.4611C8.96606 23.4952 9.104 23.5296 9.24194 23.564L9.59351 23.6515C11.1699 24.044 12.6445 24.4108 12.645 24.4091C13.4092 24.599 14.1873 24.4362 14.2944 24.412L14.3071 24.4091C14.3071 24.4091 15.7942 24.0422 17.384 23.6494L17.7385 23.5618L18.0164 23.4931C19.6345 23.0931 21.1699 22.713 21.1699 22.7102C21.8389 22.5229 21.0383 22.3282 21.0383 22.3282L18.6389 21.55L19.4365 21.55L18.5405 21.4902L18.4561 21.485ZM13.2178 23.55L13.4365 23.45L12.6553 23.45L12.4365 23.55L13.2178 23.55Z" clip-rule="evenodd" fill="url(#paint_linear_23_2342_0)" fill-opacity="0.000000" fill-rule="evenodd"/>
		<path id="形状备份 2" d="M18.4561 21.485C18.075 21.4629 17.5117 21.45 16.915 21.45L9.92725 21.45L9.7876 21.4503C9.18604 21.4523 8.63159 21.4674 8.28149 21.4916C7.96924 21.5132 7.6875 21.5327 7.43652 21.55L18.6389 21.55L19.3806 21.7906L7.38232 21.7908C6.35327 22.1373 5.83887 22.3121 5.83887 22.3149C4.93359 22.577 5.83887 22.716 5.83887 22.716C5.83887 22.716 7.11157 23.0333 8.5564 23.3932L8.82886 23.4611C8.96606 23.4952 9.104 23.5296 9.24194 23.564L9.59351 23.6515C11.1699 24.044 12.6445 24.4108 12.645 24.4091C13.4092 24.599 14.1873 24.4362 14.2944 24.412L14.3071 24.4091C14.3071 24.4091 15.7942 24.0422 17.384 23.6494L17.7385 23.5618L18.0164 23.4931C19.6345 23.0931 21.1699 22.713 21.1699 22.7102C21.8389 22.5229 21.0383 22.3282 21.0383 22.3282L18.6389 21.55L19.4365 21.55L18.5405 21.4902L18.4561 21.485ZM13.2178 23.55L13.4365 23.45L12.6553 23.45L12.4365 23.55L13.2178 23.55Z" clip-rule="evenodd" fill="url(#paint_linear_23_2342_1)" fill-opacity="1.000000" fill-rule="evenodd"/>
		<path id="形状备份 2" d="M18.4561 21.485C18.075 21.4629 17.5117 21.45 16.915 21.45L9.92725 21.45L9.7876 21.4503C9.18604 21.4523 8.63159 21.4674 8.28149 21.4916C7.96924 21.5132 7.6875 21.5327 7.43652 21.55L18.6389 21.55L19.3806 21.7906L7.38232 21.7908C6.35327 22.1373 5.83887 22.3121 5.83887 22.3149C4.93359 22.577 5.83887 22.716 5.83887 22.716C5.83887 22.716 7.11157 23.0333 8.5564 23.3932L8.82886 23.4611C8.96606 23.4952 9.104 23.5296 9.24194 23.564L9.59351 23.6515C11.1699 24.044 12.6445 24.4108 12.645 24.4091C13.4092 24.599 14.1873 24.4362 14.2944 24.412L14.3071 24.4091C14.3071 24.4091 15.7942 24.0422 17.384 23.6494L17.7385 23.5618L18.0164 23.4931C19.6345 23.0931 21.1699 22.713 21.1699 22.7102C21.8389 22.5229 21.0383 22.3282 21.0383 22.3282L18.6389 21.55L19.4365 21.55L18.5405 21.4902L18.4561 21.485ZM13.2178 23.55L13.4365 23.45L12.6553 23.45L12.4365 23.55L13.2178 23.55Z" clip-rule="evenodd" fill="url(#paint_linear_23_2342_2)" fill-opacity="0.000000" fill-rule="evenodd"/>
		<path id="形状备份 2" d="M18.4561 21.485C18.075 21.4629 17.5117 21.45 16.915 21.45L9.92725 21.45L9.7876 21.4503C9.18604 21.4523 8.63159 21.4674 8.28149 21.4916C7.96924 21.5132 7.6875 21.5327 7.43652 21.55L18.6389 21.55L19.3806 21.7906L7.38232 21.7908C6.35327 22.1373 5.83887 22.3121 5.83887 22.3149C4.93359 22.577 5.83887 22.716 5.83887 22.716C5.83887 22.716 7.11157 23.0333 8.5564 23.3932L8.82886 23.4611C8.96606 23.4952 9.104 23.5296 9.24194 23.564L9.59351 23.6515C11.1699 24.044 12.6445 24.4108 12.645 24.4091C13.4092 24.599 14.1873 24.4362 14.2944 24.412L14.3071 24.4091C14.3071 24.4091 15.7942 24.0422 17.384 23.6494L17.7385 23.5618L18.0164 23.4931C19.6345 23.0931 21.1699 22.713 21.1699 22.7102C21.8389 22.5229 21.0383 22.3282 21.0383 22.3282L18.6389 21.55L19.4365 21.55L18.5405 21.4902L18.4561 21.485ZM13.2178 23.55L13.4365 23.45L12.6553 23.45L12.4365 23.55L13.2178 23.55Z" clip-rule="evenodd" fill="#6EA7ED" fill-opacity="0.000000" fill-rule="evenodd"/>
	</g>
	<g opacity="0.600000">
		<path id="形状" d="M7.99902 3.13812C7.99902 1.40497 9.40405 0 11.1372 0L15.3608 0C17.094 0 18.499 1.40497 18.499 3.13812L18.499 19.425L19.0271 19.425C19.4602 19.425 19.8115 19.7762 19.8115 20.2095L19.8115 20.2155C19.8115 20.6487 19.4602 21 19.0271 21L7.47095 21C7.03784 21 6.68652 20.6487 6.68652 20.2155L6.68652 20.2095C6.68652 19.7762 7.03784 19.425 7.47095 19.425L7.99902 19.425L7.99902 3.13812ZM11.1431 1.57501L15.355 1.57501C16.2214 1.57501 16.9241 2.27747 16.9241 3.14404L16.9241 7.35596L16.9177 7.49878C16.8455 8.2984 16.1733 8.92499 15.355 8.92499L11.1431 8.92499L11.0002 8.91858C10.2007 8.84644 9.57397 8.17438 9.57397 7.35596L9.57397 3.14404L9.58032 3.00122C9.65259 2.2016 10.3247 1.57501 11.1431 1.57501Z" clip-rule="evenodd" fill="#44D7B6" fill-opacity="0.000000" fill-rule="evenodd"/>
		<path id="形状" d="M7.99902 3.13812C7.99902 1.40497 9.40405 0 11.1372 0L15.3608 0C17.094 0 18.499 1.40497 18.499 3.13812L18.499 19.425L19.0271 19.425C19.4602 19.425 19.8115 19.7762 19.8115 20.2095L19.8115 20.2155C19.8115 20.6487 19.4602 21 19.0271 21L7.47095 21C7.03784 21 6.68652 20.6487 6.68652 20.2155L6.68652 20.2095C6.68652 19.7762 7.03784 19.425 7.47095 19.425L7.99902 19.425L7.99902 3.13812ZM11.1431 1.57501L15.355 1.57501C16.2214 1.57501 16.9241 2.27747 16.9241 3.14404L16.9241 7.35596L16.9177 7.49878C16.8455 8.2984 16.1733 8.92499 15.355 8.92499L11.1431 8.92499L11.0002 8.91858C10.2007 8.84644 9.57397 8.17438 9.57397 7.35596L9.57397 3.14404L9.58032 3.00122C9.65259 2.2016 10.3247 1.57501 11.1431 1.57501Z" clip-rule="evenodd" fill="url(#paint_linear_23_2347_0)" fill-opacity="1.000000" fill-rule="evenodd"/>
	</g>
	<g opacity="0.354204">
		<path id="路径" d="M21.5 1.2L21.54 1.24L23.81 3.15C24.25 3.52 24.51 4.05 24.53 4.63L24.53 4.7L24.53 16.65C24.53 17.91 23.51 18.94 22.25 18.94C21.02 18.94 20.01 17.95 19.97 16.71L19.97 16.65L19.97 9.19C19.97 8.4 19.35 7.76 18.57 7.73L18.52 7.73C18.08 7.73 17.73 7.37 17.73 6.94C17.73 6.5 18.08 6.15 18.52 6.15C20.16 6.15 21.5 7.47 21.54 9.11L21.54 9.19L21.54 16.65C21.54 17.04 21.86 17.36 22.25 17.36C22.63 17.36 22.94 17.06 22.96 16.69L22.96 16.65L22.96 4.95L20.82 4.96C20.61 4.96 20.45 4.79 20.45 4.59C20.45 4.49 20.49 4.39 20.56 4.32L21.57 3.32L20.54 2.44C20.2 2.16 20.16 1.67 20.44 1.33C20.71 1.01 21.17 0.96 21.5 1.2Z" fill="#44D7B6" fill-opacity="1.000000" fill-rule="evenodd"/>
		<path id="路径" d="M21.5 1.2L21.54 1.24L23.81 3.15C24.25 3.52 24.51 4.05 24.53 4.63L24.53 4.7L24.53 16.65C24.53 17.91 23.51 18.94 22.25 18.94C21.02 18.94 20.01 17.95 19.97 16.71L19.97 16.65L19.97 9.19C19.97 8.4 19.35 7.76 18.57 7.73L18.52 7.73C18.08 7.73 17.73 7.37 17.73 6.94C17.73 6.5 18.08 6.15 18.52 6.15C20.16 6.15 21.5 7.47 21.54 9.11L21.54 9.19L21.54 16.65C21.54 17.04 21.86 17.36 22.25 17.36C22.63 17.36 22.94 17.06 22.96 16.69L22.96 16.65L22.96 4.95L20.82 4.96C20.61 4.96 20.45 4.79 20.45 4.59C20.45 4.49 20.49 4.39 20.56 4.32L21.57 3.32L20.54 2.44C20.2 2.16 20.16 1.67 20.44 1.33C20.71 1.01 21.17 0.96 21.5 1.2Z" fill="url(#paint_linear_23_2350_0)" fill-opacity="0" fill-rule="evenodd"/>
	</g>
</svg>
