<svg width="32.873047" height="28.026062" viewBox="0 0 32.873 28.0261" fill="none" xmlns="http://www.w3.org/2000/svg" xmlns:xlink="http://www.w3.org/1999/xlink">
	<desc>
			Created with Pixso.
	</desc>
	<defs>
		<filter id="filter_23_2352_dd" x="0.000000" y="14.102905" width="32.873047" height="13.923157" filterUnits="userSpaceOnUse" color-interpolation-filters="sRGB">
			<feFlood flood-opacity="0" result="BackgroundImageFix"/>
			<feBlend mode="normal" in="SourceGraphic" in2="BackgroundImageFix" result="shape"/>
			<feGaussianBlur stdDeviation="1.81219" result="effect_layerBlur_1"/>
		</filter>
		<filter id="filter_23_2357_dd" x="6.999512" y="0.000000" width="16.901367" height="19.154907" filterUnits="userSpaceOnUse" color-interpolation-filters="sRGB">
			<feFlood flood-opacity="0" result="BackgroundImageFix"/>
			<feGaussianBlur in="BackgroundImage" stdDeviation="11.7792"/>
			<feComposite in2="SourceAlpha" operator="in" result="effect_backgroundBlur_1"/>
			<feBlend mode="normal" in="SourceGraphic" in2="effect_backgroundBlur_1" result="shape"/>
		</filter>
		<filter id="filter_23_2358_dd" x="6.999512" y="0.000000" width="16.901367" height="19.154907" filterUnits="userSpaceOnUse" color-interpolation-filters="sRGB">
			<feFlood flood-opacity="0" result="BackgroundImageFix"/>
			<feGaussianBlur in="BackgroundImage" stdDeviation="11.7792"/>
			<feComposite in2="SourceAlpha" operator="in" result="effect_backgroundBlur_1"/>
			<feBlend mode="normal" in="SourceGraphic" in2="effect_backgroundBlur_1" result="shape"/>
		</filter>
		<filter id="filter_23_2359_dd" x="10.601318" y="3.518250" width="9.697510" height="1.700012" filterUnits="userSpaceOnUse" color-interpolation-filters="sRGB">
			<feFlood flood-opacity="0" result="BackgroundImageFix"/>
			<feGaussianBlur in="BackgroundImage" stdDeviation="11.7792"/>
			<feComposite in2="SourceAlpha" operator="in" result="effect_backgroundBlur_1"/>
			<feBlend mode="normal" in="SourceGraphic" in2="effect_backgroundBlur_1" result="shape"/>
		</filter>
		<linearGradient x1="27.436523" y1="20.526505" x2="5.436523" y2="20.526505" id="paint_linear_23_2352_0" gradientUnits="userSpaceOnUse">
			<stop stop-color="#0A59F7"/>
			<stop offset="1.000000" stop-color="#0A59F7"/>
		</linearGradient>
		<linearGradient x1="16.436527" y1="20.734297" x2="16.436527" y2="22.589478" id="paint_linear_23_2352_1" gradientUnits="userSpaceOnUse">
			<stop stop-color="#FFFFFF" stop-opacity="0.000000"/>
			<stop offset="1.000000" stop-color="#FFFFFF" stop-opacity="0.458824"/>
		</linearGradient>
		<linearGradient x1="23.900919" y1="6.198788" x2="6.999510" y2="6.198788" id="paint_linear_23_2357_0" gradientUnits="userSpaceOnUse">
			<stop stop-color="#0A59F7"/>
			<stop offset="1.000000" stop-color="#0A59F7"/>
		</linearGradient>
		<linearGradient x1="15.450212" y1="7.503790" x2="11.487093" y2="19.154930" id="paint_linear_23_2357_1" gradientUnits="userSpaceOnUse">
			<stop stop-color="#FFFFFF" stop-opacity="0.000000"/>
			<stop offset="1.000000" stop-color="#FFFFFF" stop-opacity="0.458824"/>
		</linearGradient>
		<linearGradient x1="26.629456" y1="11.296997" x2="13.638672" y2="11.296997" id="paint_linear_23_2360_0" gradientUnits="userSpaceOnUse">
			<stop stop-color="#2F6BD6"/>
			<stop offset="0.470277" stop-color="#76A0F9"/>
			<stop offset="1.000000" stop-color="#3370E5"/>
		</linearGradient>
		<linearGradient x1="20.134066" y1="12.182671" x2="20.134066" y2="20.090027" id="paint_linear_23_2360_1" gradientUnits="userSpaceOnUse">
			<stop stop-color="#FFFFFF" stop-opacity="0.000000"/>
			<stop offset="1.000000" stop-color="#FFFFFF" stop-opacity="0.458824"/>
		</linearGradient>
	</defs>
	<g opacity="0.643511" filter="url(#filter_23_2352_dd)">
		<path id="形状备份 2" d="M23.1292 19.5745C22.6211 19.5524 21.8701 19.5395 21.0745 19.5395L11.7573 19.5395L11.5713 19.5397C10.769 19.5417 10.03 19.5569 9.56299 19.5811C9.14673 19.6027 8.77124 19.6221 8.43652 19.6395L23.5896 19.6395L24.6096 19.8801L8.11182 19.8803C6.69727 20.2268 5.98975 20.4016 5.98975 20.4044C4.74487 20.6665 5.98975 20.8055 5.98975 20.8055C5.98975 20.8055 7.73975 21.1228 9.72632 21.4827L10.1011 21.5506C10.2896 21.5847 10.4792 21.6191 10.6689 21.6534L11.1523 21.741C13.3201 22.1335 15.3479 22.5002 15.3481 22.4986C16.3989 22.6885 17.4688 22.5257 17.6162 22.5015L17.6335 22.4986C17.6335 22.4986 19.6785 22.1317 21.8643 21.7389L22.3516 21.6513L22.7339 21.5826C24.959 21.1826 27.0698 20.8024 27.0698 20.7997C27.9897 20.6124 26.8892 20.4177 26.8892 20.4177L23.5898 19.6395L24.4365 19.6395L23.2419 19.5797L23.1292 19.5745ZM16.2178 21.6395L16.4365 21.5395L15.6553 21.5395L15.4365 21.6395L16.2178 21.6395Z" clip-rule="evenodd" fill="url(#paint_linear_23_2352_0)" fill-opacity="1.000000" fill-rule="evenodd"/>
		<path id="形状备份 2" d="M23.1292 19.5745C22.6211 19.5524 21.8701 19.5395 21.0745 19.5395L11.7573 19.5395L11.5713 19.5397C10.769 19.5417 10.03 19.5569 9.56299 19.5811C9.14673 19.6027 8.77124 19.6221 8.43652 19.6395L23.5896 19.6395L24.6096 19.8801L8.11182 19.8803C6.69727 20.2268 5.98975 20.4016 5.98975 20.4044C4.74487 20.6665 5.98975 20.8055 5.98975 20.8055C5.98975 20.8055 7.73975 21.1228 9.72632 21.4827L10.1011 21.5506C10.2896 21.5847 10.4792 21.6191 10.6689 21.6534L11.1523 21.741C13.3201 22.1335 15.3479 22.5002 15.3481 22.4986C16.3989 22.6885 17.4688 22.5257 17.6162 22.5015L17.6335 22.4986C17.6335 22.4986 19.6785 22.1317 21.8643 21.7389L22.3516 21.6513L22.7339 21.5826C24.959 21.1826 27.0698 20.8024 27.0698 20.7997C27.9897 20.6124 26.8892 20.4177 26.8892 20.4177L23.5898 19.6395L24.4365 19.6395L23.2419 19.5797L23.1292 19.5745ZM16.2178 21.6395L16.4365 21.5395L15.6553 21.5395L15.4365 21.6395L16.2178 21.6395Z" clip-rule="evenodd" fill="url(#paint_linear_23_2352_1)" fill-opacity="0.000000" fill-rule="evenodd"/>
		<path id="形状备份 2" d="M23.1292 19.5745C22.6211 19.5524 21.8701 19.5395 21.0745 19.5395L11.7573 19.5395L11.5713 19.5397C10.769 19.5417 10.03 19.5569 9.56299 19.5811C9.14673 19.6027 8.77124 19.6221 8.43652 19.6395L23.5896 19.6395L24.6096 19.8801L8.11182 19.8803C6.69727 20.2268 5.98975 20.4016 5.98975 20.4044C4.74487 20.6665 5.98975 20.8055 5.98975 20.8055C5.98975 20.8055 7.73975 21.1228 9.72632 21.4827L10.1011 21.5506C10.2896 21.5847 10.4792 21.6191 10.6689 21.6534L11.1523 21.741C13.3201 22.1335 15.3479 22.5002 15.3481 22.4986C16.3989 22.6885 17.4688 22.5257 17.6162 22.5015L17.6335 22.4986C17.6335 22.4986 19.6785 22.1317 21.8643 21.7389L22.3516 21.6513L22.7339 21.5826C24.959 21.1826 27.0698 20.8024 27.0698 20.7997C27.9897 20.6124 26.8892 20.4177 26.8892 20.4177L23.5898 19.6395L24.4365 19.6395L23.2419 19.5797L23.1292 19.5745ZM16.2178 21.6395L16.4365 21.5395L15.6553 21.5395L15.4365 21.6395L16.2178 21.6395Z" clip-rule="evenodd" fill="#6EA7ED" fill-opacity="0.000000" fill-rule="evenodd"/>
	</g>
	<g opacity="0.603559" filter="url(#filter_23_2357_dd)">
		<path id="形状" d="M23.9009 3.38031C23.9009 1.51343 22.3875 0 20.5208 0L10.3799 0C8.51294 0 6.99951 1.51343 6.99951 3.38031L6.99951 15.7747C6.99951 17.6415 8.51294 19.1549 10.3799 19.1549L20.5208 19.1549C22.3875 19.1549 23.9009 17.6415 23.9009 15.7747L23.9009 3.38031ZM11.4514 3.51825L19.449 3.51825C19.9185 3.51825 20.2991 3.8988 20.2991 4.36829C20.2991 4.83771 19.9185 5.21826 19.449 5.21826L11.4514 5.21826C10.9819 5.21826 10.6016 4.83771 10.6016 4.36829C10.6016 3.8988 10.9819 3.51825 11.4514 3.51825Z" clip-rule="evenodd" fill="url(#paint_linear_23_2357_0)" fill-opacity="1.000000" fill-rule="evenodd"/>
		<path id="形状" d="M23.9009 3.38031C23.9009 1.51343 22.3875 0 20.5208 0L10.3799 0C8.51294 0 6.99951 1.51343 6.99951 3.38031L6.99951 15.7747C6.99951 17.6415 8.51294 19.1549 10.3799 19.1549L20.5208 19.1549C22.3875 19.1549 23.9009 17.6415 23.9009 15.7747L23.9009 3.38031ZM11.4514 3.51825L19.449 3.51825C19.9185 3.51825 20.2991 3.8988 20.2991 4.36829C20.2991 4.83771 19.9185 5.21826 19.449 5.21826L11.4514 5.21826C10.9819 5.21826 10.6016 4.83771 10.6016 4.36829C10.6016 3.8988 10.9819 3.51825 11.4514 3.51825Z" clip-rule="evenodd" fill="url(#paint_linear_23_2357_1)" fill-opacity="1.000000" fill-rule="evenodd"/>
		<path id="形状" d="M23.9009 3.38031C23.9009 1.51343 22.3875 0 20.5208 0L10.3799 0C8.51294 0 6.99951 1.51343 6.99951 3.38031L6.99951 15.7747C6.99951 17.6415 8.51294 19.1549 10.3799 19.1549L20.5208 19.1549C22.3875 19.1549 23.9009 17.6415 23.9009 15.7747L23.9009 3.38031ZM11.4514 3.51825L19.449 3.51825C19.9185 3.51825 20.2991 3.8988 20.2991 4.36829C20.2991 4.83771 19.9185 5.21826 19.449 5.21826L11.4514 5.21826C10.9819 5.21826 10.6016 4.83771 10.6016 4.36829C10.6016 3.8988 10.9819 3.51825 11.4514 3.51825Z" clip-rule="evenodd" fill="#6EA7ED" fill-opacity="0.000000" fill-rule="evenodd"/>
	</g>
	<path id="形状" d="M19.7883 7.09003C23.1848 7.09003 25.938 9.84332 25.938 13.2397C25.938 14.5789 25.51 15.8182 24.7832 16.8281L26.3362 18.3801C26.7273 18.7712 26.7273 19.4055 26.3362 19.7966C25.9805 20.1523 25.4241 20.1846 25.032 19.8936L24.9194 19.7966L23.3647 18.243C22.3572 18.9647 21.1223 19.3893 19.7883 19.3893C16.3921 19.3893 13.6387 16.636 13.6387 13.2397C13.6387 9.84332 16.3921 7.09003 19.7883 7.09003ZM15.6733 13.2397C15.6733 10.967 17.5156 9.12463 19.7883 9.12463C22.061 9.12463 23.9033 10.967 23.9033 13.2397C23.9033 15.5124 22.061 17.3547 19.7883 17.3547C17.5156 17.3547 15.6733 15.5124 15.6733 13.2397Z" clip-rule="evenodd" fill="url(#paint_linear_23_2360_0)" fill-opacity="0.000000" fill-rule="evenodd"/>
	<path id="形状" d="M19.7883 7.09003C23.1848 7.09003 25.938 9.84332 25.938 13.2397C25.938 14.5789 25.51 15.8182 24.7832 16.8281L26.3362 18.3801C26.7273 18.7712 26.7273 19.4055 26.3362 19.7966C25.9805 20.1523 25.4241 20.1846 25.032 19.8936L24.9194 19.7966L23.3647 18.243C22.3572 18.9647 21.1223 19.3893 19.7883 19.3893C16.3921 19.3893 13.6387 16.636 13.6387 13.2397C13.6387 9.84332 16.3921 7.09003 19.7883 7.09003ZM15.6733 13.2397C15.6733 10.967 17.5156 9.12463 19.7883 9.12463C22.061 9.12463 23.9033 10.967 23.9033 13.2397C23.9033 15.5124 22.061 17.3547 19.7883 17.3547C17.5156 17.3547 15.6733 15.5124 15.6733 13.2397Z" clip-rule="evenodd" fill="url(#paint_linear_23_2360_1)" fill-opacity="0.000000" fill-rule="evenodd"/>
	<path id="形状" d="M19.7883 7.09003C23.1848 7.09003 25.938 9.84332 25.938 13.2397C25.938 14.5789 25.51 15.8182 24.7832 16.8281L26.3362 18.3801C26.7273 18.7712 26.7273 19.4055 26.3362 19.7966C25.9805 20.1523 25.4241 20.1846 25.032 19.8936L24.9194 19.7966L23.3647 18.243C22.3572 18.9647 21.1223 19.3893 19.7883 19.3893C16.3921 19.3893 13.6387 16.636 13.6387 13.2397C13.6387 9.84332 16.3921 7.09003 19.7883 7.09003ZM15.6733 13.2397C15.6733 10.967 17.5156 9.12463 19.7883 9.12463C22.061 9.12463 23.9033 10.967 23.9033 13.2397C23.9033 15.5124 22.061 17.3547 19.7883 17.3547C17.5156 17.3547 15.6733 15.5124 15.6733 13.2397Z" clip-rule="evenodd" fill="#B9D0FF" fill-opacity="1.000000" fill-rule="evenodd"/>
</svg>
