<svg width="32.000000" height="32.000000" viewBox="0 0 32 32" fill="none" xmlns="http://www.w3.org/2000/svg" xmlns:xlink="http://www.w3.org/1999/xlink">
	<desc>
			Created with Pixso.
	</desc>
	<defs/>
	<rect id="矩形" rx="10.000000" width="32.000000" height="32.000000" fill="#0A59F7" fill-opacity="1.000000"/>
	<rect id="矩形" x="0.500000" y="0.500000" rx="10.000000" width="31.000000" height="31.000000" stroke="#979797" stroke-opacity="0" stroke-width="1.000000"/>
	<path id="形状" d="M23.96 14.0466C25.0454 13.7087 25.8333 12.6964 25.8333 11.5C25.8333 10.2576 24.9836 9.21362 23.8337 8.91748L23.8333 6.83325C23.8333 6.46509 23.5347 6.16663 23.1665 6.16663C22.7983 6.16663 22.5 6.46509 22.5 6.83325L22.4998 8.91736L22.3848 8.94971C21.2935 9.28381 20.5 10.2992 20.5 11.5C20.5 12.7424 21.3496 13.7865 22.4998 14.0825L22.5 25.0555C22.5 25.4237 22.7983 25.7222 23.1665 25.7222C23.5347 25.7222 23.8333 25.4237 23.8333 25.0555L23.8337 14.0825L23.96 14.0466ZM22.4998 14.0825L22.5354 14.0914C22.5234 14.0886 22.5115 14.0856 22.4998 14.0825ZM23.8337 8.91748L23.8103 8.9115C23.8181 8.91345 23.8259 8.91541 23.8337 8.91748ZM23.1665 10.1666C23.9031 10.1666 24.5 10.7635 24.5 11.5C24.5 12.2363 23.9031 12.8333 23.1665 12.8333C22.4302 12.8333 21.8333 12.2363 21.8333 11.5C21.8333 10.7635 22.4302 10.1666 23.1665 10.1666ZM18.6111 20.3888C18.6111 21.5402 17.8813 22.5211 16.8594 22.8944L16.7222 22.9403L16.7222 25.0555C16.7222 25.4237 16.4236 25.7222 16.0554 25.7222C15.6873 25.7222 15.3889 25.4237 15.3889 25.0555L15.3877 22.9973C15.4053 23.0011 15.4229 23.0046 15.4404 23.0079L15.3877 22.9973C14.1821 22.7413 13.2776 21.6708 13.2776 20.3888C13.2776 19.1426 14.1326 18.0959 15.2881 17.8036L15.3877 17.7804L15.3889 6.83325C15.3889 6.46509 15.6873 6.16663 16.0554 6.16663C16.4236 6.16663 16.7222 6.46509 16.7222 6.83325L16.7222 17.8374C17.8154 18.1703 18.6111 19.1866 18.6111 20.3888ZM15.9443 19.0555C16.6807 19.0555 17.2776 19.6525 17.2776 20.3888C17.2776 21.1252 16.6807 21.7222 15.9443 21.7222C15.208 21.7222 14.6111 21.1252 14.6111 20.3888C14.6111 19.6525 15.208 19.0555 15.9443 19.0555ZM11.6111 11.5C11.6111 12.6964 10.823 13.7087 9.73779 14.0466L9.61157 14.0825L9.61108 25.0555C9.61108 25.4237 9.3125 25.7222 8.94434 25.7222C8.57617 25.7222 8.27759 25.4237 8.27759 25.0555L8.27759 14.0825C8.28931 14.0856 8.30127 14.0886 8.31323 14.0914L8.27759 14.0825C7.12744 13.7865 6.27759 12.7424 6.27759 11.5C6.27759 10.2992 7.07129 9.28381 8.1626 8.94971L8.27759 8.91736L8.27759 6.83325C8.27759 6.46509 8.57617 6.16663 8.94434 6.16663C9.3125 6.16663 9.61108 6.46509 9.61108 6.83325L9.61157 8.91748C10.7615 9.21362 11.6111 10.2576 11.6111 11.5ZM10.2776 11.5C10.2776 10.7635 9.68066 10.1666 8.94434 10.1666C8.20801 10.1666 7.61108 10.7635 7.61108 11.5C7.61108 12.2363 8.20801 12.8333 8.94434 12.8333C9.68066 12.8333 10.2776 12.2363 10.2776 11.5Z" clip-rule="evenodd" fill="#FFFFFF" fill-opacity="1.000000" fill-rule="evenodd"/>
</svg>
