<svg width="12.000000" height="12.000000" viewBox="0 0 12 12" fill="none" xmlns="http://www.w3.org/2000/svg" xmlns:xlink="http://www.w3.org/1999/xlink">
	<desc>
			Created with Pixso.
	</desc>
	<defs/>
	<path id="path-1" d="M1.86108 0.0375977C1.50513 0.119141 1.16406 0.351074 0.825684 0.719238L0.793213 0.755127C0.134033 1.41406 -0.139893 2.36426 0.0686035 3.27173C0.45166 4.9209 1.70654 6.88843 3.39893 8.5979C5.11157 10.2935 7.0791 11.5483 8.72729 11.9312L8.7832 11.9436C9.65942 12.1255 10.5679 11.8618 11.2117 11.2395L11.238 11.2131C11.6472 10.8474 11.8982 10.4788 11.9722 10.0925C12.0823 9.51782 11.8596 8.927 11.4019 8.55859L10.1746 7.56372C9.61841 7.07007 8.78247 7.08057 8.24097 7.58472L8.20972 7.61475L8.19482 7.63013L7.62769 8.2312C7.54761 8.31128 7.4104 8.3269 7.3042 8.26074C6.7981 7.94604 6.0791 7.33228 5.38232 6.62329L5.24976 6.49146C4.59229 5.83179 4.03442 5.17041 3.73999 4.69678C3.6731 4.5896 3.68896 4.45239 3.77783 4.36377L4.37012 3.80542L4.38525 3.79028L4.40967 3.76489C4.90991 3.22754 4.92944 2.4126 4.4646 1.85815L4.39722 1.77856L3.7146 0.937256C3.62036 0.820068 3.52686 0.704102 3.44141 0.598145C3.07324 0.140381 2.48242 -0.0822754 1.90747 0.027832L1.86108 0.0375977ZM11.238 11.2131C11.2361 11.2151 11.2341 11.2168 11.2319 11.2185L11.2419 11.2095L11.238 11.2131ZM0.793213 0.755127C0.795898 0.752441 0.79834 0.75 0.800781 0.747559L0.790527 0.758057L0.793213 0.755127ZM10.6277 10.54C10.9048 10.2935 11.0491 10.082 11.0798 9.92163C11.126 9.67993 11.0303 9.42603 10.8323 9.2666C10.3933 8.91333 9.86938 8.4895 9.65918 8.31665L9.54761 8.22314C9.34399 8.06128 9.05225 8.07104 8.86597 8.24438L8.8479 8.26172L8.27979 8.86377C7.90137 9.24341 7.31689 9.3186 6.85718 9.052L6.82373 9.03174C6.28442 8.69653 5.57593 8.09961 4.88306 7.40967L4.73999 7.26562C3.98389 6.52271 3.32666 5.75293 2.96875 5.17725C2.67798 4.71167 2.74756 4.10791 3.14526 3.71143L3.73853 3.15186L3.75024 3.13989C3.92871 2.948 3.93872 2.65601 3.77808 2.45386L3.59131 2.22827L2.7334 1.16772C2.57422 0.969727 2.32007 0.874023 2.07837 0.920166C1.91797 0.950928 1.70679 1.09521 1.46021 1.37231L1.40356 1.43066C0.98877 1.86694 0.819336 2.4812 0.953857 3.06714C1.29346 4.52832 2.46069 6.35864 4.04126 7.95557C5.64136 9.53931 7.47168 10.7068 8.93188 11.0459C9.53613 11.1848 10.1692 11.001 10.6074 10.5593L10.6277 10.54Z" clip-rule="evenodd" fill="#0A59F7" fill-opacity="1.000000" fill-rule="evenodd"/>
</svg>
