<svg width="12.000000" height="11.142822" viewBox="0 0 12 11.1428" fill="none" xmlns="http://www.w3.org/2000/svg" xmlns:xlink="http://www.w3.org/1999/xlink">
	<desc>
			Created with Pixso.
	</desc>
	<defs/>
	<path id="uxs-a" d="M1.91992 1.91992L1.91992 0.47998C1.91992 0.214844 2.13477 0 2.3999 0C2.66504 0 2.87988 0.214844 2.87988 0.47998L2.87988 1.91992L4.32007 1.91992C4.58521 1.91992 4.80005 2.13477 4.80005 2.3999C4.80005 2.66504 4.58521 2.87988 4.32007 2.87988L2.87988 2.87988L2.87988 4.32007C2.87988 4.58496 2.66504 4.80005 2.3999 4.80005C2.13477 4.80005 1.91992 4.58496 1.91992 4.32007L1.91992 2.87988L0.47998 2.87988C0.214844 2.87988 0 2.66504 0 2.3999C0 2.13477 0.214844 1.91992 0.47998 1.91992L1.91992 1.91992ZM6.3999 2.3999C6.3999 2.66504 6.61499 2.87988 6.87988 2.87988L10.72 2.87988C10.9851 2.87988 11.2 2.66504 11.2 2.3999C11.2 2.13477 10.9851 1.91992 10.72 1.91992L6.87988 1.91992C6.61499 1.91992 6.3999 2.13477 6.3999 2.3999ZM3.64453 6.71655L2.3999 7.96118L1.15552 6.71655C0.968018 6.52905 0.664062 6.52905 0.476562 6.71655C0.289307 6.90405 0.289307 7.20801 0.476562 7.39526L1.72119 8.63989L0.476562 9.88452C0.289307 10.0718 0.289307 10.3757 0.476562 10.5635C0.664062 10.7507 0.968018 10.7507 1.15552 10.5635L2.3999 9.3186L3.64453 10.5635C3.83203 10.7507 4.13574 10.7507 4.32324 10.5635C4.51074 10.3757 4.51074 10.0718 4.32324 9.88452L3.07886 8.63989L4.32324 7.39526C4.51074 7.20801 4.51074 6.90405 4.32324 6.71655C4.13574 6.52905 3.83203 6.52905 3.64453 6.71655Z" clip-rule="evenodd" fill="#0A59F7" fill-opacity="1.000000" fill-rule="evenodd"/>
	<path id="形状" d="M10.7202 4.74292C11.427 4.74292 12 5.31592 12 6.02295L12 9.86304C12 10.5698 11.427 11.1428 10.7202 11.1428L6.88013 11.1428C6.1731 11.1428 5.6001 10.5698 5.6001 9.86304L5.6001 6.02295C5.6001 5.31592 6.1731 4.74292 6.88013 4.74292L10.7202 4.74292ZM7.52002 6.66284L10.0801 6.66284C10.2568 6.66284 10.4001 6.80615 10.4001 6.98291C10.4001 7.15967 10.2568 7.30298 10.0801 7.30298L7.52002 7.30298C7.34351 7.30298 7.2002 7.15967 7.2002 6.98291C7.2002 6.80615 7.34351 6.66284 7.52002 6.66284ZM10.0801 8.58301L7.52002 8.58301C7.34351 8.58301 7.2002 8.72607 7.2002 8.90283C7.2002 9.07959 7.34351 9.2229 7.52002 9.2229L10.0801 9.2229C10.2568 9.2229 10.4001 9.07959 10.4001 8.90283C10.4001 8.72607 10.2568 8.58301 10.0801 8.58301Z" clip-rule="evenodd" fill="#0A59F7" fill-opacity="1.000000" fill-rule="evenodd"/>
</svg>
