<svg width="18.000000" height="18.000000" viewBox="0 0 18 18" fill="none" xmlns="http://www.w3.org/2000/svg" xmlns:xlink="http://www.w3.org/1999/xlink">
	<desc>
			Created with Pixso.
	</desc>
	<defs/>
	<path id="路径" d="M0 0L18 0L18 18L0 18L0 0Z" fill="#3D89FF" fill-opacity="0" fill-rule="evenodd"/>
	<path id="形状" d="M16.0874 2.37512C16.7625 2.70996 17.0999 3.37964 17.0999 4.16089L17.0999 18L8.66235 17.8883L0.899902 17.7767L1.01245 7.28577C1.01245 6.72778 1.34985 6.05811 1.7998 5.83496L3.9375 4.6073C4.5 4.27246 5.1748 4.27246 5.7373 4.6073L7.3125 5.50012L7.3125 4.04919C7.3125 3.37964 7.76245 2.70996 8.4375 2.26355L11.1375 0.70105C11.8125 0.366211 12.5999 0.366211 13.2749 0.70105L16.0874 2.37512ZM8.66235 16.3258L15.6375 16.4375L15.75 4.16089C15.75 3.93762 15.6375 3.71448 15.4124 3.60278L12.5999 1.92871C12.375 1.81714 12.1499 1.81714 11.9248 1.92871L9.1123 3.49121C8.88745 3.60278 8.7749 3.82605 8.7749 4.04919L8.66235 16.3258ZM2.3623 16.3258L2.47485 7.28577C2.47485 7.17419 2.5874 7.06262 2.5874 7.06262L4.72485 5.83496L5.0625 5.83496L7.19995 7.06262C7.3125 7.17419 7.3125 7.17419 7.3125 7.28577L7.19995 16.3258L2.3623 16.3258Z" clip-rule="evenodd" fill="#000000" fill-opacity="1.000000" fill-rule="evenodd"/>
	<path id="形状" d="M14.2 8.03271L14.2 6.55176L10.2 6.55176L10.2 8.03271L14.2 8.03271ZM14.2 11.0327L14.2 9.55176L10.2 9.55176L10.2 11.0327L14.2 11.0327ZM5.53101 9.77307L4.05005 9.77307L4.05005 14.85L5.53101 14.85L5.53101 9.77307ZM14.2 12.5518L14.2 14.0327L10.2 14.0327L10.2 12.5518L14.2 12.5518Z" clip-rule="evenodd" fill="#000000" fill-opacity="1.000000" fill-rule="evenodd"/>
</svg>
