<svg width="21.500000" height="17.250366" viewBox="0 0 21.5 17.2504" fill="none" xmlns="http://www.w3.org/2000/svg" xmlns:xlink="http://www.w3.org/1999/xlink">
	<desc>
			Created with Pixso.
	</desc>
	<defs/>
	<g opacity="0.900000">
		<path id="uxs-a-path" d="M3.01 6.73L3.31 5.9C3.65 5.03 4.09 4.14 4.63 3.57C5.34 2.81 7.71 2.48 10.75 2.5C13.78 2.48 16.15 2.81 16.86 3.57C17.4 4.14 17.83 5.01 18.17 5.88L18.48 6.71C18.52 6.83 18.55 6.94 18.59 7.05L19.63 7.42C19.75 7.46 19.86 7.54 19.93 7.65L20.62 8.59C20.7 8.7 20.74 8.83 20.74 8.97C20.75 10.31 20.24 15.86 20.12 16.16C19.97 16.53 18.12 16.62 17.24 16.29C17.01 16.21 16.9 15.91 16.9 15.4L16.9 15.17L4.47 15.17L4.47 15.4C4.47 15.91 4.36 16.21 4.13 16.29C3.24 16.62 1.4 16.53 1.25 16.16C1.11 15.81 0.74 10.01 0.75 8.97C0.75 8.83 0.79 8.7 0.87 8.59L1.56 7.65C1.63 7.54 1.74 7.46 1.86 7.42L2.9 7.05C2.93 6.94 2.97 6.84 3.01 6.73Z" fill="#FFFFFF" fill-opacity="0" fill-rule="evenodd"/>
		<path id="uxs-a-path" d="M3.31 5.9C3.65 5.03 4.09 4.14 4.63 3.57C5.34 2.81 7.71 2.48 10.75 2.5C13.78 2.48 16.15 2.81 16.86 3.57C17.4 4.14 17.83 5.01 18.17 5.88L18.48 6.71C18.52 6.83 18.55 6.94 18.59 7.05L19.63 7.42C19.75 7.46 19.86 7.54 19.93 7.65L20.62 8.59C20.7 8.7 20.74 8.83 20.74 8.97C20.75 10.31 20.24 15.86 20.12 16.16C19.97 16.53 18.12 16.62 17.24 16.29C17.01 16.21 16.9 15.91 16.9 15.4L16.9 15.17L4.47 15.17L4.47 15.4C4.47 15.91 4.36 16.21 4.13 16.29C3.24 16.62 1.4 16.53 1.25 16.16C1.11 15.81 0.74 10.01 0.75 8.97C0.75 8.83 0.79 8.7 0.87 8.59L1.56 7.65C1.63 7.54 1.74 7.46 1.86 7.42L2.9 7.05C2.93 6.94 2.97 6.84 3.01 6.73L3.31 5.9Z" stroke="#000000" stroke-opacity="1.000000" stroke-width="1.500000"/>
		<path id="¥" d="M12.45 4.62L10.66 7.7L8.77 4.62L7.01 4.62L9.47 8.52L7.87 8.52L7.87 9.65L9.85 9.65L9.85 10.39L7.87 10.39L7.87 11.51L9.85 11.51L9.85 13.4L11.37 13.4L11.37 11.51L13.41 11.51L13.41 10.39L11.37 10.39L11.37 9.65L13.41 9.65L13.41 8.52L11.75 8.52L14.09 4.62L12.45 4.62Z" fill="#000000" fill-opacity="0.901961" fill-rule="evenodd"/>
	</g>
</svg>
