<svg width="24.000000" height="24.000000" viewBox="0 0 24 24" fill="none" xmlns="http://www.w3.org/2000/svg" xmlns:xlink="http://www.w3.org/1999/xlink">
	<desc>
			Created with Pixso.
	</desc>
	<defs>
		<clipPath id="clip31_1617">
			<rect id="share" width="24.000000" height="24.000000" fill="white" fill-opacity="0"/>
		</clipPath>
	</defs>
	<g clip-path="url(#clip31_1617)">
		<g opacity="0.000000">
			<rect id="rect" width="24.000000" height="24.000000" fill="#000000" fill-opacity="1.000000"/>
		</g>
		<path id="path" d="M12 22.22C13.76 22.22 15.4 21.79 16.94 20.93C18.48 20.08 19.72 18.92 20.68 17.43C21.62 15.96 22.15 14.32 22.25 12.53C22.26 12.32 22.2 12.14 22.06 11.99C21.91 11.83 21.73 11.75 21.53 11.74C21.32 11.72 21.14 11.78 20.99 11.92C20.83 12.05 20.75 12.22 20.74 12.42C20.67 13.91 20.24 15.29 19.45 16.54C18.68 17.8 17.65 18.8 16.38 19.55C15.1 20.31 13.72 20.7 12.24 20.74C10.65 20.78 9.18 20.43 7.82 19.67C6.45 18.92 5.37 17.89 4.55 16.56C3.72 15.25 3.28 13.8 3.23 12.22C3.2 10.67 3.54 9.25 4.23 7.92C4.93 6.6 5.9 5.53 7.15 4.68C8.39 3.84 9.79 3.37 11.33 3.26C11.53 3.23 11.7 3.14 11.83 2.98C11.95 2.83 12.01 2.65 12 2.44C11.98 2.24 11.9 2.06 11.75 1.92C11.59 1.79 11.41 1.73 11.21 1.75C9.41 1.89 7.79 2.45 6.34 3.42C4.88 4.41 3.73 5.67 2.92 7.23C2.09 8.79 1.7 10.47 1.75 12.26C1.79 14.08 2.29 15.76 3.22 17.28C4.16 18.79 5.4 20 6.95 20.89C8.51 21.77 10.19 22.22 12 22.22Z" fill="#000000" fill-opacity="0.898039" fill-rule="nonzero"/>
		<path id="path" d="M15.37 1.97C15.17 1.9 14.98 1.92 14.81 2.02C14.62 2.11 14.51 2.26 14.45 2.47C14.38 2.67 14.39 2.87 14.5 3.05C14.59 3.22 14.73 3.34 14.92 3.41L18.71 4.56C16.51 5.23 14.83 6.23 13.68 7.57C12.55 8.91 11.81 10.13 11.48 11.24C11.15 12.35 10.99 13.14 10.99 13.61C10.99 13.81 11.06 13.99 11.2 14.15C11.33 14.3 11.5 14.38 11.71 14.38C11.91 14.38 12.09 14.3 12.25 14.16C12.4 14.01 12.48 13.84 12.48 13.66C12.48 13.26 12.63 12.56 12.93 11.58C13.24 10.59 13.92 9.53 14.99 8.39C16.04 7.24 17.61 6.4 19.67 5.88L18.42 9.98C18.36 10.17 18.38 10.36 18.48 10.55C18.57 10.73 18.71 10.85 18.9 10.92C19.09 10.96 19.28 10.94 19.48 10.86C19.67 10.77 19.81 10.62 19.86 10.42L21.6 4.68C21.66 4.47 21.64 4.27 21.55 4.09C21.45 3.91 21.31 3.78 21.11 3.72L15.37 1.97Z" fill="#000000" fill-opacity="0.898039" fill-rule="nonzero"/>
	</g>
</svg>
