<svg width="24.000000" height="24.000000" viewBox="0 0 24 24" fill="none" xmlns="http://www.w3.org/2000/svg" xmlns:xlink="http://www.w3.org/1999/xlink">
	<desc>
			Created with Pixso.
	</desc>
	<defs>
		<clipPath id="clip31_1660">
			<rect id="info_circle" width="24.000000" height="24.000000" fill="white" fill-opacity="0"/>
		</clipPath>
	</defs>
	<g clip-path="url(#clip31_1660)">
		<g opacity="0.000000">
			<rect id="rect" width="24.000000" height="24.000000" fill="#000000" fill-opacity="1.000000"/>
		</g>
		<path id="path" d="M10.75 7.02C10.75 7.36 10.87 7.66 11.11 7.9C11.35 8.15 11.64 8.27 12 8.27C12.35 8.27 12.64 8.15 12.88 7.9C13.12 7.66 13.25 7.36 13.25 7.02C13.25 6.67 13.12 6.37 12.88 6.12C12.64 5.88 12.35 5.75 12 5.75C11.64 5.75 11.35 5.88 11.11 6.12C10.87 6.37 10.75 6.67 10.75 7.02ZM10.99 17.2C10.99 17.48 11.09 17.71 11.29 17.91C11.49 18.11 11.72 18.21 12 18.21C12.27 18.21 12.51 18.11 12.71 17.91C12.9 17.71 13.01 17.48 13.01 17.2L13.01 10.45C13.01 10.19 12.9 9.96 12.71 9.76C12.51 9.57 12.27 9.47 12 9.47C11.72 9.47 11.49 9.57 11.29 9.76C11.09 9.96 10.99 10.19 10.99 10.45L10.99 17.2Z" fill="#000000" fill-opacity="0.600000" fill-rule="nonzero"/>
		<path id="path" d="M12 22.98C13.98 22.98 15.82 22.49 17.51 21.51C19.19 20.53 20.53 19.19 21.52 17.5C22.5 15.82 22.99 13.98 22.99 11.99C22.99 10.01 22.5 8.17 21.52 6.48C20.53 4.8 19.19 3.46 17.51 2.47C15.82 1.49 13.98 1 12 1C10.01 1 8.17 1.5 6.49 2.49C4.8 3.48 3.46 4.81 2.48 6.49C1.5 8.17 1.01 10.01 1.01 11.99C1.01 13.98 1.5 15.81 2.48 17.49C3.46 19.17 4.8 20.51 6.49 21.49C8.17 22.49 10.01 22.98 12 22.98ZM2.5 11.99C2.5 10.28 2.92 8.7 3.77 7.24C4.61 5.78 5.76 4.63 7.22 3.77C8.68 2.92 10.27 2.49 12 2.49C13.71 2.49 15.29 2.92 16.75 3.77C18.21 4.63 19.36 5.78 20.22 7.24C21.07 8.7 21.5 10.28 21.5 11.99C21.5 13.71 21.07 15.29 20.22 16.74C19.36 18.2 18.21 19.36 16.75 20.21C15.29 21.07 13.71 21.49 12 21.49C10.27 21.49 8.68 21.07 7.22 20.21C5.76 19.36 4.61 18.2 3.77 16.74C2.92 15.29 2.5 13.71 2.5 11.99Z" fill="#000000" fill-opacity="0.600000" fill-rule="nonzero"/>
	</g>
</svg>
