<svg width="13.757080" height="13.000000" viewBox="0 0 13.7571 13" fill="none" xmlns="http://www.w3.org/2000/svg" xmlns:xlink="http://www.w3.org/1999/xlink">
	<desc>
			Created with Pixso.
	</desc>
	<defs/>
	<path id="path-1" d="M10.1519 1C10.6233 1 11.0056 1.40564 11.0056 1.90613L11.0056 8.55115C11.0056 9.05151 10.6233 9.45728 10.1519 9.45728L3.60522 9.45728C3.13379 9.45728 2.75146 9.05151 2.75146 8.55115L2.75146 1.90613C2.75146 1.40564 3.13379 1 3.60522 1L10.1519 1ZM3.60522 1.90613L10.1519 1.90613L10.1519 8.55115L3.60522 8.55115L3.60522 1.90613ZM1.52905 7.04089L1.52832 8.10571C1.13672 8.39514 0.917236 8.7113 0.917236 9.02844C0.917236 9.85889 2.42236 10.6825 4.58521 11.0371L4.58569 10.2382C4.58569 10.1714 4.64038 10.1173 4.70801 10.1173C4.72852 10.1173 4.74878 10.1224 4.76685 10.1323L7.4082 11.5687C7.46729 11.6008 7.48901 11.6743 7.4563 11.7328C7.44385 11.7554 7.42432 11.7734 7.40039 11.7843L4.75928 12.9889C4.698 13.0168 4.62524 12.9904 4.59692 12.9298C4.5896 12.9139 4.58569 12.8966 4.58569 12.8792L4.58496 11.9581C1.92407 11.5566 0 10.4601 0 9.02844C0 8.24634 0.574219 7.56433 1.52905 7.04089ZM13.7571 9.02844C13.7571 8.24646 13.1831 7.56458 12.2288 7.04126L12.2292 8.1062C12.6206 8.39551 12.8398 8.71143 12.8398 9.02844C12.8398 9.7948 11.4709 10.6335 9.32715 11.0122C9.07788 11.0563 8.91187 11.2916 8.95654 11.538C9.00098 11.7843 9.23926 11.9482 9.48853 11.9043C12.0266 11.4559 13.7571 10.3958 13.7571 9.02844Z" clip-rule="evenodd" fill="#000000" fill-opacity="1.000000" fill-rule="evenodd"/>
</svg>
