<svg width="12.000000" height="12.000000" viewBox="0 0 12 12" fill="none" xmlns="http://www.w3.org/2000/svg" xmlns:xlink="http://www.w3.org/1999/xlink">
	<desc>
			Created with Pixso.
	</desc>
	<defs/>
	<path id="path-1" d="M1.23535 11.6864C1.67065 11.9192 2.08936 12 2.94971 12L9.05029 12L9.19336 11.9991C9.9585 11.9902 10.3542 11.9059 10.7646 11.6864C11.1609 11.4745 11.4744 11.1609 11.6863 10.7646C11.9192 10.3293 12 9.91064 12 9.05017L12 7.8335L10.3987 6.2323C10.0276 5.8667 9.7937 5.71191 9.48242 5.61755C9.18506 5.52747 8.8772 5.52747 8.57983 5.61755C8.27051 5.7113 8.03662 5.86511 7.66968 6.22607L5.97266 7.92273C5.79688 8.09827 5.51196 8.09827 5.33594 7.92261L5.26758 7.85425C4.91919 7.51099 4.6897 7.35254 4.40771 7.25769L4.35742 7.24158C4.05396 7.14954 3.74609 7.14954 3.44873 7.23962C3.1394 7.33337 2.90552 7.48718 2.53882 7.84814L0.912109 9.47461C0.90625 9.36658 0.902588 9.24487 0.900879 9.1062L0.900146 8.98523L0.899902 3.07666C0.899902 2.23718 0.955811 1.94849 1.11426 1.65222C1.2395 1.41797 1.41797 1.2395 1.65234 1.11414C1.92578 0.967773 2.19312 0.909058 2.8938 0.901001L3.01465 0.900146L9.04517 0.900391C9.79175 0.905884 10.0664 0.963623 10.3477 1.11414C10.582 1.2395 10.7605 1.41797 10.8857 1.65222C11.0442 1.94849 11.1001 2.23718 11.1001 3.07666L11.1001 6.08459L12 6.98523L12 3.07666C12 2.00684 11.8887 1.6189 11.6794 1.22778L11.6489 1.17249C11.4409 0.807617 11.1448 0.519775 10.7722 0.320557L10.7473 0.307373C10.3643 0.106689 9.97046 0 8.92334 0L3.07666 0C2.00684 0 1.6189 0.11145 1.22778 0.320557L1.17261 0.351074C0.807617 0.559204 0.519775 0.855347 0.320557 1.22778L0.307373 1.25281C0.106689 1.63574 0 2.02954 0 3.07666L0 8.92334C0 9.57751 0.041748 9.97668 0.121826 10.2776L0.101807 10.2985L0.219727 10.5712C0.247559 10.6354 0.278076 10.6982 0.313721 10.7646C0.525635 11.1609 0.839111 11.4745 1.23535 11.6864ZM4.80005 4.19995C4.80005 3.62012 4.32983 3.15002 3.75 3.15002C3.17017 3.15002 2.69995 3.62012 2.69995 4.19995C2.69995 4.77991 3.17017 5.25 3.75 5.25C4.32983 5.25 4.80005 4.77991 4.80005 4.19995ZM9.22119 6.47888C9.09424 6.44031 8.96802 6.44031 8.84082 6.47888C8.68018 6.52759 8.55835 6.60999 8.26147 6.90674L6.60889 8.55933C6.08179 9.08594 5.22729 9.08606 4.69971 8.55933L4.63354 8.49304C4.37671 8.23999 4.25464 8.15576 4.12744 8.11292L4.09033 8.10095C3.96313 8.06238 3.83691 8.06238 3.70972 8.10095C3.54907 8.14966 3.42725 8.23206 3.13037 8.52881L1.18848 10.4712C1.20239 10.4916 1.2168 10.5115 1.23169 10.5309L1.23169 10.533C1.25122 10.5568 1.27173 10.5817 1.29321 10.6057C1.29956 10.6139 1.3064 10.6215 1.31348 10.6289C1.33569 10.6527 1.35889 10.6757 1.38306 10.6978L1.36792 10.6825C1.45142 10.7614 1.54614 10.829 1.65234 10.8859C1.93359 11.0364 2.20825 11.0941 2.95483 11.0996L3.07666 11.1L8.92334 11.1C9.76294 11.1 10.0515 11.0443 10.3477 10.8859C10.582 10.7605 10.7605 10.582 10.8857 10.3478C11.0364 10.0663 11.0942 9.79175 11.0996 9.04517L11.1001 8.92334L11.1001 8.63037L11.0999 8.20618L9.76465 6.87097C9.52588 6.63586 9.40771 6.54797 9.27808 6.49817L9.24048 6.48499L9.22119 6.47888ZM1.33252 10.6477L1.36792 10.6825C1.35596 10.6711 1.34399 10.6595 1.33252 10.6477ZM1.33252 10.6477C1.31909 10.634 1.30591 10.62 1.29321 10.6057L1.31348 10.6289L1.33252 10.6477Z" clip-rule="evenodd" fill="#000000" fill-opacity="1.000000" fill-rule="evenodd"/>
</svg>
