<svg width="24.000000" height="24.000000" viewBox="0 0 24 24" fill="none" xmlns="http://www.w3.org/2000/svg" xmlns:xlink="http://www.w3.org/1999/xlink">
	<desc>
			Created with Pixso.
	</desc>
	<defs>
		<clipPath id="clip31_3113">
			<rect id="bag" width="24.000000" height="24.000000" fill="white" fill-opacity="0"/>
		</clipPath>
	</defs>
	<g clip-path="url(#clip31_3113)">
		<g opacity="0.000000">
			<rect id="rect" width="24.000000" height="24.000000" fill="#000000" fill-opacity="1.000000"/>
		</g>
		<path id="path" d="M19.01 3.5C19.42 3.5 19.77 3.64 20.06 3.94C20.35 4.22 20.5 4.57 20.5 4.98L20.5 19.01C20.5 19.41 20.35 19.75 20.06 20.04C19.77 20.35 19.42 20.5 19.01 20.5L4.98 20.5C4.59 20.5 4.24 20.35 3.94 20.04C3.64 19.75 3.5 19.41 3.5 19.01L3.5 4.98C3.5 4.57 3.64 4.22 3.93 3.94C4.22 3.64 4.57 3.5 4.98 3.5L19.01 3.5ZM4.98 1.98C4.44 1.98 3.94 2.12 3.48 2.39C3.03 2.67 2.67 3.03 2.39 3.48C2.12 3.95 1.98 4.45 1.98 4.98L1.98 19.01C1.98 19.54 2.12 20.04 2.39 20.51C2.67 20.96 3.03 21.32 3.48 21.6C3.94 21.87 4.44 22.01 4.98 22.01L19.01 22.01C19.54 22.01 20.04 21.87 20.51 21.6C20.96 21.32 21.32 20.96 21.6 20.51C21.87 20.04 22.01 19.54 22.01 19.01L22.01 4.98C22.01 4.45 21.87 3.95 21.6 3.48C21.32 3.03 20.96 2.67 20.51 2.39C20.04 2.12 19.54 1.98 19.01 1.98L4.98 1.98ZM12 10.49C11.32 10.49 10.7 10.32 10.12 9.97C9.55 9.64 9.09 9.19 8.76 8.62C8.42 8.03 8.26 7.4 8.26 6.71C8.26 6.52 8.18 6.35 8.04 6.2C7.89 6.05 7.71 5.97 7.51 5.97C7.3 5.97 7.12 6.05 6.96 6.2C6.81 6.35 6.73 6.52 6.73 6.71C6.73 7.67 6.97 8.56 7.44 9.37C7.92 10.17 8.56 10.81 9.36 11.29C10.17 11.76 11.05 12 12 12C12.94 12 13.82 11.76 14.62 11.29C15.43 10.81 16.07 10.17 16.54 9.37C17.02 8.56 17.26 7.67 17.26 6.71C17.26 6.52 17.18 6.35 17.04 6.2C16.89 6.05 16.71 5.97 16.51 5.97C16.3 5.97 16.12 6.05 15.97 6.2C15.81 6.35 15.74 6.52 15.74 6.71C15.74 7.4 15.57 8.03 15.24 8.62C14.9 9.19 14.45 9.64 13.86 9.97C13.29 10.32 12.67 10.49 12 10.49Z" fill="#000000" fill-opacity="0.901961" fill-rule="nonzero"/>
	</g>
</svg>
