<svg width="28.873047" height="30.151062" viewBox="0 0 28.873 30.1511" fill="none" xmlns="http://www.w3.org/2000/svg" xmlns:xlink="http://www.w3.org/1999/xlink">
	<desc>
			Created with Pixso.
	</desc>
	<defs>
		<filter id="filter_6_1062_dd" x="0.000000" y="16.227844" width="28.873047" height="13.923218" filterUnits="userSpaceOnUse" color-interpolation-filters="sRGB">
			<feFlood flood-opacity="0" result="BackgroundImageFix"/>
			<feBlend mode="normal" in="SourceGraphic" in2="BackgroundImageFix" result="shape"/>
			<feGaussianBlur stdDeviation="1.81219" result="effect_layerBlur_1"/>
		</filter>
		<filter id="filter_6_1070_dd" x="7.293701" y="5.857178" width="15.428467" height="15.428589" filterUnits="userSpaceOnUse" color-interpolation-filters="sRGB">
			<feFlood flood-opacity="0" result="BackgroundImageFix"/>
			<feGaussianBlur in="BackgroundImage" stdDeviation="0.906093"/>
			<feComposite in2="SourceAlpha" operator="in" result="effect_backgroundBlur_1"/>
			<feBlend mode="normal" in="SourceGraphic" in2="effect_backgroundBlur_1" result="shape"/>
		</filter>
		<filter id="filter_6_1071_dd" x="7.293701" y="5.857178" width="15.428467" height="15.428589" filterUnits="userSpaceOnUse" color-interpolation-filters="sRGB">
			<feFlood flood-opacity="0" result="BackgroundImageFix"/>
			<feGaussianBlur in="BackgroundImage" stdDeviation="11.7792"/>
			<feComposite in2="SourceAlpha" operator="in" result="effect_backgroundBlur_1"/>
			<feBlend mode="normal" in="SourceGraphic" in2="effect_backgroundBlur_1" result="shape"/>
		</filter>
		<filter id="filter_6_1072_dd" x="11.385254" y="9.876892" width="7.316895" height="7.005371" filterUnits="userSpaceOnUse" color-interpolation-filters="sRGB">
			<feFlood flood-opacity="0" result="BackgroundImageFix"/>
			<feGaussianBlur in="BackgroundImage" stdDeviation="11.7792"/>
			<feComposite in2="SourceAlpha" operator="in" result="effect_backgroundBlur_1"/>
			<feBlend mode="normal" in="SourceGraphic" in2="effect_backgroundBlur_1" result="shape"/>
		</filter>
		<filter id="filter_6_1073_dd" x="7.293701" y="5.857178" width="15.428467" height="15.428589" filterUnits="userSpaceOnUse" color-interpolation-filters="sRGB">
			<feFlood flood-opacity="0" result="BackgroundImageFix"/>
			<feGaussianBlur in="BackgroundImage" stdDeviation="11.7792"/>
			<feComposite in2="SourceAlpha" operator="in" result="effect_backgroundBlur_1"/>
			<feBlend mode="normal" in="SourceGraphic" in2="effect_backgroundBlur_1" result="shape"/>
		</filter>
		<filter id="filter_6_1074_dd" x="7.293701" y="5.857178" width="15.428467" height="15.428589" filterUnits="userSpaceOnUse" color-interpolation-filters="sRGB">
			<feFlood flood-opacity="0" result="BackgroundImageFix"/>
			<feGaussianBlur in="BackgroundImage" stdDeviation="11.7792"/>
			<feComposite in2="SourceAlpha" operator="in" result="effect_backgroundBlur_1"/>
			<feBlend mode="normal" in="SourceGraphic" in2="effect_backgroundBlur_1" result="shape"/>
		</filter>
		<filter id="filter_6_1075_dd" x="11.385254" y="9.876892" width="7.316895" height="7.005371" filterUnits="userSpaceOnUse" color-interpolation-filters="sRGB">
			<feFlood flood-opacity="0" result="BackgroundImageFix"/>
			<feGaussianBlur in="BackgroundImage" stdDeviation="11.7792"/>
			<feComposite in2="SourceAlpha" operator="in" result="effect_backgroundBlur_1"/>
			<feBlend mode="normal" in="SourceGraphic" in2="effect_backgroundBlur_1" result="shape"/>
		</filter>
		<linearGradient x1="23.436523" y1="22.651463" x2="5.436525" y2="22.651463" id="paint_linear_6_1062_0" gradientUnits="userSpaceOnUse">
			<stop stop-color="#0A59F7"/>
			<stop offset="1.000000" stop-color="#0A59F7"/>
		</linearGradient>
		<linearGradient x1="14.436523" y1="22.859261" x2="14.436523" y2="24.714478" id="paint_linear_6_1062_1" gradientUnits="userSpaceOnUse">
			<stop stop-color="#FFFFFF" stop-opacity="0.000000"/>
			<stop offset="1.000000" stop-color="#FFFFFF" stop-opacity="0.458824"/>
		</linearGradient>
		<linearGradient x1="13.954381" y1="3.559743" x2="5.811522" y2="3.559743" id="paint_linear_6_1068_0" gradientUnits="userSpaceOnUse">
			<stop stop-color="#2F6BD6"/>
			<stop offset="0.470277" stop-color="#76A0F9"/>
			<stop offset="1.000000" stop-color="#3370E5"/>
		</linearGradient>
		<linearGradient x1="9.882952" y1="4.309161" x2="9.882952" y2="11.000000" id="paint_linear_6_1068_1" gradientUnits="userSpaceOnUse">
			<stop stop-color="#FFFFFF" stop-opacity="0.000000"/>
			<stop offset="1.000000" stop-color="#FFFFFF" stop-opacity="0.458824"/>
		</linearGradient>
		<linearGradient x1="16.668661" y1="3.559744" x2="24.487549" y2="3.559744" id="paint_linear_6_1069_0" gradientUnits="userSpaceOnUse">
			<stop stop-color="#2F6BD6"/>
			<stop offset="0.470277" stop-color="#76A0F9"/>
			<stop offset="1.000000" stop-color="#3370E5"/>
		</linearGradient>
		<linearGradient x1="20.578104" y1="4.309161" x2="20.578104" y2="11.000000" id="paint_linear_6_1069_1" gradientUnits="userSpaceOnUse">
			<stop stop-color="#FFFFFF" stop-opacity="0.000000"/>
			<stop offset="1.000000" stop-color="#FFFFFF" stop-opacity="0.458824"/>
		</linearGradient>
		<linearGradient x1="22.722273" y1="10.850065" x2="7.293699" y2="10.850065" id="paint_linear_6_1070_0" gradientUnits="userSpaceOnUse">
			<stop stop-color="#2F6BD6"/>
			<stop offset="0.470277" stop-color="#76A0F9"/>
			<stop offset="1.000000" stop-color="#3370E5"/>
		</linearGradient>
		<linearGradient x1="15.007988" y1="11.901196" x2="15.007988" y2="21.285751" id="paint_linear_6_1070_1" gradientUnits="userSpaceOnUse">
			<stop stop-color="#FFFFFF" stop-opacity="0.000000"/>
			<stop offset="1.000000" stop-color="#FFFFFF" stop-opacity="0.458824"/>
		</linearGradient>
		<linearGradient x1="22.722273" y1="10.850065" x2="7.293699" y2="10.850065" id="paint_linear_6_1073_0" gradientUnits="userSpaceOnUse">
			<stop stop-color="#0A59F7"/>
			<stop offset="1.000000" stop-color="#0A59F7"/>
		</linearGradient>
		<linearGradient x1="15.007988" y1="11.901196" x2="15.007988" y2="21.285751" id="paint_linear_6_1073_1" gradientUnits="userSpaceOnUse">
			<stop stop-color="#FFFFFF" stop-opacity="0.000000"/>
			<stop offset="1.000000" stop-color="#FFFFFF" stop-opacity="0.458824"/>
		</linearGradient>
	</defs>
	<g opacity="0.643511" filter="url(#filter_6_1062_dd)">
		<path id="形状备份 2" d="M20.3743 21.6994C19.9617 21.6773 19.3513 21.6644 18.7048 21.6644L11.1348 21.6644L10.9834 21.6647C10.3318 21.6667 9.7312 21.6818 9.35181 21.706C9.01367 21.7276 8.7085 21.7471 8.43652 21.7644L20.2888 21.7644L21.1235 22.0051L7.62549 22.0053C6.46802 22.3518 5.88916 22.5266 5.88916 22.5294C4.87061 22.7915 5.88916 22.9305 5.88916 22.9305C5.88916 22.9305 7.32104 23.2478 8.94629 23.6077L9.25293 23.6756C9.40723 23.7097 9.5625 23.7441 9.71753 23.7784L10.113 23.866C11.8867 24.2585 13.5457 24.6252 13.5461 24.6236C14.4058 24.8135 15.281 24.6507 15.4019 24.6265L15.4158 24.6236C15.4158 24.6236 17.0889 24.2567 18.8774 23.8639L19.2761 23.7763L19.5889 23.7076C21.4094 23.3076 23.1365 22.9274 23.1365 22.9247C23.8892 22.7374 22.9885 22.5427 22.9885 22.5427L20.2888 21.7644L21.4365 21.7644L20.4661 21.7047L20.3743 21.6994ZM15.2178 23.7645L15.4365 23.6645L14.6553 23.6645L14.4365 23.7645L15.2178 23.7645Z" clip-rule="evenodd" fill="url(#paint_linear_6_1062_0)" fill-opacity="1.000000" fill-rule="evenodd"/>
		<path id="形状备份 2" d="M20.3743 21.6994C19.9617 21.6773 19.3513 21.6644 18.7048 21.6644L11.1348 21.6644L10.9834 21.6647C10.3318 21.6667 9.7312 21.6818 9.35181 21.706C9.01367 21.7276 8.7085 21.7471 8.43652 21.7644L20.2888 21.7644L21.1235 22.0051L7.62549 22.0053C6.46802 22.3518 5.88916 22.5266 5.88916 22.5294C4.87061 22.7915 5.88916 22.9305 5.88916 22.9305C5.88916 22.9305 7.32104 23.2478 8.94629 23.6077L9.25293 23.6756C9.40723 23.7097 9.5625 23.7441 9.71753 23.7784L10.113 23.866C11.8867 24.2585 13.5457 24.6252 13.5461 24.6236C14.4058 24.8135 15.281 24.6507 15.4019 24.6265L15.4158 24.6236C15.4158 24.6236 17.0889 24.2567 18.8774 23.8639L19.2761 23.7763L19.5889 23.7076C21.4094 23.3076 23.1365 22.9274 23.1365 22.9247C23.8892 22.7374 22.9885 22.5427 22.9885 22.5427L20.2888 21.7644L21.4365 21.7644L20.4661 21.7047L20.3743 21.6994ZM15.2178 23.7645L15.4365 23.6645L14.6553 23.6645L14.4365 23.7645L15.2178 23.7645Z" clip-rule="evenodd" fill="url(#paint_linear_6_1062_1)" fill-opacity="0.000000" fill-rule="evenodd"/>
		<path id="形状备份 2" d="M20.3743 21.6994C19.9617 21.6773 19.3513 21.6644 18.7048 21.6644L11.1348 21.6644L10.9834 21.6647C10.3318 21.6667 9.7312 21.6818 9.35181 21.706C9.01367 21.7276 8.7085 21.7471 8.43652 21.7644L20.2888 21.7644L21.1235 22.0051L7.62549 22.0053C6.46802 22.3518 5.88916 22.5266 5.88916 22.5294C4.87061 22.7915 5.88916 22.9305 5.88916 22.9305C5.88916 22.9305 7.32104 23.2478 8.94629 23.6077L9.25293 23.6756C9.40723 23.7097 9.5625 23.7441 9.71753 23.7784L10.113 23.866C11.8867 24.2585 13.5457 24.6252 13.5461 24.6236C14.4058 24.8135 15.281 24.6507 15.4019 24.6265L15.4158 24.6236C15.4158 24.6236 17.0889 24.2567 18.8774 23.8639L19.2761 23.7763L19.5889 23.7076C21.4094 23.3076 23.1365 22.9274 23.1365 22.9247C23.8892 22.7374 22.9885 22.5427 22.9885 22.5427L20.2888 21.7644L21.4365 21.7644L20.4661 21.7047L20.3743 21.6994ZM15.2178 23.7645L15.4365 23.6645L14.6553 23.6645L14.4365 23.7645L15.2178 23.7645Z" clip-rule="evenodd" fill="#6EA7ED" fill-opacity="0.000000" fill-rule="evenodd"/>
	</g>
	<g opacity="0.347826">
		<path id="路径" d="M13.95 7.35L11.3 0L5.81 0L9.54 11C10.79 8.33 12.22 7.53 13.95 7.35Z" fill="url(#paint_linear_6_1068_0)" fill-opacity="0" fill-rule="evenodd"/>
		<path id="路径" d="M13.95 7.35L11.3 0L5.81 0L9.54 11C10.79 8.33 12.22 7.53 13.95 7.35Z" fill="url(#paint_linear_6_1068_1)" fill-opacity="0" fill-rule="evenodd"/>
		<path id="路径" d="M13.95 7.35L11.3 0L5.81 0L9.54 11C10.79 8.33 12.22 7.53 13.95 7.35Z" fill="#0A59F7" fill-opacity="1.000000" fill-rule="evenodd"/>
	</g>
	<g opacity="0.347826">
		<path id="路径" d="M16.66 7.35L18.99 0L24.48 0L21.08 11C19.82 8.33 18.39 7.53 16.66 7.35Z" fill="url(#paint_linear_6_1069_0)" fill-opacity="0" fill-rule="evenodd"/>
		<path id="路径" d="M16.66 7.35L18.99 0L24.48 0L21.08 11C19.82 8.33 18.39 7.53 16.66 7.35Z" fill="url(#paint_linear_6_1069_1)" fill-opacity="0" fill-rule="evenodd"/>
		<path id="路径" d="M16.66 7.35L18.99 0L24.48 0L21.08 11C19.82 8.33 18.39 7.53 16.66 7.35Z" fill="#0A59F7" fill-opacity="1.000000" fill-rule="evenodd"/>
	</g>
	<g opacity="0.841278" filter="url(#filter_6_1070_dd)">
		<path id="形状" d="M7.2937 13.6132C7.2937 9.35986 10.7693 5.85718 15.0081 5.85718C19.2466 5.85718 22.7222 9.27649 22.7222 13.5298C22.7222 17.783 19.2466 21.2858 15.0081 21.2858C10.7693 21.2858 7.2937 17.8665 7.2937 13.6132ZM17.0708 14.3429L18.6313 12.8077C18.6313 12.8077 18.7021 12.8077 18.7021 12.6682C18.7021 12.5984 18.6313 12.4588 18.5603 12.4588L16.3616 12.1099L16.2197 11.9703L15.2976 10.0165C15.2266 9.94672 15.2266 9.87695 15.1558 9.87695C15.0139 9.87695 14.9429 9.87695 14.8721 10.0165L13.95 11.9703C13.95 12.0402 13.8789 12.1099 13.8081 12.1099L11.6091 12.4588C11.5383 12.4588 11.5383 12.4588 11.4673 12.5286C11.3254 12.5984 11.3965 12.7379 11.4673 12.8077L13.0278 14.2731C13.0986 14.2731 13.0986 14.3429 13.0986 14.4127L12.6731 16.5759C12.6294 16.5759 12.6396 16.6025 12.6541 16.6393C12.6628 16.6621 12.6731 16.6888 12.6731 16.7154C12.7441 16.855 12.8149 16.9247 12.9568 16.855L14.9429 15.8781C14.9783 15.8431 15.0139 15.8257 15.0493 15.8257C15.0847 15.8257 15.1201 15.8431 15.1558 15.8781L17.1418 16.855L17.2837 16.855C17.3545 16.855 17.4255 16.7852 17.4255 16.6456L17 14.4824C17 14.4824 17 14.4127 17.0708 14.3429Z" clip-rule="evenodd" fill="url(#paint_linear_6_1070_0)" fill-opacity="0.000000" fill-rule="evenodd"/>
		<path id="形状" d="M7.2937 13.6132C7.2937 9.35986 10.7693 5.85718 15.0081 5.85718C19.2466 5.85718 22.7222 9.27649 22.7222 13.5298C22.7222 17.783 19.2466 21.2858 15.0081 21.2858C10.7693 21.2858 7.2937 17.8665 7.2937 13.6132ZM17.0708 14.3429L18.6313 12.8077C18.6313 12.8077 18.7021 12.8077 18.7021 12.6682C18.7021 12.5984 18.6313 12.4588 18.5603 12.4588L16.3616 12.1099L16.2197 11.9703L15.2976 10.0165C15.2266 9.94672 15.2266 9.87695 15.1558 9.87695C15.0139 9.87695 14.9429 9.87695 14.8721 10.0165L13.95 11.9703C13.95 12.0402 13.8789 12.1099 13.8081 12.1099L11.6091 12.4588C11.5383 12.4588 11.5383 12.4588 11.4673 12.5286C11.3254 12.5984 11.3965 12.7379 11.4673 12.8077L13.0278 14.2731C13.0986 14.2731 13.0986 14.3429 13.0986 14.4127L12.6731 16.5759C12.6294 16.5759 12.6396 16.6025 12.6541 16.6393C12.6628 16.6621 12.6731 16.6888 12.6731 16.7154C12.7441 16.855 12.8149 16.9247 12.9568 16.855L14.9429 15.8781C14.9783 15.8431 15.0139 15.8257 15.0493 15.8257C15.0847 15.8257 15.1201 15.8431 15.1558 15.8781L17.1418 16.855L17.2837 16.855C17.3545 16.855 17.4255 16.7852 17.4255 16.6456L17 14.4824C17 14.4824 17 14.4127 17.0708 14.3429Z" clip-rule="evenodd" fill="url(#paint_linear_6_1070_1)" fill-opacity="0.000000" fill-rule="evenodd"/>
		<path id="形状" d="M7.2937 13.6132C7.2937 9.35986 10.7693 5.85718 15.0081 5.85718C19.2466 5.85718 22.7222 9.27649 22.7222 13.5298C22.7222 17.783 19.2466 21.2858 15.0081 21.2858C10.7693 21.2858 7.2937 17.8665 7.2937 13.6132ZM17.0708 14.3429L18.6313 12.8077C18.6313 12.8077 18.7021 12.8077 18.7021 12.6682C18.7021 12.5984 18.6313 12.4588 18.5603 12.4588L16.3616 12.1099L16.2197 11.9703L15.2976 10.0165C15.2266 9.94672 15.2266 9.87695 15.1558 9.87695C15.0139 9.87695 14.9429 9.87695 14.8721 10.0165L13.95 11.9703C13.95 12.0402 13.8789 12.1099 13.8081 12.1099L11.6091 12.4588C11.5383 12.4588 11.5383 12.4588 11.4673 12.5286C11.3254 12.5984 11.3965 12.7379 11.4673 12.8077L13.0278 14.2731C13.0986 14.2731 13.0986 14.3429 13.0986 14.4127L12.6731 16.5759C12.6294 16.5759 12.6396 16.6025 12.6541 16.6393C12.6628 16.6621 12.6731 16.6888 12.6731 16.7154C12.7441 16.855 12.8149 16.9247 12.9568 16.855L14.9429 15.8781C14.9783 15.8431 15.0139 15.8257 15.0493 15.8257C15.0847 15.8257 15.1201 15.8431 15.1558 15.8781L17.1418 16.855L17.2837 16.855C17.3545 16.855 17.4255 16.7852 17.4255 16.6456L17 14.4824C17 14.4824 17 14.4127 17.0708 14.3429Z" clip-rule="evenodd" fill="#6EA7ED" fill-opacity="0.000000" fill-rule="evenodd"/>
		<path id="形状" d="M7.2937 13.6132C7.2937 9.35986 10.7693 5.85718 15.0081 5.85718C19.2466 5.85718 22.7222 9.27649 22.7222 13.5298C22.7222 17.783 19.2466 21.2858 15.0081 21.2858C10.7693 21.2858 7.2937 17.8665 7.2937 13.6132ZM17.0708 14.3429L18.6313 12.8077C18.6313 12.8077 18.7021 12.8077 18.7021 12.6682C18.7021 12.5984 18.6313 12.4588 18.5603 12.4588L16.3616 12.1099L16.2197 11.9703L15.2976 10.0165C15.2266 9.94672 15.2266 9.87695 15.1558 9.87695C15.0139 9.87695 14.9429 9.87695 14.8721 10.0165L13.95 11.9703C13.95 12.0402 13.8789 12.1099 13.8081 12.1099L11.6091 12.4588C11.5383 12.4588 11.5383 12.4588 11.4673 12.5286C11.3254 12.5984 11.3965 12.7379 11.4673 12.8077L13.0278 14.2731C13.0986 14.2731 13.0986 14.3429 13.0986 14.4127L12.6731 16.5759C12.6294 16.5759 12.6396 16.6025 12.6541 16.6393C12.6628 16.6621 12.6731 16.6888 12.6731 16.7154C12.7441 16.855 12.8149 16.9247 12.9568 16.855L14.9429 15.8781C14.9783 15.8431 15.0139 15.8257 15.0493 15.8257C15.0847 15.8257 15.1201 15.8431 15.1558 15.8781L17.1418 16.855L17.2837 16.855C17.3545 16.855 17.4255 16.7852 17.4255 16.6456L17 14.4824C17 14.4824 17 14.4127 17.0708 14.3429Z" clip-rule="evenodd" fill="#FFFFFF" fill-opacity="0.000000" fill-rule="evenodd"/>
	</g>
	<g opacity="0.603559" filter="url(#filter_6_1073_dd)">
		<path id="形状" d="M7.2937 13.6132C7.2937 9.35986 10.7693 5.85718 15.0081 5.85718C19.2466 5.85718 22.7222 9.27649 22.7222 13.5298C22.7222 17.783 19.2466 21.2858 15.0081 21.2858C10.7693 21.2858 7.2937 17.8665 7.2937 13.6132ZM17.0708 14.3429L18.6313 12.8077C18.6313 12.8077 18.7021 12.8077 18.7021 12.6682C18.7021 12.5984 18.6313 12.4588 18.5603 12.4588L16.3616 12.1099L16.2197 11.9703L15.2976 10.0165C15.2266 9.94672 15.2266 9.87695 15.1558 9.87695C15.0139 9.87695 14.9429 9.87695 14.8721 10.0165L13.95 11.9703C13.95 12.0402 13.8789 12.1099 13.8081 12.1099L11.6091 12.4588C11.5383 12.4588 11.5383 12.4588 11.4673 12.5286C11.3254 12.5984 11.3965 12.7379 11.4673 12.8077L13.0278 14.2731C13.0986 14.2731 13.0986 14.3429 13.0986 14.4127L12.6731 16.5759C12.6294 16.5759 12.6396 16.6025 12.6541 16.6393C12.6628 16.6621 12.6731 16.6888 12.6731 16.7154C12.7441 16.855 12.8149 16.9247 12.9568 16.855L14.9429 15.8781C14.9783 15.8431 15.0139 15.8257 15.0493 15.8257C15.0847 15.8257 15.1201 15.8431 15.1558 15.8781L17.1418 16.855L17.2837 16.855C17.3545 16.855 17.4255 16.7852 17.4255 16.6456L17 14.4824C17 14.4824 17 14.4127 17.0708 14.3429Z" clip-rule="evenodd" fill="url(#paint_linear_6_1073_0)" fill-opacity="1.000000" fill-rule="evenodd"/>
		<path id="形状" d="M7.2937 13.6132C7.2937 9.35986 10.7693 5.85718 15.0081 5.85718C19.2466 5.85718 22.7222 9.27649 22.7222 13.5298C22.7222 17.783 19.2466 21.2858 15.0081 21.2858C10.7693 21.2858 7.2937 17.8665 7.2937 13.6132ZM17.0708 14.3429L18.6313 12.8077C18.6313 12.8077 18.7021 12.8077 18.7021 12.6682C18.7021 12.5984 18.6313 12.4588 18.5603 12.4588L16.3616 12.1099L16.2197 11.9703L15.2976 10.0165C15.2266 9.94672 15.2266 9.87695 15.1558 9.87695C15.0139 9.87695 14.9429 9.87695 14.8721 10.0165L13.95 11.9703C13.95 12.0402 13.8789 12.1099 13.8081 12.1099L11.6091 12.4588C11.5383 12.4588 11.5383 12.4588 11.4673 12.5286C11.3254 12.5984 11.3965 12.7379 11.4673 12.8077L13.0278 14.2731C13.0986 14.2731 13.0986 14.3429 13.0986 14.4127L12.6731 16.5759C12.6294 16.5759 12.6396 16.6025 12.6541 16.6393C12.6628 16.6621 12.6731 16.6888 12.6731 16.7154C12.7441 16.855 12.8149 16.9247 12.9568 16.855L14.9429 15.8781C14.9783 15.8431 15.0139 15.8257 15.0493 15.8257C15.0847 15.8257 15.1201 15.8431 15.1558 15.8781L17.1418 16.855L17.2837 16.855C17.3545 16.855 17.4255 16.7852 17.4255 16.6456L17 14.4824C17 14.4824 17 14.4127 17.0708 14.3429Z" clip-rule="evenodd" fill="url(#paint_linear_6_1073_1)" fill-opacity="0.950000" fill-rule="evenodd"/>
		<path id="形状" d="M7.2937 13.6132C7.2937 9.35986 10.7693 5.85718 15.0081 5.85718C19.2466 5.85718 22.7222 9.27649 22.7222 13.5298C22.7222 17.783 19.2466 21.2858 15.0081 21.2858C10.7693 21.2858 7.2937 17.8665 7.2937 13.6132ZM17.0708 14.3429L18.6313 12.8077C18.6313 12.8077 18.7021 12.8077 18.7021 12.6682C18.7021 12.5984 18.6313 12.4588 18.5603 12.4588L16.3616 12.1099L16.2197 11.9703L15.2976 10.0165C15.2266 9.94672 15.2266 9.87695 15.1558 9.87695C15.0139 9.87695 14.9429 9.87695 14.8721 10.0165L13.95 11.9703C13.95 12.0402 13.8789 12.1099 13.8081 12.1099L11.6091 12.4588C11.5383 12.4588 11.5383 12.4588 11.4673 12.5286C11.3254 12.5984 11.3965 12.7379 11.4673 12.8077L13.0278 14.2731C13.0986 14.2731 13.0986 14.3429 13.0986 14.4127L12.6731 16.5759C12.6294 16.5759 12.6396 16.6025 12.6541 16.6393C12.6628 16.6621 12.6731 16.6888 12.6731 16.7154C12.7441 16.855 12.8149 16.9247 12.9568 16.855L14.9429 15.8781C14.9783 15.8431 15.0139 15.8257 15.0493 15.8257C15.0847 15.8257 15.1201 15.8431 15.1558 15.8781L17.1418 16.855L17.2837 16.855C17.3545 16.855 17.4255 16.7852 17.4255 16.6456L17 14.4824C17 14.4824 17 14.4127 17.0708 14.3429Z" clip-rule="evenodd" fill="#6EA7ED" fill-opacity="0.000000" fill-rule="evenodd"/>
	</g>
</svg>
