<svg width="30.873047" height="25.186584" viewBox="0 0 30.873 25.1866" fill="none" xmlns="http://www.w3.org/2000/svg" xmlns:xlink="http://www.w3.org/1999/xlink">
	<desc>
			Created with Pixso.
	</desc>
	<defs>
		<filter id="filter_18_1687_dd" x="0.000000" y="11.263367" width="30.873047" height="13.923218" filterUnits="userSpaceOnUse" color-interpolation-filters="sRGB">
			<feFlood flood-opacity="0" result="BackgroundImageFix"/>
			<feBlend mode="normal" in="SourceGraphic" in2="BackgroundImageFix" result="shape"/>
			<feGaussianBlur stdDeviation="1.81219" result="effect_layerBlur_1"/>
		</filter>
		<linearGradient x1="25.436523" y1="17.686989" x2="5.436523" y2="17.686989" id="paint_linear_18_1687_0" gradientUnits="userSpaceOnUse">
			<stop stop-color="#0A59F7"/>
			<stop offset="1.000000" stop-color="#0A59F7"/>
		</linearGradient>
		<linearGradient x1="23.903034" y1="17.240379" x2="13.407253" y2="19.365437" id="paint_linear_18_1687_1" gradientUnits="userSpaceOnUse">
			<stop stop-color="#0CA78E"/>
			<stop offset="0.392266" stop-color="#30D9C9"/>
			<stop offset="1.000000" stop-color="#1BC29C"/>
		</linearGradient>
		<linearGradient x1="15.436525" y1="17.894783" x2="15.436525" y2="19.750000" id="paint_linear_18_1687_2" gradientUnits="userSpaceOnUse">
			<stop stop-color="#FFFFFF" stop-opacity="0.000000"/>
			<stop offset="1.000000" stop-color="#FFFFFF" stop-opacity="0.458824"/>
		</linearGradient>
		<linearGradient x1="17.053322" y1="-0.000034" x2="17.101141" y2="13.580758" id="paint_linear_18_1693_0" gradientUnits="userSpaceOnUse">
			<stop stop-color="#26C3A9"/>
			<stop offset="0.512311" stop-color="#30D9C9"/>
			<stop offset="1.000000" stop-color="#1BC29C"/>
		</linearGradient>
		<linearGradient x1="23.467709" y1="15.368904" x2="13.639244" y2="17.372684" id="paint_linear_18_1697_0" gradientUnits="userSpaceOnUse">
			<stop stop-color="#0CA78E"/>
			<stop offset="0.392266" stop-color="#30D9C9"/>
			<stop offset="1.000000" stop-color="#1BC29C"/>
		</linearGradient>
	</defs>
	<g opacity="0.643511" filter="url(#filter_18_1687_dd)">
		<path id="形状备份 2" d="M22.1292 16.7349C21.6211 16.7128 20.8701 16.7 20.0745 16.7L10.7573 16.7L10.5713 16.7002C9.76904 16.7022 9.03003 16.7173 8.56299 16.7415C8.14673 16.7631 7.77124 16.7826 7.43652 16.7999L21.9392 16.7999L22.8665 17.0406L7.86865 17.0408C6.58252 17.3873 5.93945 17.5621 5.93945 17.5649C4.80786 17.827 5.93945 17.966 5.93945 17.966C5.93945 17.966 7.53027 18.2833 9.33618 18.6432L9.677 18.7111C9.84839 18.7452 10.0208 18.7796 10.1934 18.814L10.6326 18.9015C12.6033 19.294 14.4468 19.6608 14.4473 19.6591C15.4023 19.849 16.375 19.6862 16.509 19.662L16.5247 19.6591C16.5247 19.6591 18.3838 19.2922 20.3708 18.8994L20.814 18.8118L21.1614 18.7431C23.1841 18.3431 25.1033 17.963 25.1033 17.9602C25.9395 17.7729 24.939 17.5782 24.939 17.5782L21.9392 16.7999L23.4365 16.7999L22.2419 16.7402L22.1292 16.7349ZM15.2178 18.8L15.4365 18.7L14.6553 18.7L14.4365 18.8L15.2178 18.8Z" clip-rule="evenodd" fill="url(#paint_linear_18_1687_0)" fill-opacity="0.000000" fill-rule="evenodd"/>
		<path id="形状备份 2" d="M22.1292 16.7349C21.6211 16.7128 20.8701 16.7 20.0745 16.7L10.7573 16.7L10.5713 16.7002C9.76904 16.7022 9.03003 16.7173 8.56299 16.7415C8.14673 16.7631 7.77124 16.7826 7.43652 16.7999L21.9392 16.7999L22.8665 17.0406L7.86865 17.0408C6.58252 17.3873 5.93945 17.5621 5.93945 17.5649C4.80786 17.827 5.93945 17.966 5.93945 17.966C5.93945 17.966 7.53027 18.2833 9.33618 18.6432L9.677 18.7111C9.84839 18.7452 10.0208 18.7796 10.1934 18.814L10.6326 18.9015C12.6033 19.294 14.4468 19.6608 14.4473 19.6591C15.4023 19.849 16.375 19.6862 16.509 19.662L16.5247 19.6591C16.5247 19.6591 18.3838 19.2922 20.3708 18.8994L20.814 18.8118L21.1614 18.7431C23.1841 18.3431 25.1033 17.963 25.1033 17.9602C25.9395 17.7729 24.939 17.5782 24.939 17.5782L21.9392 16.7999L23.4365 16.7999L22.2419 16.7402L22.1292 16.7349ZM15.2178 18.8L15.4365 18.7L14.6553 18.7L14.4365 18.8L15.2178 18.8Z" clip-rule="evenodd" fill="url(#paint_linear_18_1687_1)" fill-opacity="1.000000" fill-rule="evenodd"/>
		<path id="形状备份 2" d="M22.1292 16.7349C21.6211 16.7128 20.8701 16.7 20.0745 16.7L10.7573 16.7L10.5713 16.7002C9.76904 16.7022 9.03003 16.7173 8.56299 16.7415C8.14673 16.7631 7.77124 16.7826 7.43652 16.7999L21.9392 16.7999L22.8665 17.0406L7.86865 17.0408C6.58252 17.3873 5.93945 17.5621 5.93945 17.5649C4.80786 17.827 5.93945 17.966 5.93945 17.966C5.93945 17.966 7.53027 18.2833 9.33618 18.6432L9.677 18.7111C9.84839 18.7452 10.0208 18.7796 10.1934 18.814L10.6326 18.9015C12.6033 19.294 14.4468 19.6608 14.4473 19.6591C15.4023 19.849 16.375 19.6862 16.509 19.662L16.5247 19.6591C16.5247 19.6591 18.3838 19.2922 20.3708 18.8994L20.814 18.8118L21.1614 18.7431C23.1841 18.3431 25.1033 17.963 25.1033 17.9602C25.9395 17.7729 24.939 17.5782 24.939 17.5782L21.9392 16.7999L23.4365 16.7999L22.2419 16.7402L22.1292 16.7349ZM15.2178 18.8L15.4365 18.7L14.6553 18.7L14.4365 18.8L15.2178 18.8Z" clip-rule="evenodd" fill="url(#paint_linear_18_1687_2)" fill-opacity="0.000000" fill-rule="evenodd"/>
		<path id="形状备份 2" d="M22.1292 16.7349C21.6211 16.7128 20.8701 16.7 20.0745 16.7L10.7573 16.7L10.5713 16.7002C9.76904 16.7022 9.03003 16.7173 8.56299 16.7415C8.14673 16.7631 7.77124 16.7826 7.43652 16.7999L21.9392 16.7999L22.8665 17.0406L7.86865 17.0408C6.58252 17.3873 5.93945 17.5621 5.93945 17.5649C4.80786 17.827 5.93945 17.966 5.93945 17.966C5.93945 17.966 7.53027 18.2833 9.33618 18.6432L9.677 18.7111C9.84839 18.7452 10.0208 18.7796 10.1934 18.814L10.6326 18.9015C12.6033 19.294 14.4468 19.6608 14.4473 19.6591C15.4023 19.849 16.375 19.6862 16.509 19.662L16.5247 19.6591C16.5247 19.6591 18.3838 19.2922 20.3708 18.8994L20.814 18.8118L21.1614 18.7431C23.1841 18.3431 25.1033 17.963 25.1033 17.9602C25.9395 17.7729 24.939 17.5782 24.939 17.5782L21.9392 16.7999L23.4365 16.7999L22.2419 16.7402L22.1292 16.7349ZM15.2178 18.8L15.4365 18.7L14.6553 18.7L14.4365 18.8L15.2178 18.8Z" clip-rule="evenodd" fill="#6EA7ED" fill-opacity="0.000000" fill-rule="evenodd"/>
	</g>
	<g opacity="0.600000">
		<path id="形状" d="M4.68652 13.4801L4.69165 13.623C4.71167 13.8937 4.79028 14.1205 4.92749 14.3035C5.14258 14.5904 5.50195 14.7692 6.00537 14.84L6.17529 14.8593L24.9036 14.8593C25.8962 14.7717 26.3923 14.312 26.3923 13.4801L26.3923 9.02454L26.3884 8.80713C26.3181 6.97736 25.3569 6.55859 24.5938 6.46069L23.9434 4.7514L23.9399 4.7373L23.915 4.65253C23.8547 4.45374 23.7058 3.98505 23.5491 3.51227L23.4377 3.17981C23.3088 2.79938 23.1877 2.45911 23.1204 2.30957C23.0288 2.10608 22.9272 1.90259 22.8254 1.6991L22.6731 1.45496L22.6335 1.39233C22.5073 1.17865 22.4199 0.912903 21.9211 0.579956C21.3723 0.203491 20.7627 0 20.0413 0L11.0378 0L10.8013 0.00750732C10.1814 0.0473633 9.64551 0.2453 9.15771 0.579956C8.60913 0.946228 8.55811 1.23108 8.41602 1.42438L8.25342 1.6991L8.10229 2.00433L7.95874 2.30957C7.76562 2.73688 7.1355 4.72083 7.12549 4.7514L6.48511 6.46069L6.39624 6.47345C5.61938 6.59772 4.68652 7.08466 4.68652 9.02454L4.68652 13.4801ZM10.8625 7.50818C10.8625 6.36395 11.363 5.2912 12.1499 4.50452C13.8665 2.85968 16.5845 2.85968 18.2297 4.50452C19.678 5.9527 19.8628 8.19885 18.7839 9.83234L18.6587 10.0112L20.2324 11.5845L20.3032 11.6675C20.5161 11.9593 20.4924 12.3907 20.2324 12.5858C20.0894 12.7288 19.8748 12.8003 19.7317 12.8003C19.6172 12.8003 19.457 12.7545 19.3242 12.663L19.231 12.5858L17.6575 11.0125L17.4387 11.1561C16.7698 11.5674 15.991 11.7991 15.1541 11.7991C14.0095 11.7991 12.9368 11.2985 12.1499 10.5118C11.2915 9.72516 10.8625 8.6524 10.8625 7.50818ZM15.2024 4.586C15.9585 4.586 16.7148 4.87762 17.3198 5.46082C18.5295 6.6272 18.5295 8.44965 17.3198 9.61603C16.261 10.6366 14.2192 10.6366 13.085 9.54309C12.48 8.95996 12.1775 8.23096 12.1775 7.50195C12.1775 6.77295 12.48 5.97107 13.085 5.46082C13.6899 4.87762 14.446 4.586 15.2024 4.586Z" clip-rule="evenodd" fill="#44D7B6" fill-opacity="0.000000" fill-rule="evenodd"/>
		<path id="形状" d="M4.68652 13.4801L4.69165 13.623C4.71167 13.8937 4.79028 14.1205 4.92749 14.3035C5.14258 14.5904 5.50195 14.7692 6.00537 14.84L6.17529 14.8593L24.9036 14.8593C25.8962 14.7717 26.3923 14.312 26.3923 13.4801L26.3923 9.02454L26.3884 8.80713C26.3181 6.97736 25.3569 6.55859 24.5938 6.46069L23.9434 4.7514L23.9399 4.7373L23.915 4.65253C23.8547 4.45374 23.7058 3.98505 23.5491 3.51227L23.4377 3.17981C23.3088 2.79938 23.1877 2.45911 23.1204 2.30957C23.0288 2.10608 22.9272 1.90259 22.8254 1.6991L22.6731 1.45496L22.6335 1.39233C22.5073 1.17865 22.4199 0.912903 21.9211 0.579956C21.3723 0.203491 20.7627 0 20.0413 0L11.0378 0L10.8013 0.00750732C10.1814 0.0473633 9.64551 0.2453 9.15771 0.579956C8.60913 0.946228 8.55811 1.23108 8.41602 1.42438L8.25342 1.6991L8.10229 2.00433L7.95874 2.30957C7.76562 2.73688 7.1355 4.72083 7.12549 4.7514L6.48511 6.46069L6.39624 6.47345C5.61938 6.59772 4.68652 7.08466 4.68652 9.02454L4.68652 13.4801ZM10.8625 7.50818C10.8625 6.36395 11.363 5.2912 12.1499 4.50452C13.8665 2.85968 16.5845 2.85968 18.2297 4.50452C19.678 5.9527 19.8628 8.19885 18.7839 9.83234L18.6587 10.0112L20.2324 11.5845L20.3032 11.6675C20.5161 11.9593 20.4924 12.3907 20.2324 12.5858C20.0894 12.7288 19.8748 12.8003 19.7317 12.8003C19.6172 12.8003 19.457 12.7545 19.3242 12.663L19.231 12.5858L17.6575 11.0125L17.4387 11.1561C16.7698 11.5674 15.991 11.7991 15.1541 11.7991C14.0095 11.7991 12.9368 11.2985 12.1499 10.5118C11.2915 9.72516 10.8625 8.6524 10.8625 7.50818ZM15.2024 4.586C15.9585 4.586 16.7148 4.87762 17.3198 5.46082C18.5295 6.6272 18.5295 8.44965 17.3198 9.61603C16.261 10.6366 14.2192 10.6366 13.085 9.54309C12.48 8.95996 12.1775 8.23096 12.1775 7.50195C12.1775 6.77295 12.48 5.97107 13.085 5.46082C13.6899 4.87762 14.446 4.586 15.2024 4.586Z" clip-rule="evenodd" fill="url(#paint_linear_18_1693_0)" fill-opacity="1.000000" fill-rule="evenodd"/>
	</g>
	<g opacity="0.354204">
		<path id="路径" d="M24.72 14.87L24.53 14.87L24.53 16.33C24.53 17.1 23.9 17.73 23.13 17.73C22.4 17.73 21.8 17.17 21.73 16.46L21.72 16.33L21.72 14.87L9.35 14.87L9.35 16.33C9.35 17.1 8.72 17.73 7.94 17.73C7.22 17.73 6.62 17.17 6.55 16.46L6.54 16.33L6.54 14.87C6.41 14.87 6.29 14.86 6.17 14.85L24.9 14.85C24.84 14.86 24.78 14.86 24.72 14.87Z" fill="#44D7B6" fill-opacity="1.000000" fill-rule="evenodd"/>
		<path id="路径" d="M24.72 14.87L24.53 14.87L24.53 16.33C24.53 17.1 23.9 17.73 23.13 17.73C22.4 17.73 21.8 17.17 21.73 16.46L21.72 16.33L21.72 14.87L9.35 14.87L9.35 16.33C9.35 17.1 8.72 17.73 7.94 17.73C7.22 17.73 6.62 17.17 6.55 16.46L6.54 16.33L6.54 14.87C6.41 14.87 6.29 14.86 6.17 14.85L24.9 14.85C24.84 14.86 24.78 14.86 24.72 14.87Z" fill="url(#paint_linear_18_1697_0)" fill-opacity="0" fill-rule="evenodd"/>
	</g>
</svg>
