<svg width="26.873047" height="29.972595" viewBox="0 0 26.873 29.9726" fill="none" xmlns="http://www.w3.org/2000/svg" xmlns:xlink="http://www.w3.org/1999/xlink">
	<desc>
			Created with Pixso.
	</desc>
	<defs>
		<filter id="filter_6_1117_dd" x="0.000000" y="16.049377" width="26.873047" height="13.923218" filterUnits="userSpaceOnUse" color-interpolation-filters="sRGB">
			<feFlood flood-opacity="0" result="BackgroundImageFix"/>
			<feBlend mode="normal" in="SourceGraphic" in2="BackgroundImageFix" result="shape"/>
			<feGaussianBlur stdDeviation="1.81219" result="effect_layerBlur_1"/>
		</filter>
		<linearGradient x1="21.436523" y1="22.472996" x2="5.436523" y2="22.472996" id="paint_linear_6_1117_0" gradientUnits="userSpaceOnUse">
			<stop stop-color="#0A59F7"/>
			<stop offset="1.000000" stop-color="#0A59F7"/>
		</linearGradient>
		<linearGradient x1="20.209732" y1="22.026390" x2="11.813107" y2="24.151449" id="paint_linear_6_1117_1" gradientUnits="userSpaceOnUse">
			<stop stop-color="#0CA78E"/>
			<stop offset="0.392266" stop-color="#30D9C9"/>
			<stop offset="1.000000" stop-color="#1BC29C"/>
		</linearGradient>
		<linearGradient x1="13.436523" y1="22.680794" x2="13.436523" y2="24.536011" id="paint_linear_6_1117_2" gradientUnits="userSpaceOnUse">
			<stop stop-color="#FFFFFF" stop-opacity="0.000000"/>
			<stop offset="1.000000" stop-color="#FFFFFF" stop-opacity="0.458824"/>
		</linearGradient>
		<linearGradient x1="21.435219" y1="3.725806" x2="11.436646" y2="18.376343" id="paint_linear_6_1122_0" gradientUnits="userSpaceOnUse">
			<stop stop-color="#0CA78E"/>
			<stop offset="0.392266" stop-color="#30D9C9"/>
			<stop offset="1.000000" stop-color="#1BC29C"/>
		</linearGradient>
	</defs>
	<g opacity="0.643511" filter="url(#filter_6_1117_dd)">
		<path id="形状备份 2" d="M18.4561 21.5209C18.075 21.4988 17.5117 21.486 16.915 21.486L9.92725 21.486L9.7876 21.4862C9.18604 21.4882 8.63159 21.5034 8.28149 21.5275C7.96924 21.5491 7.6875 21.5686 7.43652 21.5859L18.6387 21.5859L19.3806 21.8266L7.38232 21.8268C6.35327 22.1733 5.83887 22.3481 5.83887 22.351C4.93359 22.613 5.83887 22.752 5.83887 22.752C5.83887 22.752 7.11157 23.0693 8.5564 23.4292L8.82886 23.4971C8.96606 23.5312 9.104 23.5656 9.24194 23.6L9.59351 23.6875C11.1699 24.08 12.6445 24.4468 12.645 24.4451C13.4092 24.635 14.1873 24.4722 14.2944 24.448L14.3071 24.4451C14.3071 24.4451 15.7942 24.0782 17.384 23.6854L17.7385 23.5978L18.0164 23.5291C19.6345 23.1292 21.1699 22.749 21.1699 22.7462C21.8389 22.559 21.0383 22.3642 21.0383 22.3642L18.6387 21.5859L19.4365 21.5859L18.5405 21.5262L18.4561 21.5209ZM13.2178 23.586L13.4365 23.486L12.6553 23.486L12.4365 23.586L13.2178 23.586Z" clip-rule="evenodd" fill="url(#paint_linear_6_1117_0)" fill-opacity="0.000000" fill-rule="evenodd"/>
		<path id="形状备份 2" d="M18.4561 21.5209C18.075 21.4988 17.5117 21.486 16.915 21.486L9.92725 21.486L9.7876 21.4862C9.18604 21.4882 8.63159 21.5034 8.28149 21.5275C7.96924 21.5491 7.6875 21.5686 7.43652 21.5859L18.6387 21.5859L19.3806 21.8266L7.38232 21.8268C6.35327 22.1733 5.83887 22.3481 5.83887 22.351C4.93359 22.613 5.83887 22.752 5.83887 22.752C5.83887 22.752 7.11157 23.0693 8.5564 23.4292L8.82886 23.4971C8.96606 23.5312 9.104 23.5656 9.24194 23.6L9.59351 23.6875C11.1699 24.08 12.6445 24.4468 12.645 24.4451C13.4092 24.635 14.1873 24.4722 14.2944 24.448L14.3071 24.4451C14.3071 24.4451 15.7942 24.0782 17.384 23.6854L17.7385 23.5978L18.0164 23.5291C19.6345 23.1292 21.1699 22.749 21.1699 22.7462C21.8389 22.559 21.0383 22.3642 21.0383 22.3642L18.6387 21.5859L19.4365 21.5859L18.5405 21.5262L18.4561 21.5209ZM13.2178 23.586L13.4365 23.486L12.6553 23.486L12.4365 23.586L13.2178 23.586Z" clip-rule="evenodd" fill="url(#paint_linear_6_1117_1)" fill-opacity="1.000000" fill-rule="evenodd"/>
		<path id="形状备份 2" d="M18.4561 21.5209C18.075 21.4988 17.5117 21.486 16.915 21.486L9.92725 21.486L9.7876 21.4862C9.18604 21.4882 8.63159 21.5034 8.28149 21.5275C7.96924 21.5491 7.6875 21.5686 7.43652 21.5859L18.6387 21.5859L19.3806 21.8266L7.38232 21.8268C6.35327 22.1733 5.83887 22.3481 5.83887 22.351C4.93359 22.613 5.83887 22.752 5.83887 22.752C5.83887 22.752 7.11157 23.0693 8.5564 23.4292L8.82886 23.4971C8.96606 23.5312 9.104 23.5656 9.24194 23.6L9.59351 23.6875C11.1699 24.08 12.6445 24.4468 12.645 24.4451C13.4092 24.635 14.1873 24.4722 14.2944 24.448L14.3071 24.4451C14.3071 24.4451 15.7942 24.0782 17.384 23.6854L17.7385 23.5978L18.0164 23.5291C19.6345 23.1292 21.1699 22.749 21.1699 22.7462C21.8389 22.559 21.0383 22.3642 21.0383 22.3642L18.6387 21.5859L19.4365 21.5859L18.5405 21.5262L18.4561 21.5209ZM13.2178 23.586L13.4365 23.486L12.6553 23.486L12.4365 23.586L13.2178 23.586Z" clip-rule="evenodd" fill="url(#paint_linear_6_1117_2)" fill-opacity="0.000000" fill-rule="evenodd"/>
		<path id="形状备份 2" d="M18.4561 21.5209C18.075 21.4988 17.5117 21.486 16.915 21.486L9.92725 21.486L9.7876 21.4862C9.18604 21.4882 8.63159 21.5034 8.28149 21.5275C7.96924 21.5491 7.6875 21.5686 7.43652 21.5859L18.6387 21.5859L19.3806 21.8266L7.38232 21.8268C6.35327 22.1733 5.83887 22.3481 5.83887 22.351C4.93359 22.613 5.83887 22.752 5.83887 22.752C5.83887 22.752 7.11157 23.0693 8.5564 23.4292L8.82886 23.4971C8.96606 23.5312 9.104 23.5656 9.24194 23.6L9.59351 23.6875C11.1699 24.08 12.6445 24.4468 12.645 24.4451C13.4092 24.635 14.1873 24.4722 14.2944 24.448L14.3071 24.4451C14.3071 24.4451 15.7942 24.0782 17.384 23.6854L17.7385 23.5978L18.0164 23.5291C19.6345 23.1292 21.1699 22.749 21.1699 22.7462C21.8389 22.559 21.0383 22.3642 21.0383 22.3642L18.6387 21.5859L19.4365 21.5859L18.5405 21.5262L18.4561 21.5209ZM13.2178 23.586L13.4365 23.486L12.6553 23.486L12.4365 23.586L13.2178 23.586Z" clip-rule="evenodd" fill="#6EA7ED" fill-opacity="0.000000" fill-rule="evenodd"/>
	</g>
	<g opacity="0.600000">
		<path id="形状" d="M14.9412 0.421082L21.3247 4.10651C22.2971 4.66797 22.896 5.70551 22.896 6.82831L22.896 14.1993C22.896 15.3221 22.2971 16.3596 21.3247 16.9211L14.9412 20.6065C13.9688 21.168 12.7708 21.168 11.7983 20.6065L5.41504 16.9211C4.44263 16.3596 3.84351 15.3221 3.84351 14.1993L3.84351 6.82831C3.84351 5.70551 4.44263 4.66797 5.41504 4.10651L11.7983 0.421082C12.7708 -0.140381 13.9688 -0.140381 14.9412 0.421082ZM12.9001 5.17981C13.0281 4.92041 13.3423 4.8139 13.6016 4.94196C13.7048 4.99292 13.7886 5.07654 13.8396 5.17981L15.217 7.97119L18.2976 8.41876C18.5837 8.46039 18.7822 8.7262 18.7405 9.01245C18.7241 9.12646 18.6704 9.23181 18.5879 9.31226L16.3589 11.485L16.885 14.553C16.9338 14.8381 16.7424 15.1089 16.4573 15.1578C16.3438 15.1772 16.2271 15.1588 16.125 15.1052L13.3699 13.6567L10.6145 15.1052C10.3584 15.2397 10.0417 15.1414 9.90723 14.8853C9.85352 14.7833 9.83496 14.6665 9.85449 14.553L10.3809 11.485L8.15186 9.31226C7.94458 9.11029 7.94043 8.77869 8.14233 8.57153C8.22266 8.48901 8.32812 8.43536 8.44214 8.41876L11.5225 7.97119L12.9001 5.17981Z" clip-rule="evenodd" fill="#44D7B6" fill-opacity="0.000000" fill-rule="evenodd"/>
		<path id="形状" d="M14.9412 0.421082L21.3247 4.10651C22.2971 4.66797 22.896 5.70551 22.896 6.82831L22.896 14.1993C22.896 15.3221 22.2971 16.3596 21.3247 16.9211L14.9412 20.6065C13.9688 21.168 12.7708 21.168 11.7983 20.6065L5.41504 16.9211C4.44263 16.3596 3.84351 15.3221 3.84351 14.1993L3.84351 6.82831C3.84351 5.70551 4.44263 4.66797 5.41504 4.10651L11.7983 0.421082C12.7708 -0.140381 13.9688 -0.140381 14.9412 0.421082ZM12.9001 5.17981C13.0281 4.92041 13.3423 4.8139 13.6016 4.94196C13.7048 4.99292 13.7886 5.07654 13.8396 5.17981L15.217 7.97119L18.2976 8.41876C18.5837 8.46039 18.7822 8.7262 18.7405 9.01245C18.7241 9.12646 18.6704 9.23181 18.5879 9.31226L16.3589 11.485L16.885 14.553C16.9338 14.8381 16.7424 15.1089 16.4573 15.1578C16.3438 15.1772 16.2271 15.1588 16.125 15.1052L13.3699 13.6567L10.6145 15.1052C10.3584 15.2397 10.0417 15.1414 9.90723 14.8853C9.85352 14.7833 9.83496 14.6665 9.85449 14.553L10.3809 11.485L8.15186 9.31226C7.94458 9.11029 7.94043 8.77869 8.14233 8.57153C8.22266 8.48901 8.32812 8.43536 8.44214 8.41876L11.5225 7.97119L12.9001 5.17981Z" clip-rule="evenodd" fill="url(#paint_linear_6_1122_0)" fill-opacity="1.000000" fill-rule="evenodd"/>
	</g>
</svg>
