<svg width="22.000000" height="19.000000" viewBox="0 0 22 19" fill="none" xmlns="http://www.w3.org/2000/svg" xmlns:xlink="http://www.w3.org/1999/xlink">
	<desc>
			Created with Pixso.
	</desc>
	<defs/>
	<path id="path-1" d="M22 7.5C22 3.35785 18.6421 0 14.5 0L7.5 0L7.37598 0.000976562C3.29102 0.0672607 0 3.39929 0 7.5C0 11.6422 3.35791 15 7.5 15L8.25 15L8.29419 14.9987C8.68774 14.9759 9 14.6494 9 14.25C9 13.8358 8.66431 13.5 8.25 13.5L7.5 13.5L7.40088 13.4992C4.13281 13.4462 1.5 10.7806 1.5 7.5C1.5 4.18628 4.18628 1.5 7.5 1.5L14.5991 1.50079C17.8672 1.55377 20.5 4.21942 20.5 7.5C20.5 10.8137 17.8137 13.5 14.5 13.5L12.5 13.5L12.4504 13.5016C12.2695 13.5136 12.0986 13.5908 11.9697 13.7197L7.96973 17.7197L7.93604 17.7557C7.67725 18.0502 7.68848 18.4991 7.96973 18.7803L8.00562 18.8141C8.30029 19.0728 8.74927 19.0615 9.03027 18.7803L12.8105 15L14.5 15L14.624 14.999C18.709 14.9327 22 11.6007 22 7.5ZM7.75 6.25C8.44043 6.25 9 6.80963 9 7.5C9 8.19037 8.44043 8.75 7.75 8.75C7.05957 8.75 6.5 8.19037 6.5 7.5C6.5 6.80963 7.05957 6.25 7.75 6.25ZM15.5 7.5C15.5 6.80963 14.9404 6.25 14.25 6.25C13.5596 6.25 13 6.80963 13 7.5C13 8.19037 13.5596 8.75 14.25 8.75C14.9404 8.75 15.5 8.19037 15.5 7.5Z" clip-rule="evenodd" fill="#000000" fill-opacity="1.000000" fill-rule="evenodd"/>
</svg>
