<svg width="48.000000" height="48.000000" viewBox="0 0 48 48" fill="none" xmlns="http://www.w3.org/2000/svg" xmlns:xlink="http://www.w3.org/1999/xlink">
	<desc>
			Created with Pixso.
	</desc>
	<defs>
		<linearGradient x1="24.022459" y1="0.352478" x2="24.022459" y2="47.602474" id="paint_linear_55_2205_0" gradientUnits="userSpaceOnUse">
			<stop stop-color="#FFFFFF" stop-opacity="0.600000"/>
			<stop offset="1.000000" stop-color="#FFFFFF" stop-opacity="0.200000"/>
		</linearGradient>
	</defs>
	<g opacity="0.000000">
		<rect id="矩形" width="48.000000" height="48.000000" fill="#000000" fill-opacity="1.000000"/>
	</g>
	<path id="路径" d="M0.39 24C0.39 28.28 1.45 32.22 3.55 35.82C5.66 39.42 8.52 42.28 12.14 44.4C15.76 46.53 19.71 47.6 24 47.6C28.28 47.6 32.23 46.53 35.85 44.4C39.47 42.28 42.34 39.41 44.46 35.8C46.58 32.17 47.64 28.24 47.64 24C47.64 19.71 46.58 15.76 44.46 12.14C42.34 8.52 39.47 5.65 35.85 3.53C32.23 1.41 28.28 0.35 24 0.35C19.71 0.35 15.76 1.41 12.14 3.53C8.52 5.65 5.66 8.52 3.55 12.14C1.45 15.76 0.39 19.71 0.39 24Z" fill="#999999" fill-opacity="1.000000" fill-rule="evenodd"/>
	<path id="路径" d="M0.39 24C0.39 28.28 1.45 32.22 3.55 35.82C5.66 39.42 8.52 42.28 12.14 44.4C15.76 46.53 19.71 47.6 24 47.6C28.28 47.6 32.23 46.53 35.85 44.4C39.47 42.28 42.34 39.41 44.46 35.8C46.58 32.17 47.64 28.24 47.64 24C47.64 19.71 46.58 15.76 44.46 12.14C42.34 8.52 39.47 5.65 35.85 3.53C32.23 1.41 28.28 0.35 24 0.35C19.71 0.35 15.76 1.41 12.14 3.53C8.52 5.65 5.66 8.52 3.55 12.14C1.45 15.76 0.39 19.71 0.39 24Z" fill="url(#paint_linear_55_2205_0)" fill-opacity="1.000000" fill-rule="evenodd"/>
	<path id="车" d="M35.08 31.89L35.08 29.1L26.44 29.1L26.44 26.27L33.01 26.27L33.01 23.56L26.44 23.56L26.44 20.2L23.46 20.2L23.46 23.56L19.53 23.56Q20.77 21.74 22.07 19.27L34.41 19.27L34.41 16.53L23.44 16.53Q24.21 14.8 24.52 13.99L21.35 13.41Q20.9 14.71 20.03 16.53L14.39 16.53L14.39 19.27L18.64 19.27Q17.18 21.91 15.95 23.56L15.95 26.27L23.46 26.27L23.46 29.1L13.96 29.1L13.96 31.89L23.46 31.89L23.46 35.85L26.44 35.85L26.44 31.89L35.08 31.89Z" fill="#FFFFFF" fill-opacity="1.000000" fill-rule="evenodd"/>
</svg>
