<svg width="24.000000" height="24.000000" viewBox="0 0 24 24" fill="none" xmlns="http://www.w3.org/2000/svg" xmlns:xlink="http://www.w3.org/1999/xlink">
	<desc>
			Created with Pixso.
	</desc>
	<defs>
		<clipPath id="clip31_3311">
			<rect id="gearshape" width="24.000000" height="24.000000" fill="white" fill-opacity="0"/>
		</clipPath>
	</defs>
	<g clip-path="url(#clip31_3311)">
		<g opacity="0.000000">
			<rect id="rect" width="24.000000" height="24.000000" fill="#000000" fill-opacity="1.000000"/>
		</g>
		<path id="path" d="M12.02 9C12.56 9 13.06 9.13 13.52 9.4C13.98 9.68 14.33 10.05 14.6 10.51C14.86 10.97 15 11.48 15 12.02C15 12.56 14.86 13.06 14.6 13.52C14.33 13.98 13.98 14.34 13.52 14.6C13.06 14.86 12.56 15 12 15C11.45 15 10.95 14.86 10.49 14.59C10.02 14.31 9.66 13.95 9.39 13.49C9.13 13.02 9 12.52 9 11.98C9 11.43 9.13 10.93 9.41 10.48C9.68 10.02 10.05 9.65 10.51 9.39C10.97 9.13 11.48 9 12.02 9ZM12.05 7.51C11.23 7.51 10.47 7.7 9.78 8.1C9.08 8.51 8.53 9.04 8.12 9.72C7.71 10.41 7.51 11.16 7.51 11.98C7.51 12.79 7.7 13.54 8.1 14.24C8.51 14.94 9.05 15.49 9.74 15.9C10.43 16.3 11.18 16.51 12 16.51C12.81 16.51 13.56 16.31 14.26 15.91C14.94 15.51 15.49 14.96 15.89 14.28C16.3 13.59 16.51 12.84 16.51 12.02C16.51 11.2 16.31 10.45 15.91 9.76C15.51 9.08 14.97 8.53 14.29 8.12C13.6 7.71 12.86 7.51 12.05 7.51ZM13.56 22.66C13.86 22.66 14.14 22.57 14.39 22.4C14.65 22.23 14.84 22.01 14.98 21.74L15.79 19.85L15.98 19.75C16.27 19.57 16.56 19.4 16.85 19.21L18.91 19.49C19.23 19.52 19.52 19.46 19.8 19.33C20.07 19.19 20.29 18.99 20.45 18.71L22.03 15.98C22.18 15.71 22.26 15.42 22.24 15.12C22.21 14.81 22.11 14.53 21.93 14.28L20.68 12.6L20.68 11.42L21.93 9.73C22.12 9.48 22.23 9.2 22.25 8.89C22.26 8.59 22.18 8.31 22.03 8.03L20.45 5.27C20.3 5.02 20.09 4.82 19.82 4.67C19.55 4.53 19.26 4.47 18.93 4.51L16.85 4.77C16.56 4.56 16.23 4.37 15.85 4.2L15.02 2.22C14.89 1.95 14.7 1.73 14.45 1.56C14.18 1.38 13.91 1.29 13.6 1.29L10.43 1.29C10.13 1.29 9.85 1.38 9.58 1.56C9.32 1.73 9.12 1.95 9 2.22L8.16 4.2L7.91 4.33C7.79 4.4 7.66 4.47 7.55 4.53C7.43 4.59 7.31 4.66 7.2 4.75L5.08 4.51C4.78 4.46 4.49 4.5 4.2 4.64C3.93 4.77 3.7 4.98 3.55 5.26L1.97 8.01C1.81 8.27 1.74 8.55 1.76 8.87C1.78 9.18 1.88 9.46 2.06 9.71L3.33 11.42L3.33 12.53L2.06 14.23C1.87 14.49 1.77 14.77 1.75 15.07C1.73 15.37 1.81 15.66 1.97 15.94L3.53 18.67C3.68 18.94 3.9 19.14 4.18 19.28C4.44 19.42 4.74 19.47 5.06 19.44L7.12 19.2C7.57 19.48 7.91 19.68 8.14 19.79L8.97 21.72C9.08 22 9.27 22.23 9.53 22.4C9.78 22.57 10.07 22.66 10.39 22.66L13.56 22.66ZM7.08 17.66L4.8 17.9L3.22 15.1L4.58 13.27C4.72 13.05 4.8 12.82 4.8 12.6C4.78 12.4 4.78 12.19 4.78 11.95C4.78 11.71 4.78 11.49 4.8 11.3C4.8 11.04 4.72 10.81 4.58 10.61L3.22 8.73L4.85 5.95L7.14 6.23C7.29 6.25 7.43 6.24 7.55 6.21C7.66 6.18 7.77 6.13 7.87 6.07C8.15 5.86 8.51 5.66 8.93 5.46C9.16 5.34 9.33 5.16 9.43 4.94L10.39 2.77L13.6 2.81L14.52 4.94C14.6 5.15 14.76 5.33 15.02 5.46C15.37 5.63 15.73 5.83 16.1 6.09C16.33 6.26 16.58 6.31 16.82 6.26L19.12 6.01L20.71 8.83L19.37 10.63C19.18 10.82 19.11 11.05 19.14 11.33C19.16 11.53 19.18 11.76 19.18 12.01C19.18 12.25 19.16 12.47 19.14 12.67C19.13 12.93 19.2 13.16 19.37 13.37L20.71 15.19L19.08 17.98L16.85 17.7C16.72 17.69 16.59 17.7 16.45 17.71C16.33 17.74 16.22 17.79 16.12 17.87C15.77 18.13 15.39 18.35 15 18.53C14.88 18.59 14.78 18.66 14.68 18.76C14.58 18.84 14.51 18.94 14.47 19.06L13.56 21.14L10.33 21.12L9.45 19.03C9.34 18.79 9.17 18.61 8.95 18.5C8.62 18.36 8.26 18.15 7.85 17.87C7.66 17.75 7.47 17.69 7.25 17.69L7.08 17.66Z" fill="#000000" fill-opacity="0.901961" fill-rule="nonzero"/>
	</g>
</svg>
