<svg width="24.000000" height="24.000000" viewBox="0 0 24 24" fill="none" xmlns="http://www.w3.org/2000/svg" xmlns:xlink="http://www.w3.org/1999/xlink">
	<desc>
			Created with Pixso.
	</desc>
	<defs/>
	<path id="path-1" d="M3.44995 4.99994L20.55 4.99994C21.0747 4.99994 21.5 5.42529 21.5 5.94995C21.5 6.47461 21.0747 6.89996 20.55 6.89996L3.44995 6.89996C2.92529 6.89996 2.5 6.47461 2.5 5.94995C2.5 5.42529 2.92529 4.99994 3.44995 4.99994ZM3.44995 11.175L20.55 11.175C21.0747 11.175 21.5 11.6003 21.5 12.125C21.5 12.6497 21.0747 13.075 20.55 13.075L3.44995 13.075C2.92529 13.075 2.5 12.6497 2.5 12.125C2.5 11.6003 2.92529 11.175 3.44995 11.175ZM20.55 17.35L3.44995 17.35C2.92529 17.35 2.5 17.7754 2.5 18.3C2.5 18.8247 2.92529 19.2501 3.44995 19.2501L20.55 19.2501C21.0747 19.2501 21.5 18.8247 21.5 18.3C21.5 17.7754 21.0747 17.35 20.55 17.35Z" clip-rule="evenodd" fill="#000000" fill-opacity="0.901961" fill-rule="evenodd"/>
</svg>
