<svg width="12.737305" height="12.820801" viewBox="0 0 12.7373 12.8208" fill="none" xmlns="http://www.w3.org/2000/svg" xmlns:xlink="http://www.w3.org/1999/xlink">
    <desc>
        Created with Pixso.
    </desc>
    <defs/>
    <path id="形状" d="M5.58325 0C8.66699 0 11.1667 2.49976 11.1667 5.58331C11.1667 6.87195 10.7302 8.05853 9.99683 9.00342L9.85352 9.1806C9.78369 9.26355 9.71118 9.34442 9.63672 9.42316L9.5459 9.51672L9.42603 9.63397L9.33691 9.71667L9.11108 9.91113L8.98706 10.0096C8.04492 10.7352 6.8645 11.1667 5.58325 11.1667C2.49976 11.1667 0 8.66693 0 5.58331C0 2.49976 2.49976 0 5.58325 0ZM1.33325 5.58331C1.33325 3.23615 3.23608 1.33331 5.58325 1.33331C7.93066 1.33331 9.83325 3.23615 9.83325 5.58331C9.83325 7.93054 7.93066 9.83331 5.58325 9.83331C3.23608 9.83331 1.33325 7.93054 1.33325 5.58331ZM12.5422 11.6827L10.4116 9.55237C10.1284 9.89636 9.80933 10.2095 9.45996 10.4861L11.5994 12.6255C11.8596 12.8859 12.2817 12.8859 12.5422 12.6255C12.8025 12.3652 12.8025 11.9431 12.5422 11.6827Z" clip-rule="evenodd" fill="#000000" fill-opacity="1.000000" fill-rule="evenodd"/>
</svg>

