<svg width="24.000000" height="24.000000" viewBox="0 0 24 24" fill="none" xmlns="http://www.w3.org/2000/svg" xmlns:xlink="http://www.w3.org/1999/xlink">
	<desc>
			Created with Pixso.
	</desc>
	<defs/>
	<path id="path-1" d="M11.6763 5L12.6396 5.00171C15.4438 5.02783 17.2546 5.34985 17.95 6.08398C18.5046 6.6698 19.7148 9.55994 19.752 9.67358C20.1995 9.79541 20.6006 9.98242 20.9553 10.2347L20.9556 10.2347C21.0569 10.3069 21.1545 10.3844 21.2483 10.4672C21.8811 11.0259 21.9988 11.5177 22 11.6581L21.9971 11.9081C21.9541 13.5878 21.468 18.3578 21.3462 18.6562C21.1917 19.0341 18.8315 19.1312 17.9067 18.7917C17.6682 18.7014 17.5488 18.3938 17.5488 17.8691L17.5488 17.4124L6.32544 17.4124L6.32544 17.8691C6.32544 18.3561 6.22266 18.656 6.01733 18.7689L6.01636 18.7693C6.00073 18.7778 5.98438 18.7854 5.96753 18.7917C5.04272 19.1312 2.68262 19.0341 2.52808 18.6562C2.37842 18.2896 1.99292 12.7299 2 11.6581C2.00122 11.5177 2.26904 10.9006 2.76001 10.4672C3.0874 10.1781 3.5835 9.9137 4.24805 9.67358L4.41431 9.271C4.771 8.4325 5.61108 6.54761 6.05005 6.08398C6.77124 5.32263 8.69189 5.00452 11.6763 5ZM11.6782 6.28589L12.2947 6.28589C15.0315 6.29041 16.6372 6.58215 16.9963 6.96143C17.2268 7.20459 18.1841 9.24219 18.4531 9.91467L18.51 10.0669L18.5732 10.26C16.3809 10.0399 14.1882 9.92981 11.9956 9.92981C9.80615 9.92981 7.61694 10.0396 5.42773 10.259L5.48999 10.0669L5.54712 9.91455C5.81592 9.24182 6.77124 7.20691 7.00366 6.96143C7.35791 6.58752 8.95947 6.28992 11.6782 6.28589ZM3.96118 11.7185C6.6394 11.3833 9.31763 11.2157 11.9956 11.2157C14.6738 11.2157 17.3518 11.3833 20.0303 11.7185L20.6931 11.8064L20.6926 11.8765C20.6655 12.8171 20.4612 15.1511 20.3066 16.6995L20.2021 17.6852L20.0359 17.6991L19.8623 17.7083L19.6919 17.713C19.4084 17.7177 19.1304 17.7061 18.8958 17.6832L18.8533 17.6783L18.8535 16.1265L5.02124 16.1265L5.02075 17.6783L4.97681 17.684C4.69751 17.7106 4.35303 17.7219 4.01221 17.7083L3.83887 17.6991L3.68579 17.6869L3.59521 16.5544C3.4895 15.1562 3.35913 13.2074 3.31787 12.187L3.30664 11.8508L3.33325 11.8013L3.96118 11.7185ZM7.21143 13.8573L5.38623 13.6407C5.16211 13.6407 4.98047 13.8346 4.98047 14.0739L4.98047 14.7235L4.98706 14.8014C5.02148 15.0034 5.18701 15.1566 5.38623 15.1566L7.21143 15.1566L7.28418 15.1497C7.47339 15.113 7.61694 14.9362 7.61694 14.7235L7.61694 14.2904L7.61035 14.2125C7.57617 14.0105 7.4104 13.8573 7.21143 13.8573ZM18.645 13.6407C18.8689 13.6407 19.0505 13.8346 19.0505 14.0739L19.0505 14.7235C19.0505 14.9628 18.8689 15.1566 18.645 15.1566L16.8198 15.1566C16.5957 15.1566 16.4141 14.9628 16.4141 14.7235L16.4141 14.2904C16.4141 14.0511 16.5957 13.8573 16.8198 13.8573L18.645 13.6407ZM15.0959 14.074C15.3386 14.074 15.5354 14.2678 15.5354 14.5071C15.5354 14.7463 15.3386 14.9402 15.0959 14.9402L8.9353 14.9402C8.69263 14.9402 8.49585 14.7463 8.49585 14.5071C8.49585 14.2678 8.69263 14.074 8.9353 14.074L15.0959 14.074Z" clip-rule="evenodd" fill="#000000" fill-opacity="0.901961" fill-rule="evenodd"/>
</svg>
