<svg width="10.800049" height="9.000000" viewBox="0 0 10.8 9" fill="none" xmlns="http://www.w3.org/2000/svg" xmlns:xlink="http://www.w3.org/1999/xlink">
	<desc>
			Created with Pixso.
	</desc>
	<defs/>
	<path id="path-1" d="M0.9 0.92C2.04 -0.18 3.82 -0.3 5.11 0.56C5.26 0.67 5.41 0.78 5.55 0.92L5.48 0.86C5.49 0.86 5.5 0.87 5.51 0.88L5.55 0.92C5.6 0.97 5.65 1.01 5.7 1.06C5.77 1.13 5.85 1.2 5.92 1.27L5.98 1.33C6.2 1.55 6.38 1.73 6.51 1.87C6.64 2.01 6.63 2.23 6.48 2.36C6.33 2.49 6.1 2.48 5.96 2.33L5.89 2.26C5.7 2.06 5.41 1.77 5.03 1.41L4.94 1.33C3.94 0.46 2.38 0.48 1.41 1.41C0.47 2.31 0.52 3.74 1.44 4.92C1.74 5.31 2.22 5.81 2.84 6.38L2.84 6.38L2.86 6.4C3.14 6.66 3.66 7.1 4.42 7.72L4.42 7.72L4.92 8.13C5.2 8.35 5.59 8.35 5.87 8.13L5.87 8.13L6.33 7.76C7.07 7.15 7.59 6.71 7.89 6.44L7.89 6.44L8.02 6.32C8.6 5.78 9.06 5.3 9.35 4.92C10.27 3.74 10.32 2.31 9.38 1.41C8.55 0.62 7.3 0.48 6.32 1C6.18 0.87 6.04 0.73 5.89 0.59C5.86 0.56 5.83 0.52 5.79 0.49C7.06 -0.29 8.78 -0.15 9.89 0.92C11.11 2.08 11.06 3.91 9.94 5.34L9.94 5.34L9.9 5.38C9.56 5.81 9.05 6.34 8.4 6.95L8.4 6.95L8.37 6.97C8.05 7.26 7.49 7.73 6.7 8.37L6.7 8.37L6.34 8.67C5.79 9.11 5 9.1 4.45 8.66C3.43 7.84 2.74 7.26 2.37 6.92L2.37 6.92L2.26 6.82C1.65 6.25 1.17 5.75 0.85 5.34C-0.27 3.91 -0.32 2.08 0.9 0.92Z" fill="#000000" fill-opacity="1.000000" fill-rule="evenodd"/>
</svg>
