<svg width="24.000000" height="24.000000" viewBox="0 0 24 24" fill="none" xmlns="http://www.w3.org/2000/svg" xmlns:xlink="http://www.w3.org/1999/xlink">
	<desc>
			Created with Pixso.
	</desc>
	<defs>
		<clipPath id="clip31_1641">
			<rect id="calendar_and_pencil" width="24.000000" height="24.000000" fill="white" fill-opacity="0"/>
		</clipPath>
	</defs>
	<g clip-path="url(#clip31_1641)">
		<g opacity="0.000000">
			<rect id="rect" width="24.000000" height="24.000000" fill="#000000" fill-opacity="1.000000"/>
		</g>
		<mask id="mask31_1644" mask-type="alpha" maskUnits="userSpaceOnUse" x="0.000000" y="0.000000" width="25.292969" height="24.000000">
			<rect id="rect" width="24.000000" height="24.000000" fill="#FFFFFF" fill-opacity="1.000000"/>
			<path id="path" d="M24.62 7.62C24.33 7.34 23.99 7.14 23.6 7.03C23.21 6.93 22.82 6.93 22.44 7.03C22.05 7.14 21.71 7.34 21.43 7.62L13.97 15.04C13.81 15.2 13.69 15.35 13.61 15.49L12.24 17.89C12.11 18.15 12.05 18.41 12.05 18.67C12.05 18.94 12.12 19.19 12.26 19.41C12.47 19.75 12.77 19.97 13.15 20.07C13.53 20.17 13.89 20.14 14.23 19.96L16.7 18.57L16.97 18.4C16.99 18.38 17.11 18.27 17.16 18.23L24.62 10.81C24.92 10.51 25.12 10.17 25.22 9.77C25.32 9.38 25.31 8.99 25.21 8.61C25.11 8.23 24.91 7.9 24.62 7.62Z" fill="#000000" fill-opacity="1.000000" fill-rule="nonzero"/>
		</mask>
		<g mask="url(#mask31_1644)">
			<path id="path" d="M17.23 3.04L17.23 2.44C17.23 2.26 17.18 2.1 17.1 1.95C17.01 1.8 16.89 1.68 16.74 1.59C16.58 1.5 16.42 1.45 16.25 1.45C16.07 1.45 15.89 1.5 15.74 1.59C15.58 1.68 15.45 1.8 15.36 1.95C15.28 2.1 15.24 2.26 15.24 2.44L15.24 3.04L8.73 3.04L8.73 2.44C8.73 2.26 8.69 2.1 8.6 1.95C8.51 1.8 8.39 1.68 8.23 1.59C8.09 1.5 7.92 1.45 7.75 1.45C7.57 1.45 7.4 1.5 7.25 1.59C7.09 1.68 6.96 1.8 6.87 1.95C6.78 2.1 6.73 2.26 6.73 2.44L6.73 3.04L5.97 3.04C5.3 3.04 4.67 3.21 4.1 3.54C3.52 3.88 3.07 4.34 2.73 4.91C2.39 5.49 2.22 6.11 2.22 6.78L2.22 18.79C2.22 19.46 2.39 20.08 2.73 20.66C3.07 21.24 3.52 21.69 4.1 22.03C4.67 22.36 5.31 22.54 6 22.54L17.98 22.54C18.64 22.54 19.27 22.36 19.85 22.03C20.42 21.69 20.87 21.24 21.22 20.66C21.55 20.08 21.72 19.46 21.72 18.79L21.72 6.78C21.72 6.11 21.55 5.49 21.22 4.91C20.87 4.34 20.42 3.88 19.85 3.54C19.27 3.21 18.64 3.04 17.98 3.04L17.23 3.04ZM20.23 18.77C20.23 19.39 20.01 19.92 19.57 20.36C19.12 20.8 18.6 21.02 17.98 21.02L6 21.02C5.37 21.02 4.84 20.8 4.39 20.36C3.95 19.92 3.73 19.39 3.73 18.77L3.73 6.78C3.73 6.16 3.95 5.63 4.39 5.19C4.84 4.75 5.37 4.53 6 4.53L6.73 4.53L6.73 5.1C6.73 5.38 6.84 5.61 7.04 5.81C7.23 6.01 7.47 6.11 7.75 6.11C8.02 6.11 8.26 6.01 8.45 5.81C8.65 5.61 8.76 5.38 8.76 5.1L8.76 4.53L15.24 4.53L15.24 5.1C15.24 5.38 15.34 5.61 15.54 5.81C15.74 6.01 15.97 6.11 16.25 6.11C16.52 6.11 16.76 6.01 16.95 5.81C17.15 5.61 17.26 5.38 17.26 5.1L17.26 4.53L18 4.53C18.6 4.53 19.12 4.75 19.57 5.19C20.01 5.63 20.23 6.16 20.23 6.78L20.23 18.77ZM12.24 10.3C12.44 10.3 12.62 10.22 12.78 10.06C12.93 9.91 13.01 9.73 13.01 9.52C13.01 9.32 12.93 9.14 12.78 8.99C12.62 8.85 12.44 8.77 12.24 8.77L6.73 8.77C6.53 8.77 6.35 8.85 6.21 8.99C6.07 9.14 6 9.32 6 9.52C6 9.73 6.07 9.91 6.21 10.06C6.35 10.22 6.53 10.3 6.73 10.3L12.24 10.3ZM9.23 14.28C9.44 14.28 9.62 14.2 9.77 14.05C9.9 13.92 9.97 13.74 9.97 13.54C9.97 13.32 9.9 13.15 9.77 13C9.62 12.86 9.44 12.79 9.23 12.79L6.73 12.79C6.53 12.79 6.35 12.86 6.21 13C6.07 13.15 6 13.32 6 13.54C6 13.74 6.07 13.92 6.21 14.05C6.35 14.2 6.53 14.28 6.73 14.28L9.23 14.28Z" fill="#000000" fill-opacity="0.600000" fill-rule="nonzero"/>
		</g>
		<path id="path" d="M14.89 15.72C14.83 15.8 14.77 15.88 14.71 15.98C14.64 16.09 14.57 16.2 14.5 16.32L13.33 18.36C13.29 18.45 13.29 18.54 13.32 18.64C13.36 18.72 13.43 18.79 13.52 18.83C13.61 18.87 13.7 18.86 13.8 18.82L15.83 17.66C16.04 17.52 16.24 17.38 16.43 17.26L14.89 15.72ZM23.92 8.23C23.68 7.99 23.39 7.87 23.06 7.87C22.72 7.87 22.43 7.99 22.2 8.23L15.59 14.83C15.5 14.94 15.4 15.06 15.29 15.19L16.96 16.87C17.09 16.75 17.21 16.65 17.32 16.56L23.92 9.96C24.16 9.72 24.29 9.43 24.29 9.1C24.29 8.76 24.16 8.47 23.92 8.23Z" fill="#000000" fill-opacity="0.600000" fill-rule="nonzero"/>
	</g>
</svg>
