<svg width="12.000000" height="12.000000" viewBox="0 0 12 12" fill="none" xmlns="http://www.w3.org/2000/svg" xmlns:xlink="http://www.w3.org/1999/xlink">
	<desc>
			Created with Pixso.
	</desc>
	<defs/>
	<path id="path-1" d="M6 0C9.31372 0 12 2.68628 12 6C12 9.31372 9.31372 12 6 12C2.68628 12 0 9.31372 0 6C0 2.68628 2.68628 0 6 0ZM6 0.818237C3.13818 0.818237 0.818115 3.13818 0.818115 6C0.818115 8.86182 3.13818 11.1818 6 11.1818C8.86182 11.1818 11.1819 8.86182 11.1819 6C11.1819 3.13818 8.86182 0.818237 6 0.818237ZM9.39136 4.77173C9.53442 4.61108 9.52881 4.36475 9.37476 4.21069C9.21509 4.05103 8.95605 4.05103 8.79639 4.21069L5.7439 7.26318L5.72632 7.27966C5.56567 7.42273 5.31934 7.41724 5.16528 7.26318L3.47656 5.57434L3.45898 5.55786C3.29834 5.41479 3.052 5.42029 2.89795 5.57434C2.8252 5.64697 2.78564 5.74011 2.77905 5.83508L2.77905 5.89221L2.78711 5.94885C2.80273 6.02356 2.83984 6.09485 2.89795 6.15295L4.77954 8.03455L4.80322 8.05737C5.17749 8.40723 5.7644 8.39954 6.12939 8.03455L9.37476 4.78931L9.39136 4.77173Z" clip-rule="evenodd" fill="#000000" fill-opacity="1.000000" fill-rule="evenodd"/>
</svg>
