<svg width="12.000000" height="12.073120" viewBox="0 0 12 12.0731" fill="none" xmlns="http://www.w3.org/2000/svg" xmlns:xlink="http://www.w3.org/1999/xlink">
	<desc>
			Created with Pixso.
	</desc>
	<defs/>
	<path id="uxs-a" d="M5.56104 0.202637C5.56104 0.0906982 5.46924 0 5.35596 0L3.71704 0C3.67065 0 3.62549 0.015625 3.58911 0.0444336C3.50073 0.11438 3.48633 0.241821 3.55713 0.329224L4.37646 1.34229C4.38599 1.354 4.39673 1.36462 4.40869 1.37402C4.49707 1.44385 4.62598 1.42969 4.69653 1.34229L5.51611 0.329224C5.54517 0.293335 5.56104 0.248657 5.56104 0.202637ZM3.10205 0.697388C3.02002 0.596069 2.96729 0.480713 2.9436 0.360718C1.22388 1.00586 0 2.66492 0 4.60974C0 6.13367 0.751465 7.48218 1.90405 8.30481L1.90234 8.21619C1.90234 7.88171 1.93286 7.55444 1.99121 7.23767C1.40381 6.66858 1.00635 5.90405 0.904053 5.04907L1.31714 5.04883L1.37671 5.0448C1.59082 5.01575 1.7561 4.83203 1.7561 4.60974C1.7561 4.36731 1.55957 4.17078 1.31714 4.17078L0.904053 4.17102C0.985596 3.48962 1.25415 2.86572 1.65723 2.35242L1.94971 2.64368C2.12109 2.81506 2.39893 2.81506 2.57056 2.64368C2.74194 2.47217 2.74194 2.19421 2.57056 2.02283L2.2793 1.73047C2.6228 1.46069 3.01611 1.2511 3.44287 1.11755L3.10205 0.697388ZM6.13013 0.361816C7.3772 0.828735 8.36401 1.83032 8.81152 3.08789C8.47388 2.98438 8.12231 2.91321 7.76001 2.87842C7.6604 2.69275 7.54492 2.51685 7.41577 2.35242L7.12354 2.64368C6.95215 2.81506 6.67407 2.81506 6.50269 2.64368C6.34692 2.48779 6.33276 2.2439 6.46021 2.07202L6.50269 2.02283L6.79395 1.73047C6.4502 1.46069 6.05713 1.2511 5.63037 1.11755L5.97119 0.697388C6.05054 0.599243 6.10474 0.484009 6.13013 0.361816ZM4.29419 3.74463L3.70898 3.15991C3.5376 2.9884 3.25952 2.9884 3.08813 3.15991C2.91675 3.3313 2.91675 3.60925 3.08813 3.78076L3.60132 4.29395C3.81641 4.09241 4.04834 3.90857 4.29419 3.74463ZM7.2439 3.43896C9.87109 3.43896 12 5.57825 12 8.21619C12 9.33923 11.6121 10.403 10.918 11.2499L10.7793 11.4115L10.6897 11.5026L10.6418 11.549C10.3196 11.8574 9.8999 12.0409 9.45752 12.0693L9.33618 12.0731L5.15161 12.0731C4.70679 12.0731 4.27783 11.9163 3.93896 11.6322L3.82397 11.5278L3.7019 11.4043C2.92505 10.5342 2.48779 9.40869 2.48779 8.21619C2.48779 5.57825 4.6167 3.43896 7.2439 3.43896ZM7.2439 4.31702C5.25049 4.31702 3.60767 5.82947 3.39038 7.77612C3.51929 7.69373 3.66431 7.63782 3.81714 7.61169C4.39941 7.51245 4.97363 7.43738 5.54004 7.38635L5.96265 7.35217C6.04028 7.2533 6.15259 7.1875 6.27759 7.1698C6.59033 7.12549 6.90967 7.10156 7.23511 7.0979C7.56299 7.09436 7.89111 7.11719 8.21997 7.16638C8.34277 7.18481 8.45239 7.24927 8.52808 7.34497C9.24414 7.39172 9.96045 7.47925 10.6765 7.60791C10.8271 7.63501 10.9697 7.69104 11.0969 7.77173C10.8782 5.82764 9.23608 4.31702 7.2439 4.31702ZM11.3401 8.55884C11.2788 8.56921 11.2178 8.57935 11.1572 8.58923L11.3401 8.55884ZM11.1572 8.58923C10.387 8.71594 9.68164 8.81091 9.04053 8.87427L8.59351 9.75903C8.51123 9.92175 8.34424 10.0244 8.16187 10.0244L6.33301 10.0244C6.15503 10.0244 5.99146 9.92664 5.90698 9.77002L5.41772 8.86121C4.80225 8.79883 4.12476 8.70972 3.38525 8.59363L3.40283 8.75757C3.50122 9.46875 3.79175 10.132 4.24121 10.6838L4.35693 10.8195L4.45459 10.9161C4.61914 11.0729 4.83057 11.1689 5.05493 11.1904L5.15161 11.1951L9.33618 11.1951C9.56396 11.1951 9.78394 11.1182 9.96118 10.9785L10.0347 10.9148L10.1301 10.8201L10.1831 10.76C10.7034 10.1531 11.0256 9.40283 11.1035 8.59827L11.1572 8.58923Z" clip-rule="evenodd" fill="#000000" fill-opacity="1.000000" fill-rule="evenodd"/>
</svg>
