<svg width="12.000000" height="8.000000" viewBox="0 0 12 8" fill="none" xmlns="http://www.w3.org/2000/svg" xmlns:xlink="http://www.w3.org/1999/xlink">
	<desc>
			Created with Pixso.
	</desc>
	<defs/>
	<path id="path-1" d="M6.00024 0C8.37012 0 10.7217 1.48181 11.9324 3.70654C12.0225 3.87207 12.0225 4.07263 11.9324 4.23816C10.7224 6.46167 8.37939 8 6.0083 8C3.63867 8 1.2793 6.46008 0.067627 4.23511C-0.0224609 4.06946 -0.0224609 3.86877 0.067627 3.70325C1.27856 1.47974 3.62964 0 6.00024 0ZM6.00024 1.06665L6.06299 1.06714C7.90039 1.09204 9.7627 2.20972 10.8228 3.91943L10.8552 3.97241L10.8228 4.026C9.99561 5.3656 8.69385 6.3551 7.30713 6.74768C8.19946 6.27954 8.80811 5.34424 8.80811 4.26672C8.80811 2.72021 7.55444 1.46667 6.00806 1.46667C5.77856 1.46667 5.55542 1.49426 5.3418 1.54639C5.28174 1.56104 5.22217 1.57776 5.16382 1.59619C5.04199 1.63464 5.05225 1.76599 5.16382 1.80542C5.65576 1.97937 6.00806 2.44849 6.00806 3L6.00806 3.1333L6.00757 3.16943C5.98853 3.85229 5.42896 4.40002 4.74146 4.40002C4.15063 4.40002 3.6543 3.99561 3.51416 3.44849C3.48853 3.34778 3.37012 3.31641 3.33081 3.44446C3.25098 3.70447 3.20801 3.98059 3.20801 4.26672C3.20801 5.34375 3.81616 6.27881 4.70801 6.74756C3.31592 6.354 2.00537 5.36157 1.17725 4.02246L1.14478 3.96924L1.17725 3.91663C2.24927 2.18872 4.14136 1.06665 6.00024 1.06665Z" clip-rule="evenodd" fill="#000000" fill-opacity="1.000000" fill-rule="evenodd"/>
</svg>
