<svg width="32.873047" height="27.739563" viewBox="0 0 32.873 27.7396" fill="none" xmlns="http://www.w3.org/2000/svg" xmlns:xlink="http://www.w3.org/1999/xlink">
	<desc>
			Created with Pixso.
	</desc>
	<defs>
		<filter id="filter_6_1080_dd" x="0.000000" y="13.816345" width="32.873047" height="13.923218" filterUnits="userSpaceOnUse" color-interpolation-filters="sRGB">
			<feFlood flood-opacity="0" result="BackgroundImageFix"/>
			<feBlend mode="normal" in="SourceGraphic" in2="BackgroundImageFix" result="shape"/>
			<feGaussianBlur stdDeviation="1.81219" result="effect_layerBlur_1"/>
		</filter>
		<filter id="filter_6_1090_dd" x="4.436523" y="0.000061" width="21.855225" height="18.415649" filterUnits="userSpaceOnUse" color-interpolation-filters="sRGB">
			<feFlood flood-opacity="0" result="BackgroundImageFix"/>
			<feGaussianBlur in="BackgroundImage" stdDeviation="0.906093"/>
			<feComposite in2="SourceAlpha" operator="in" result="effect_backgroundBlur_1"/>
			<feBlend mode="normal" in="SourceGraphic" in2="effect_backgroundBlur_1" result="shape"/>
		</filter>
		<filter id="filter_6_1095_dd" x="4.436279" y="0.000000" width="21.855225" height="18.415649" filterUnits="userSpaceOnUse" color-interpolation-filters="sRGB">
			<feFlood flood-opacity="0" result="BackgroundImageFix"/>
			<feGaussianBlur in="BackgroundImage" stdDeviation="11.7792"/>
			<feComposite in2="SourceAlpha" operator="in" result="effect_backgroundBlur_1"/>
			<feBlend mode="normal" in="SourceGraphic" in2="effect_backgroundBlur_1" result="shape"/>
		</filter>
		<linearGradient x1="27.436523" y1="20.239967" x2="5.436523" y2="20.239967" id="paint_linear_6_1080_0" gradientUnits="userSpaceOnUse">
			<stop stop-color="#0A59F7"/>
			<stop offset="1.000000" stop-color="#0A59F7"/>
		</linearGradient>
		<linearGradient x1="16.436525" y1="20.447762" x2="16.436525" y2="22.302979" id="paint_linear_6_1080_1" gradientUnits="userSpaceOnUse">
			<stop stop-color="#FFFFFF" stop-opacity="0.000000"/>
			<stop offset="1.000000" stop-color="#FFFFFF" stop-opacity="0.458824"/>
		</linearGradient>
		<linearGradient x1="31.436523" y1="6.480909" x2="12.436523" y2="6.480909" id="paint_linear_6_1085_0" gradientUnits="userSpaceOnUse">
			<stop stop-color="#2F6BD6"/>
			<stop offset="0.470277" stop-color="#76A0F9"/>
			<stop offset="1.000000" stop-color="#3370E5"/>
		</linearGradient>
		<linearGradient x1="21.936527" y1="7.570971" x2="21.936527" y2="17.303101" id="paint_linear_6_1085_1" gradientUnits="userSpaceOnUse">
			<stop stop-color="#FFFFFF" stop-opacity="0.000000"/>
			<stop offset="1.000000" stop-color="#FFFFFF" stop-opacity="0.458824"/>
		</linearGradient>
		<linearGradient x1="26.291674" y1="5.959599" x2="4.436522" y2="5.959599" id="paint_linear_6_1090_0" gradientUnits="userSpaceOnUse">
			<stop stop-color="#2F6BD6"/>
			<stop offset="0.470277" stop-color="#76A0F9"/>
			<stop offset="1.000000" stop-color="#3370E5"/>
		</linearGradient>
		<linearGradient x1="15.364100" y1="7.214234" x2="15.364100" y2="18.415689" id="paint_linear_6_1090_1" gradientUnits="userSpaceOnUse">
			<stop stop-color="#FFFFFF" stop-opacity="0.000000"/>
			<stop offset="1.000000" stop-color="#FFFFFF" stop-opacity="0.458824"/>
		</linearGradient>
		<linearGradient x1="26.291430" y1="5.959538" x2="4.436277" y2="5.959538" id="paint_linear_6_1095_0" gradientUnits="userSpaceOnUse">
			<stop stop-color="#0A59F7"/>
			<stop offset="1.000000" stop-color="#0A59F7"/>
		</linearGradient>
		<linearGradient x1="15.363853" y1="7.214172" x2="10.239157" y2="18.415628" id="paint_linear_6_1095_1" gradientUnits="userSpaceOnUse">
			<stop stop-color="#FFFFFF" stop-opacity="0.000000"/>
			<stop offset="1.000000" stop-color="#FFFFFF" stop-opacity="0.458824"/>
		</linearGradient>
	</defs>
	<g opacity="0.643511" filter="url(#filter_6_1080_dd)">
		<path id="形状备份 2" d="M23.1292 19.2879C22.6211 19.2658 21.8701 19.2529 21.0745 19.2529L11.7573 19.2529L11.5713 19.2532C10.769 19.2552 10.03 19.2703 9.56299 19.2945C9.14673 19.3161 8.77124 19.3356 8.43652 19.3529L23.5894 19.3529L24.6096 19.5936L8.11182 19.5938C6.69727 19.9403 5.98975 20.1151 5.98975 20.1179C4.74487 20.38 5.98975 20.519 5.98975 20.519C5.98975 20.519 7.73975 20.8363 9.72632 21.1962L10.1011 21.2641C10.2896 21.2982 10.4792 21.3326 10.6689 21.3669L11.1523 21.4545C13.3201 21.847 15.3479 22.2137 15.3481 22.2121C16.3989 22.402 17.4688 22.2392 17.6162 22.215L17.6335 22.2121C17.6335 22.2121 19.6785 21.8452 21.8643 21.4524L22.3516 21.3648L22.7339 21.2961C24.959 20.8961 27.0698 20.5159 27.0698 20.5132C27.9897 20.3259 26.8892 20.1312 26.8892 20.1312L23.5894 19.3529L24.4365 19.3529L23.2419 19.2932L23.1292 19.2879ZM16.2178 21.353L16.4365 21.253L15.6553 21.253L15.4365 21.353L16.2178 21.353Z" clip-rule="evenodd" fill="url(#paint_linear_6_1080_0)" fill-opacity="1.000000" fill-rule="evenodd"/>
		<path id="形状备份 2" d="M23.1292 19.2879C22.6211 19.2658 21.8701 19.2529 21.0745 19.2529L11.7573 19.2529L11.5713 19.2532C10.769 19.2552 10.03 19.2703 9.56299 19.2945C9.14673 19.3161 8.77124 19.3356 8.43652 19.3529L23.5894 19.3529L24.6096 19.5936L8.11182 19.5938C6.69727 19.9403 5.98975 20.1151 5.98975 20.1179C4.74487 20.38 5.98975 20.519 5.98975 20.519C5.98975 20.519 7.73975 20.8363 9.72632 21.1962L10.1011 21.2641C10.2896 21.2982 10.4792 21.3326 10.6689 21.3669L11.1523 21.4545C13.3201 21.847 15.3479 22.2137 15.3481 22.2121C16.3989 22.402 17.4688 22.2392 17.6162 22.215L17.6335 22.2121C17.6335 22.2121 19.6785 21.8452 21.8643 21.4524L22.3516 21.3648L22.7339 21.2961C24.959 20.8961 27.0698 20.5159 27.0698 20.5132C27.9897 20.3259 26.8892 20.1312 26.8892 20.1312L23.5894 19.3529L24.4365 19.3529L23.2419 19.2932L23.1292 19.2879ZM16.2178 21.353L16.4365 21.253L15.6553 21.253L15.4365 21.353L16.2178 21.353Z" clip-rule="evenodd" fill="url(#paint_linear_6_1080_1)" fill-opacity="0.000000" fill-rule="evenodd"/>
		<path id="形状备份 2" d="M23.1292 19.2879C22.6211 19.2658 21.8701 19.2529 21.0745 19.2529L11.7573 19.2529L11.5713 19.2532C10.769 19.2552 10.03 19.2703 9.56299 19.2945C9.14673 19.3161 8.77124 19.3356 8.43652 19.3529L23.5894 19.3529L24.6096 19.5936L8.11182 19.5938C6.69727 19.9403 5.98975 20.1151 5.98975 20.1179C4.74487 20.38 5.98975 20.519 5.98975 20.519C5.98975 20.519 7.73975 20.8363 9.72632 21.1962L10.1011 21.2641C10.2896 21.2982 10.4792 21.3326 10.6689 21.3669L11.1523 21.4545C13.3201 21.847 15.3479 22.2137 15.3481 22.2121C16.3989 22.402 17.4688 22.2392 17.6162 22.215L17.6335 22.2121C17.6335 22.2121 19.6785 21.8452 21.8643 21.4524L22.3516 21.3648L22.7339 21.2961C24.959 20.8961 27.0698 20.5159 27.0698 20.5132C27.9897 20.3259 26.8892 20.1312 26.8892 20.1312L23.5894 19.3529L24.4365 19.3529L23.2419 19.2932L23.1292 19.2879ZM16.2178 21.353L16.4365 21.253L15.6553 21.253L15.4365 21.353L16.2178 21.353Z" clip-rule="evenodd" fill="#6EA7ED" fill-opacity="0.000000" fill-rule="evenodd"/>
	</g>
	<g opacity="0.347826">
		<path id="形状备份" d="M28.2109 2.35181C27.7346 1.68958 27.0305 1.3031 26.2847 1.3031L17.5498 1.3031L17.3752 1.31018C16.6233 1.37115 15.9304 1.8241 15.4927 2.55029C15.2334 2.98047 14.9907 3.38281 14.7651 3.75732L14.7471 3.75732C13.5251 5.48987 12.9143 6.36334 12.9143 6.37775C11.8394 7.68829 12.9143 8.38306 12.9143 8.38306C12.9143 8.38306 14.4258 9.9696 16.1414 11.769L16.4651 12.1086C16.6279 12.2792 16.7917 12.451 16.9556 12.6229L17.3728 13.0605C19.2429 15.0209 20.9922 16.8527 20.9966 16.8486L20.9966 16.8486C21.9041 17.7982 22.8281 16.9843 22.9553 16.8631L22.9702 16.8486C22.9702 16.8486 24.7363 15.014 26.6243 13.0501L27.0452 12.6122L27.3752 12.2687C29.2969 10.2688 31.1199 8.36786 31.1199 8.35425C31.9143 7.41791 30.9639 6.44409 30.9639 6.44409L29.3948 4.30157L29.4365 4.30157L28.3167 2.50952L28.2109 2.35181ZM22.2178 10.3031L22.4365 8.3031L21.6553 8.3031L21.4365 10.3031L22.2178 10.3031Z" clip-rule="evenodd" fill="url(#paint_linear_6_1085_0)" fill-opacity="0.000000" fill-rule="evenodd"/>
		<path id="形状备份" d="M28.2109 2.35181C27.7346 1.68958 27.0305 1.3031 26.2847 1.3031L17.5498 1.3031L17.3752 1.31018C16.6233 1.37115 15.9304 1.8241 15.4927 2.55029C15.2334 2.98047 14.9907 3.38281 14.7651 3.75732L14.7471 3.75732C13.5251 5.48987 12.9143 6.36334 12.9143 6.37775C11.8394 7.68829 12.9143 8.38306 12.9143 8.38306C12.9143 8.38306 14.4258 9.9696 16.1414 11.769L16.4651 12.1086C16.6279 12.2792 16.7917 12.451 16.9556 12.6229L17.3728 13.0605C19.2429 15.0209 20.9922 16.8527 20.9966 16.8486L20.9966 16.8486C21.9041 17.7982 22.8281 16.9843 22.9553 16.8631L22.9702 16.8486C22.9702 16.8486 24.7363 15.014 26.6243 13.0501L27.0452 12.6122L27.3752 12.2687C29.2969 10.2688 31.1199 8.36786 31.1199 8.35425C31.9143 7.41791 30.9639 6.44409 30.9639 6.44409L29.3948 4.30157L29.4365 4.30157L28.3167 2.50952L28.2109 2.35181ZM22.2178 10.3031L22.4365 8.3031L21.6553 8.3031L21.4365 10.3031L22.2178 10.3031Z" clip-rule="evenodd" fill="url(#paint_linear_6_1085_1)" fill-opacity="0.000000" fill-rule="evenodd"/>
		<path id="形状备份" d="M28.2109 2.35181C27.7346 1.68958 27.0305 1.3031 26.2847 1.3031L17.5498 1.3031L17.3752 1.31018C16.6233 1.37115 15.9304 1.8241 15.4927 2.55029C15.2334 2.98047 14.9907 3.38281 14.7651 3.75732L14.7471 3.75732C13.5251 5.48987 12.9143 6.36334 12.9143 6.37775C11.8394 7.68829 12.9143 8.38306 12.9143 8.38306C12.9143 8.38306 14.4258 9.9696 16.1414 11.769L16.4651 12.1086C16.6279 12.2792 16.7917 12.451 16.9556 12.6229L17.3728 13.0605C19.2429 15.0209 20.9922 16.8527 20.9966 16.8486L20.9966 16.8486C21.9041 17.7982 22.8281 16.9843 22.9553 16.8631L22.9702 16.8486C22.9702 16.8486 24.7363 15.014 26.6243 13.0501L27.0452 12.6122L27.3752 12.2687C29.2969 10.2688 31.1199 8.36786 31.1199 8.35425C31.9143 7.41791 30.9639 6.44409 30.9639 6.44409L29.3948 4.30157L29.4365 4.30157L28.3167 2.50952L28.2109 2.35181ZM22.2178 10.3031L22.4365 8.3031L21.6553 8.3031L21.4365 10.3031L22.2178 10.3031Z" clip-rule="evenodd" fill="#0A59F7" fill-opacity="1.000000" fill-rule="evenodd"/>
	</g>
	<g opacity="0.841278" filter="url(#filter_6_1090_dd)">
		<path id="形状" d="M22.1443 0.980042C21.624 0.361206 20.8545 6.10352e-05 20.0396 6.10352e-05L10.4958 6.10352e-05L10.3054 0.00665283C9.48364 0.0636597 8.72681 0.486938 8.24829 1.16553C7.82178 1.77045 7.43726 2.31641 7.09448 2.80347L7.09424 2.80347C5.68896 4.80029 4.98608 5.80701 4.98608 5.82361C3.74951 7.33417 4.98608 8.13489 4.98608 8.13489C4.98608 8.13489 6.72461 9.96344 8.698 12.0374L9.07031 12.4287C9.25757 12.6254 9.44604 12.8235 9.63452 13.0215L10.1147 13.5258C12.2656 15.7854 14.2778 17.8966 14.283 17.8918L14.283 17.8918C15.3269 18.9863 16.3896 18.0482 16.5361 17.9086L16.5532 17.8918C16.5532 17.8918 18.5847 15.7774 20.7561 13.5139L21.2402 13.0092L21.6199 12.6133C23.8303 10.3083 25.9275 8.11737 25.9275 8.10168C26.8411 7.02246 25.7478 5.90009 25.7478 5.90009L22.5281 1.49438L22.2598 1.12738L22.1443 0.980042ZM15.7832 10.0883L16.0981 8.09637L14.9731 8.09637L14.6582 10.0883L15.7832 10.0883Z" clip-rule="evenodd" fill="url(#paint_linear_6_1090_0)" fill-opacity="0.000000" fill-rule="evenodd"/>
		<path id="形状" d="M22.1443 0.980042C21.624 0.361206 20.8545 6.10352e-05 20.0396 6.10352e-05L10.4958 6.10352e-05L10.3054 0.00665283C9.48364 0.0636597 8.72681 0.486938 8.24829 1.16553C7.82178 1.77045 7.43726 2.31641 7.09448 2.80347L7.09424 2.80347C5.68896 4.80029 4.98608 5.80701 4.98608 5.82361C3.74951 7.33417 4.98608 8.13489 4.98608 8.13489C4.98608 8.13489 6.72461 9.96344 8.698 12.0374L9.07031 12.4287C9.25757 12.6254 9.44604 12.8235 9.63452 13.0215L10.1147 13.5258C12.2656 15.7854 14.2778 17.8966 14.283 17.8918L14.283 17.8918C15.3269 18.9863 16.3896 18.0482 16.5361 17.9086L16.5532 17.8918C16.5532 17.8918 18.5847 15.7774 20.7561 13.5139L21.2402 13.0092L21.6199 12.6133C23.8303 10.3083 25.9275 8.11737 25.9275 8.10168C26.8411 7.02246 25.7478 5.90009 25.7478 5.90009L22.5281 1.49438L22.2598 1.12738L22.1443 0.980042ZM15.7832 10.0883L16.0981 8.09637L14.9731 8.09637L14.6582 10.0883L15.7832 10.0883Z" clip-rule="evenodd" fill="url(#paint_linear_6_1090_1)" fill-opacity="0.000000" fill-rule="evenodd"/>
		<path id="形状" d="M22.1443 0.980042C21.624 0.361206 20.8545 6.10352e-05 20.0396 6.10352e-05L10.4958 6.10352e-05L10.3054 0.00665283C9.48364 0.0636597 8.72681 0.486938 8.24829 1.16553C7.82178 1.77045 7.43726 2.31641 7.09448 2.80347L7.09424 2.80347C5.68896 4.80029 4.98608 5.80701 4.98608 5.82361C3.74951 7.33417 4.98608 8.13489 4.98608 8.13489C4.98608 8.13489 6.72461 9.96344 8.698 12.0374L9.07031 12.4287C9.25757 12.6254 9.44604 12.8235 9.63452 13.0215L10.1147 13.5258C12.2656 15.7854 14.2778 17.8966 14.283 17.8918L14.283 17.8918C15.3269 18.9863 16.3896 18.0482 16.5361 17.9086L16.5532 17.8918C16.5532 17.8918 18.5847 15.7774 20.7561 13.5139L21.2402 13.0092L21.6199 12.6133C23.8303 10.3083 25.9275 8.11737 25.9275 8.10168C26.8411 7.02246 25.7478 5.90009 25.7478 5.90009L22.5281 1.49438L22.2598 1.12738L22.1443 0.980042ZM15.7832 10.0883L16.0981 8.09637L14.9731 8.09637L14.6582 10.0883L15.7832 10.0883Z" clip-rule="evenodd" fill="#6EA7ED" fill-opacity="0.000000" fill-rule="evenodd"/>
		<path id="形状" d="M22.1443 0.980042C21.624 0.361206 20.8545 6.10352e-05 20.0396 6.10352e-05L10.4958 6.10352e-05L10.3054 0.00665283C9.48364 0.0636597 8.72681 0.486938 8.24829 1.16553C7.82178 1.77045 7.43726 2.31641 7.09448 2.80347L7.09424 2.80347C5.68896 4.80029 4.98608 5.80701 4.98608 5.82361C3.74951 7.33417 4.98608 8.13489 4.98608 8.13489C4.98608 8.13489 6.72461 9.96344 8.698 12.0374L9.07031 12.4287C9.25757 12.6254 9.44604 12.8235 9.63452 13.0215L10.1147 13.5258C12.2656 15.7854 14.2778 17.8966 14.283 17.8918L14.283 17.8918C15.3269 18.9863 16.3896 18.0482 16.5361 17.9086L16.5532 17.8918C16.5532 17.8918 18.5847 15.7774 20.7561 13.5139L21.2402 13.0092L21.6199 12.6133C23.8303 10.3083 25.9275 8.11737 25.9275 8.10168C26.8411 7.02246 25.7478 5.90009 25.7478 5.90009L22.5281 1.49438L22.2598 1.12738L22.1443 0.980042ZM15.7832 10.0883L16.0981 8.09637L14.9731 8.09637L14.6582 10.0883L15.7832 10.0883Z" clip-rule="evenodd" fill="#FFFFFF" fill-opacity="0.000000" fill-rule="evenodd"/>
	</g>
	<g opacity="0.603559" filter="url(#filter_6_1095_dd)">
		<path id="形状" d="M22.144 0.97998C21.6238 0.361145 20.8542 0 20.0393 0L10.4956 0L10.3052 0.0065918C9.4834 0.0635986 8.72656 0.486877 8.24805 1.16547C7.82153 1.77039 7.43701 2.31635 7.09424 2.80341L7.09399 2.80341C5.68872 4.80023 4.98584 5.80695 4.98584 5.82355C3.74927 7.33411 4.98584 8.13483 4.98584 8.13483C4.98584 8.13483 6.72437 9.96338 8.69775 12.0373L9.07007 12.4286C9.25732 12.6254 9.4458 12.8234 9.63428 13.0214L10.1145 13.5258C12.2654 15.7853 14.2776 17.8965 14.2827 17.8918L14.2827 17.8918C15.3267 18.9863 16.3894 18.0481 16.5359 17.9085L16.553 17.8918C16.553 17.8918 18.5845 15.7773 20.7559 13.5138L21.24 13.0092L21.6196 12.6133C23.8301 10.3082 25.9272 8.11731 25.9272 8.10162C26.8408 7.0224 25.7476 5.90002 25.7476 5.90002L22.5278 1.49432L22.2595 1.12732L22.144 0.97998ZM15.783 10.0883L16.0979 8.09631L14.9729 8.09631L14.658 10.0883L15.783 10.0883Z" clip-rule="evenodd" fill="url(#paint_linear_6_1095_0)" fill-opacity="1.000000" fill-rule="evenodd"/>
		<path id="形状" d="M22.144 0.97998C21.6238 0.361145 20.8542 0 20.0393 0L10.4956 0L10.3052 0.0065918C9.4834 0.0635986 8.72656 0.486877 8.24805 1.16547C7.82153 1.77039 7.43701 2.31635 7.09424 2.80341L7.09399 2.80341C5.68872 4.80023 4.98584 5.80695 4.98584 5.82355C3.74927 7.33411 4.98584 8.13483 4.98584 8.13483C4.98584 8.13483 6.72437 9.96338 8.69775 12.0373L9.07007 12.4286C9.25732 12.6254 9.4458 12.8234 9.63428 13.0214L10.1145 13.5258C12.2654 15.7853 14.2776 17.8965 14.2827 17.8918L14.2827 17.8918C15.3267 18.9863 16.3894 18.0481 16.5359 17.9085L16.553 17.8918C16.553 17.8918 18.5845 15.7773 20.7559 13.5138L21.24 13.0092L21.6196 12.6133C23.8301 10.3082 25.9272 8.11731 25.9272 8.10162C26.8408 7.0224 25.7476 5.90002 25.7476 5.90002L22.5278 1.49432L22.2595 1.12732L22.144 0.97998ZM15.783 10.0883L16.0979 8.09631L14.9729 8.09631L14.658 10.0883L15.783 10.0883Z" clip-rule="evenodd" fill="url(#paint_linear_6_1095_1)" fill-opacity="1.000000" fill-rule="evenodd"/>
		<path id="形状" d="M22.144 0.97998C21.6238 0.361145 20.8542 0 20.0393 0L10.4956 0L10.3052 0.0065918C9.4834 0.0635986 8.72656 0.486877 8.24805 1.16547C7.82153 1.77039 7.43701 2.31635 7.09424 2.80341L7.09399 2.80341C5.68872 4.80023 4.98584 5.80695 4.98584 5.82355C3.74927 7.33411 4.98584 8.13483 4.98584 8.13483C4.98584 8.13483 6.72437 9.96338 8.69775 12.0373L9.07007 12.4286C9.25732 12.6254 9.4458 12.8234 9.63428 13.0214L10.1145 13.5258C12.2654 15.7853 14.2776 17.8965 14.2827 17.8918L14.2827 17.8918C15.3267 18.9863 16.3894 18.0481 16.5359 17.9085L16.553 17.8918C16.553 17.8918 18.5845 15.7773 20.7559 13.5138L21.24 13.0092L21.6196 12.6133C23.8301 10.3082 25.9272 8.11731 25.9272 8.10162C26.8408 7.0224 25.7476 5.90002 25.7476 5.90002L22.5278 1.49432L22.2595 1.12732L22.144 0.97998ZM15.783 10.0883L16.0979 8.09631L14.9729 8.09631L14.658 10.0883L15.783 10.0883Z" clip-rule="evenodd" fill="#6EA7ED" fill-opacity="0.000000" fill-rule="evenodd"/>
	</g>
	<path id="路径 3" d="M11.15 9.3L15.49 13.64L19.43 9.2L11.15 9.3Z" fill="#D8D8D8" fill-opacity="0" fill-rule="evenodd"/>
	<path id="路径 3" d="M11.15 9.3L15.49 13.64L19.43 9.2" stroke="#FFFFFF" stroke-opacity="1.000000" stroke-width="1.500000"/>
</svg>
