<svg width="28.873047" height="30.936584" viewBox="0 0 28.873 30.9366" fill="none" xmlns="http://www.w3.org/2000/svg" xmlns:xlink="http://www.w3.org/1999/xlink">
	<desc>
			Created with Pixso.
	</desc>
	<defs>
		<filter id="filter_18_1639_dd" x="0.000000" y="17.013367" width="28.873047" height="13.923218" filterUnits="userSpaceOnUse" color-interpolation-filters="sRGB">
			<feFlood flood-opacity="0" result="BackgroundImageFix"/>
			<feBlend mode="normal" in="SourceGraphic" in2="BackgroundImageFix" result="shape"/>
			<feGaussianBlur stdDeviation="1.81219" result="effect_layerBlur_1"/>
		</filter>
		<linearGradient x1="23.436523" y1="23.436985" x2="5.436525" y2="23.436985" id="paint_linear_18_1639_0" gradientUnits="userSpaceOnUse">
			<stop stop-color="#0A59F7"/>
			<stop offset="1.000000" stop-color="#0A59F7"/>
		</linearGradient>
		<linearGradient x1="11.600273" y1="23.039562" x2="23.436522" y2="24.616486" id="paint_linear_18_1639_1" gradientUnits="userSpaceOnUse">
			<stop stop-color="#731CEA"/>
			<stop offset="0.430255" stop-color="#9C5CF3"/>
			<stop offset="1.000000" stop-color="#731CEA"/>
		</linearGradient>
		<linearGradient x1="14.436523" y1="23.644783" x2="14.436523" y2="25.500000" id="paint_linear_18_1639_2" gradientUnits="userSpaceOnUse">
			<stop stop-color="#FFFFFF" stop-opacity="0.000000"/>
			<stop offset="1.000000" stop-color="#FFFFFF" stop-opacity="0.458824"/>
		</linearGradient>
		<linearGradient x1="11.892611" y1="4.252882" x2="23.330084" y2="15.627214" id="paint_linear_18_1644_0" gradientUnits="userSpaceOnUse">
			<stop stop-color="#731CEA"/>
			<stop offset="0.430255" stop-color="#9C5CF3"/>
			<stop offset="1.000000" stop-color="#731CEA"/>
		</linearGradient>
	</defs>
	<g opacity="0.643511" filter="url(#filter_18_1639_dd)">
		<path id="形状备份 2" d="M19.3743 22.4849C18.9617 22.4628 18.3513 22.45 17.7048 22.45L10.1348 22.45L9.9834 22.4502C9.33179 22.4522 8.7312 22.4673 8.35181 22.4915C8.01367 22.5131 7.7085 22.5326 7.43652 22.5499L20.2888 22.5499L21.1235 22.7906L7.62549 22.7908C6.46802 23.1373 5.88916 23.3121 5.88916 23.3149C4.87061 23.577 5.88916 23.716 5.88916 23.716C5.88916 23.716 7.32104 24.0333 8.94629 24.3932L9.25293 24.4611C9.40723 24.4952 9.5625 24.5296 9.71753 24.564L10.113 24.6515C11.8867 25.044 13.5457 25.4108 13.5461 25.4091C14.4058 25.599 15.281 25.4362 15.4019 25.412L15.4158 25.4091C15.4158 25.4091 17.0889 25.0422 18.8774 24.6494L19.2761 24.5618L19.5889 24.4931C21.4094 24.0931 23.1365 23.713 23.1365 23.7102C23.8892 23.5229 22.9885 23.3282 22.9885 23.3282L20.2888 22.5499L20.4365 22.5499L20.2488 22.5383L20.1157 22.5L20.2488 22.5383L19.4661 22.4902L19.3743 22.4849ZM14.2178 24.55L14.4365 24.45L13.6553 24.45L13.4365 24.55L14.2178 24.55Z" clip-rule="evenodd" fill="url(#paint_linear_18_1639_0)" fill-opacity="0.000000" fill-rule="evenodd"/>
		<path id="形状备份 2" d="M19.3743 22.4849C18.9617 22.4628 18.3513 22.45 17.7048 22.45L10.1348 22.45L9.9834 22.4502C9.33179 22.4522 8.7312 22.4673 8.35181 22.4915C8.01367 22.5131 7.7085 22.5326 7.43652 22.5499L20.2888 22.5499L21.1235 22.7906L7.62549 22.7908C6.46802 23.1373 5.88916 23.3121 5.88916 23.3149C4.87061 23.577 5.88916 23.716 5.88916 23.716C5.88916 23.716 7.32104 24.0333 8.94629 24.3932L9.25293 24.4611C9.40723 24.4952 9.5625 24.5296 9.71753 24.564L10.113 24.6515C11.8867 25.044 13.5457 25.4108 13.5461 25.4091C14.4058 25.599 15.281 25.4362 15.4019 25.412L15.4158 25.4091C15.4158 25.4091 17.0889 25.0422 18.8774 24.6494L19.2761 24.5618L19.5889 24.4931C21.4094 24.0931 23.1365 23.713 23.1365 23.7102C23.8892 23.5229 22.9885 23.3282 22.9885 23.3282L20.2888 22.5499L20.4365 22.5499L20.2488 22.5383L20.1157 22.5L20.2488 22.5383L19.4661 22.4902L19.3743 22.4849ZM14.2178 24.55L14.4365 24.45L13.6553 24.45L13.4365 24.55L14.2178 24.55Z" clip-rule="evenodd" fill="url(#paint_linear_18_1639_1)" fill-opacity="1.000000" fill-rule="evenodd"/>
		<path id="形状备份 2" d="M19.3743 22.4849C18.9617 22.4628 18.3513 22.45 17.7048 22.45L10.1348 22.45L9.9834 22.4502C9.33179 22.4522 8.7312 22.4673 8.35181 22.4915C8.01367 22.5131 7.7085 22.5326 7.43652 22.5499L20.2888 22.5499L21.1235 22.7906L7.62549 22.7908C6.46802 23.1373 5.88916 23.3121 5.88916 23.3149C4.87061 23.577 5.88916 23.716 5.88916 23.716C5.88916 23.716 7.32104 24.0333 8.94629 24.3932L9.25293 24.4611C9.40723 24.4952 9.5625 24.5296 9.71753 24.564L10.113 24.6515C11.8867 25.044 13.5457 25.4108 13.5461 25.4091C14.4058 25.599 15.281 25.4362 15.4019 25.412L15.4158 25.4091C15.4158 25.4091 17.0889 25.0422 18.8774 24.6494L19.2761 24.5618L19.5889 24.4931C21.4094 24.0931 23.1365 23.713 23.1365 23.7102C23.8892 23.5229 22.9885 23.3282 22.9885 23.3282L20.2888 22.5499L20.4365 22.5499L20.2488 22.5383L20.1157 22.5L20.2488 22.5383L19.4661 22.4902L19.3743 22.4849ZM14.2178 24.55L14.4365 24.45L13.6553 24.45L13.4365 24.55L14.2178 24.55Z" clip-rule="evenodd" fill="url(#paint_linear_18_1639_2)" fill-opacity="0.000000" fill-rule="evenodd"/>
		<path id="形状备份 2" d="M19.3743 22.4849C18.9617 22.4628 18.3513 22.45 17.7048 22.45L10.1348 22.45L9.9834 22.4502C9.33179 22.4522 8.7312 22.4673 8.35181 22.4915C8.01367 22.5131 7.7085 22.5326 7.43652 22.5499L20.2888 22.5499L21.1235 22.7906L7.62549 22.7908C6.46802 23.1373 5.88916 23.3121 5.88916 23.3149C4.87061 23.577 5.88916 23.716 5.88916 23.716C5.88916 23.716 7.32104 24.0333 8.94629 24.3932L9.25293 24.4611C9.40723 24.4952 9.5625 24.5296 9.71753 24.564L10.113 24.6515C11.8867 25.044 13.5457 25.4108 13.5461 25.4091C14.4058 25.599 15.281 25.4362 15.4019 25.412L15.4158 25.4091C15.4158 25.4091 17.0889 25.0422 18.8774 24.6494L19.2761 24.5618L19.5889 24.4931C21.4094 24.0931 23.1365 23.713 23.1365 23.7102C23.8892 23.5229 22.9885 23.3282 22.9885 23.3282L20.2888 22.5499L20.4365 22.5499L20.2488 22.5383L20.1157 22.5L20.2488 22.5383L19.4661 22.4902L19.3743 22.4849ZM14.2178 24.55L14.4365 24.45L13.6553 24.45L13.4365 24.55L14.2178 24.55Z" clip-rule="evenodd" fill="#6EA7ED" fill-opacity="0.000000" fill-rule="evenodd"/>
	</g>
	<g opacity="0.597435">
		<path id="形状" d="M13.8022 0.237549C18.5059 4.23425 18.0713 7.38306 17.8618 8.26538L17.8391 8.35706C17.8315 8.38538 17.825 8.40997 17.8193 8.43079C17.8032 8.48956 17.7957 8.51758 17.8042 8.51282C18.6592 8.51282 20.2261 5.56641 20.2207 5.48755C20.9585 6.44794 21.7498 7.88062 22.5945 9.78564L22.5884 9.78577C23.0654 10.8605 23.3301 12.051 23.3301 13.3032C23.3301 18.1063 19.4365 22 14.6333 22C9.83032 22 5.93652 18.1063 5.93652 13.3032C5.93652 11.0698 6.77832 9.03302 8.16211 7.49292L8.19385 7.43689C9.67261 6.02655 11.282 3.62677 13.0215 0.237549C13.2356 -0.0791626 13.4958 -0.0791626 13.8022 0.237549ZM14.1804 10.0013C14.239 9.9928 14.3035 10.025 14.374 10.0979C16.4651 11.8745 16.092 13.2446 16.0295 13.4745C16.0229 13.4987 16.0198 13.5103 16.0234 13.5083C16.3757 13.5083 17.0215 12.2941 17.0193 12.2615C17.3232 12.6573 17.6494 13.2477 17.9934 14.033C18.1917 14.4757 18.3008 14.9664 18.3008 15.4825C18.3008 17.462 16.696 19.0667 14.7166 19.0667C12.7371 19.0667 11.1326 17.462 11.1326 15.4825C11.1326 14.5615 11.48 13.7216 12.0508 13.0867L12.0627 13.0649C12.6721 12.4836 13.3354 11.4947 14.0522 10.0979C14.0913 10.0403 14.134 10.0081 14.1804 10.0013Z" clip-rule="evenodd" fill="url(#paint_linear_18_1644_0)" fill-opacity="1.000000" fill-rule="evenodd"/>
	</g>
</svg>
