<svg width="24.000000" height="24.000000" viewBox="0 0 24 24" fill="none" xmlns="http://www.w3.org/2000/svg" xmlns:xlink="http://www.w3.org/1999/xlink">
	<desc>
			Created with Pixso.
	</desc>
	<defs>
		<clipPath id="clip18_3263">
			<rect id="AI_search" width="24.000000" height="24.000000" fill="white" fill-opacity="0"/>
		</clipPath>
	</defs>
	<g clip-path="url(#clip18_3263)">
		<g opacity="0.000000">
			<rect id="rect" width="24.000000" height="24.000000" fill="#000000" fill-opacity="1.000000"/>
		</g>
		<path id="path" d="M9.33 15.82C8.37 15.62 7.55 15.18 6.85 14.48C6.17 13.78 5.72 12.96 5.52 12C5.52 11.93 5.5 11.88 5.45 11.86C5.41 11.82 5.37 11.81 5.32 11.81C5.28 11.81 5.23 11.82 5.19 11.86C5.15 11.88 5.12 11.93 5.1 12C4.91 12.96 4.47 13.78 3.77 14.48C3.08 15.18 2.26 15.62 1.31 15.82C1.25 15.82 1.2 15.83 1.18 15.86C1.16 15.89 1.14 15.94 1.14 16.01C1.14 16.05 1.16 16.09 1.18 16.12C1.2 16.16 1.25 16.18 1.31 16.2C2.27 16.42 3.1 16.88 3.78 17.57C4.47 18.25 4.9 19.07 5.08 20.02C5.13 20.11 5.21 20.16 5.32 20.16C5.36 20.16 5.39 20.14 5.43 20.12C5.47 20.1 5.5 20.06 5.52 20.02C5.72 19.07 6.17 18.25 6.87 17.57C7.57 16.88 8.39 16.42 9.33 16.2C9.38 16.2 9.42 16.18 9.45 16.15C9.48 16.11 9.5 16.07 9.5 16.03C9.5 15.91 9.44 15.84 9.33 15.82Z" fill="#000000" fill-opacity="0.901961" fill-rule="nonzero"/>
		<path id="path" d="M17.86 16.34C18.56 15.54 19.11 14.63 19.51 13.63C19.9 12.62 20.11 11.56 20.11 10.46C20.11 8.84 19.7 7.35 18.9 5.98C18.11 4.62 17.02 3.53 15.65 2.73C14.29 1.94 12.8 1.53 11.17 1.53C9.56 1.53 8.08 1.94 6.71 2.75C5.36 3.55 4.28 4.65 3.47 6.03C2.67 7.41 2.28 8.92 2.28 10.56C2.28 10.76 2.35 10.94 2.5 11.09C2.64 11.23 2.81 11.3 3.02 11.3C3.23 11.3 3.4 11.23 3.55 11.09C3.69 10.94 3.77 10.76 3.77 10.56C3.77 9.19 4.1 7.94 4.76 6.78C5.42 5.63 6.32 4.72 7.45 4.06C8.6 3.38 9.84 3.04 11.17 3.04C12.52 3.04 13.76 3.38 14.9 4.03C16.04 4.7 16.93 5.6 17.6 6.73C18.26 7.88 18.6 9.12 18.6 10.46C18.6 11.8 18.26 13.04 17.59 14.18C16.91 15.32 16 16.21 14.86 16.87C13.7 17.54 12.45 17.87 11.09 17.87C10.88 17.87 10.7 17.95 10.56 18.1C10.41 18.24 10.34 18.41 10.34 18.62C10.34 18.83 10.41 19.01 10.56 19.15C10.7 19.29 10.88 19.37 11.09 19.37C12.14 19.37 13.15 19.19 14.12 18.85C15.09 18.5 15.97 18.02 16.75 17.4L21.55 22.25C21.73 22.39 21.91 22.46 22.1 22.46C22.29 22.46 22.47 22.39 22.63 22.25C22.77 22.1 22.85 21.92 22.85 21.72C22.85 21.51 22.77 21.33 22.63 21.19L17.86 16.34Z" fill="#000000" fill-opacity="0.901961" fill-rule="nonzero"/>
	</g>
</svg>
